<?xml version="1.0" encoding="utf-8"?>
<!-- Generator: Adobe Illustrator 15.0.0, SVG Export Plug-In . SVG Version: 6.00 Build 0)  -->
<!DOCTYPE svg PUBLIC "-//W3C//DTD SVG 1.1//EN" "http://www.w3.org/Graphics/SVG/1.1/DTD/svg11.dtd">
<svg version="1.1" id="Selected_Items" xmlns="http://www.w3.org/2000/svg" xmlns:xlink="http://www.w3.org/1999/xlink" x="0px"
	 y="0px" width="105.345px" height="79.479px" viewBox="0 0 105.345 79.479" enable-background="new 0 0 105.345 79.479"
	 xml:space="preserve">
<g>
	<polygon fill-rule="evenodd" clip-rule="evenodd" fill="#DCD8CD" points="41.55,0 101.2,0 101.225,0.024 101.225,59.675 
		41.55,59.7 41.525,59.675 41.525,0.024 	"/>
</g>
<g>
	<path fill-rule="evenodd" clip-rule="evenodd" fill="#5A5341" d="M80.125,2.899c2.875-0.567,5.742-0.851,8.6-0.85
		c4.056,0.003,8.114,0.569,12.175,1.7l0.4,0.1l0.024,5.825l-0.05,0.025l-0.2-0.101l-0.199-0.1c-2.761-1.032-5.761-1.549-9-1.55
		c-0.719-0.001-1.452,0.024-2.2,0.074c-0.749,0.05-1.508,0.125-2.275,0.226c-6.32,0.854-11.763,2.871-16.325,6.05
		c-4.561,3.176-8.21,7.492-10.95,12.95c-2.878,5.693-4.628,11.26-5.25,16.7c-0.633,5.438-0.133,10.714,1.5,15.824L56.35,59.8H45
		c-0.686-2.317-1.111-4.726-1.275-7.225c-0.402-4.837-0.127-9.545,0.825-14.125c0.965-4.579,2.607-9.029,4.925-13.351
		c2.44-4.618,5.498-8.568,9.175-11.85c3.674-3.269,7.965-5.869,12.875-7.8C74.38,4.32,77.247,3.47,80.125,2.899z M72.675,23.774
		c3.958-2.407,8.55-3.615,13.774-3.625l1.5,0.051l1.551,0.1c5.069,0.468,8.878,1.668,11.425,3.6c0.133,0.1,0.267,0.217,0.399,0.351
		v18.975c-0.068,0.076-0.118,0.176-0.149,0.3c-0.102,0.146-0.186,0.288-0.25,0.426c-1.002,1.601-2.186,3.067-3.55,4.399L97,48.725
		l-0.176,0.175c-2.391,1.894-4.974,2.844-7.75,2.851c-0.476-0.006-0.959-0.039-1.449-0.101c-0.488-0.055-0.979-0.139-1.476-0.25
		l-5.675-2.6l-2.4-1.85l0.025-0.051l1.375-0.05l-0.4-0.55l0.051-0.225v-0.4l0.625-0.225l0.625,0.225l0.199-1.45L81.2,44.05L86,45.45
		c1.92-0.276,3.479-1.159,4.675-2.65c2.261-3.026,3.478-6.019,3.649-8.975c0.18-2.965-0.688-5.873-2.6-8.726l-0.9-0.024
		c-3.017,0.005-5.884,0.747-8.6,2.225c-5.772,3.238-9.572,7.247-11.4,12.025c-1.818,4.779-1.651,10.296,0.5,16.55
		c0.237,0.688,0.495,1.355,0.775,2c0.272,0.652,0.564,1.277,0.875,1.875L72.95,59.8H62.7c-2.486-3.968-3.727-8.052-3.725-12.25
		c0.016-4.197,1.266-8.514,3.75-12.95C65.407,29.794,68.724,26.186,72.675,23.774z"/>
</g>
<g>
	<path fill-rule="evenodd" clip-rule="evenodd" fill="#B8E300" d="M40.8,67.375l-2.55,5.95h5L40.8,67.375z M66.1,65.875h1.3v13.05
		h-1.3V65.875z M59.7,65.875v1.2h-5.3v4.699h5.15v1.2H54.4v5.95h-1.3v-13.05H59.7z M85.3,69.125c-0.4-0.601-1.05-1.134-1.95-1.601
		c-0.866-0.433-1.75-0.649-2.65-0.649c-1.399,0-2.666,0.566-3.8,1.7c-1.066,1.033-1.6,2.283-1.6,3.75c0,1.566,0.533,2.883,1.6,3.949
		c1.101,1.101,2.4,1.65,3.9,1.65c0.866,0,1.717-0.233,2.55-0.7c0.866-0.434,1.533-1,2-1.7h1.5c-0.566,1.067-1.417,1.95-2.55,2.65
		c-1.066,0.634-2.233,0.95-3.5,0.95c-1.967,0-3.584-0.65-4.851-1.95c-1.333-1.233-2-2.85-2-4.85c0-1.834,0.667-3.417,2-4.75
		c1.334-1.267,2.917-1.9,4.75-1.9c1.467,0,2.567,0.25,3.301,0.75c0.699,0.4,1.316,0.866,1.85,1.4c0.434,0.433,0.733,0.866,0.9,1.3
		H85.3z M97.85,65.875h1.4l5.6,13.05h-1.4l-1.899-4.4H95.5l-1.9,4.4h-1.4L97.85,65.875z M101,73.325l-2.45-5.95L96,73.325H101z
		 M35.85,78.925h-1.4l5.65-13.05h1.4l5.6,13.05h-1.4l-1.9-4.4h-6.05L35.85,78.925z M3.15,68.375c-0.5,0.399-0.95,1.017-1.35,1.85
		c-0.3,0.566-0.45,1.267-0.45,2.101c0,1.666,0.55,3,1.65,4c1.133,1.066,2.5,1.6,4.1,1.6c1.2,0,2.283-0.366,3.25-1.1
		c1.033-0.733,1.7-1.634,2-2.7h-7.3v-1.2h8.9c0,1.733-0.7,3.2-2.1,4.4c-1.333,1.199-2.933,1.8-4.8,1.8
		c-1.934,0-3.583-0.65-4.95-1.95c-1.4-1.333-2.1-2.95-2.1-4.85c0-0.767,0.184-1.601,0.55-2.5c0.333-0.801,0.85-1.551,1.55-2.25
		c0.633-0.601,1.367-1.084,2.2-1.45c0.9-0.3,1.816-0.45,2.75-0.45c1.4,0,2.517,0.25,3.35,0.75l1.85,1.5
		c0.367,0.366,0.667,0.816,0.9,1.35h-1.5c-0.466-0.733-1.117-1.3-1.95-1.699c-0.867-0.467-1.75-0.7-2.65-0.7
		c-0.7,0-1.417,0.133-2.15,0.399C4.3,67.508,3.717,67.875,3.15,68.375z M23,72.975l2.3-0.05l1.15-0.35c0.433-0.2,0.783-0.534,1.05-1
		c0.3-0.534,0.45-1.067,0.45-1.601c0-0.366-0.117-0.783-0.35-1.25l-0.9-1.1c-0.333-0.233-0.767-0.384-1.3-0.45l-3.7-0.1v11.85h-1.3
		v-13.05l5.25,0.1c0.5,0.066,1.05,0.267,1.65,0.601c0.6,0.3,1.083,0.767,1.45,1.399c0.3,0.667,0.45,1.384,0.45,2.15
		c0,1.1-0.367,2.033-1.1,2.8c-0.767,0.767-1.667,1.15-2.7,1.15l3.65,4.85h-1.6L23,72.975z"/>
</g>
</svg>
