<?xml version="1.0" encoding="utf-8"?>
<!-- Generator: Adobe Illustrator 15.0.0, SVG Export Plug-In . SVG Version: 6.00 Build 0)  -->
<!DOCTYPE svg PUBLIC "-//W3C//DTD SVG 1.1//EN" "http://www.w3.org/Graphics/SVG/1.1/DTD/svg11.dtd">
<svg version="1.1" id="Selected_Items" xmlns="http://www.w3.org/2000/svg" xmlns:xlink="http://www.w3.org/1999/xlink" x="0px"
	 y="0px" width="271.123px" height="35.026px" viewBox="0 0 271.123 35.026" enable-background="new 0 0 271.123 35.026"
	 xml:space="preserve">
<g>
	<path fill-rule="evenodd" clip-rule="evenodd" fill="#B6E300" d="M268.226,6.725c1.733,1.767,2.616,3.95,2.649,6.55
		c-0.033,2.066-0.616,3.917-1.75,5.55c-0.3,0.367-0.6,0.717-0.899,1.05c-1.834,1.767-4.034,2.667-6.601,2.7
		c-2.633-0.033-4.85-0.933-6.649-2.7c-0.367-0.333-0.684-0.683-0.95-1.05c-1.101-1.533-1.684-3.25-1.75-5.15v-0.65
		c0.033-1.567,0.434-3.034,1.2-4.4c0.833-1.433,1.966-2.566,3.399-3.4c1.334-0.833,2.783-1.233,4.351-1.2h0.199
		C264.092,4.025,266.358,4.925,268.226,6.725z M261.525,6.525c-1.167,0-2.267,0.3-3.3,0.9c-1.067,0.6-1.884,1.433-2.45,2.5
		c-0.601,1-0.9,2.133-0.9,3.4c0,1.9,0.65,3.5,1.95,4.8l0.1,0.15c1.267,1.2,2.801,1.816,4.601,1.85c1.233-0.033,2.383-0.35,3.45-0.95
		c0.466-0.3,0.883-0.6,1.25-0.9c0.199-0.233,0.416-0.483,0.649-0.75c0.2-0.267,0.384-0.534,0.55-0.8
		c0.534-1.033,0.834-2.183,0.9-3.45c-0.066-1.267-0.366-2.4-0.9-3.4c-0.633-1.033-1.449-1.85-2.449-2.45
		C263.875,6.825,262.726,6.525,261.525,6.525z M238.075,8.275c0.9,1.466,1.384,3.216,1.45,5.25c-0.066,1.733-0.45,3.3-1.15,4.7
		c-0.8,1.333-1.8,2.333-3,3c-1.267,0.633-2.983,0.95-5.149,0.95h-5.4c-0.1-0.033-0.184-0.083-0.25-0.15
		c-0.134-0.1-0.184-0.2-0.15-0.3v-16.9c-0.033-0.1,0.017-0.183,0.15-0.25c0.066-0.133,0.15-0.183,0.25-0.15h3.5
		c2.566,0,4.45,0.217,5.65,0.65c1.699,0.567,3.066,1.6,4.1,3.1V8.275z M230.675,7.025c-0.833-0.1-1.833-0.133-3-0.1h-0.75v12.8h1.45
		c1.134-0.033,2.101-0.083,2.9-0.15c0.767-0.1,1.383-0.2,1.85-0.3c1.167-0.4,2.101-1.083,2.8-2.05c0.634-1,0.983-2.233,1.051-3.7
		c-0.034-1.567-0.417-2.867-1.15-3.9c-0.767-1.1-1.8-1.833-3.1-2.2C232.191,7.258,231.509,7.125,230.675,7.025z M244.726,4.575
		c0.066-0.133,0.166-0.183,0.3-0.15h1.649c0.101-0.033,0.217,0.017,0.351,0.15c0.066,0.067,0.1,0.15,0.1,0.25v16.9
		c0,0.1-0.033,0.2-0.1,0.3c-0.134,0.066-0.25,0.117-0.351,0.15h-1.649c-0.134-0.033-0.233-0.083-0.3-0.15
		c-0.101-0.1-0.134-0.2-0.101-0.3v-16.9C244.592,4.725,244.625,4.642,244.726,4.575z M191.976,4.425h9.25
		c0.1-0.033,0.199,0.017,0.3,0.15c0.033,0.067,0.083,0.15,0.149,0.25v1.65c-0.066,0.1-0.116,0.217-0.149,0.35
		c-0.101,0.067-0.2,0.1-0.3,0.1h-3.301v14.8c-0.033,0.1-0.083,0.2-0.149,0.3c-0.101,0.066-0.2,0.117-0.3,0.15h-1.75
		c-0.101-0.033-0.184-0.083-0.25-0.15c-0.134-0.1-0.184-0.2-0.15-0.3v-14.8h-3.35c-0.134,0-0.233-0.033-0.301-0.1
		c-0.1-0.133-0.133-0.25-0.1-0.35v-1.65c-0.033-0.1,0-0.183,0.1-0.25C191.742,4.442,191.842,4.392,191.976,4.425z M187.476,6.575
		c0.066,0.033,0.116,0.1,0.149,0.2c0,0.1-0.017,0.2-0.05,0.3c-0.033,0.033-0.083,0.083-0.15,0.15l-1.5,0.85
		c-0.1,0.033-0.183,0.067-0.25,0.1l-0.05-0.05c-0.1-0.033-0.184-0.066-0.25-0.1c-0.399-0.4-0.767-0.717-1.1-0.95
		c-0.334-0.233-0.65-0.417-0.95-0.55s-0.6-0.233-0.9-0.3c-0.3-0.066-0.616-0.1-0.949-0.1c-0.434,0-0.817,0.05-1.15,0.15
		c-0.366,0.066-0.684,0.2-0.95,0.4c-0.5,0.367-0.75,0.816-0.75,1.35c0,0.3,0.084,0.6,0.25,0.9c0.233,0.3,0.601,0.65,1.101,1.05
		c0.133,0.1,0.449,0.3,0.949,0.6l1.95,1.1c1.967,1.066,3.334,2.033,4.101,2.9c0.767,0.9,1.149,1.8,1.149,2.7l-1.85,3.3
		c-0.033,0.067-0.066,0.117-0.101,0.15c-1.3,0.9-2.866,1.35-4.699,1.35h-0.051c-1.433,0-2.716-0.267-3.85-0.8l-0.15-0.05
		c-0.233-0.133-0.466-0.267-0.699-0.4c-0.367-0.267-0.733-0.567-1.101-0.9c-0.366-0.333-0.7-0.717-1-1.15l-0.149-0.15
		c-0.034-0.1-0.051-0.183-0.051-0.25c-0.033-0.1-0.017-0.183,0.051-0.25c0.033-0.066,0.083-0.1,0.149-0.1l0.05-0.05l1.601-0.7
		c0.066-0.067,0.149-0.1,0.25-0.1l0.05,0.05c0.1,0,0.184,0.05,0.25,0.15l0.15,0.2c1.233,1.567,2.649,2.367,4.25,2.4
		c0.333-0.033,0.683-0.066,1.05-0.1c0.333-0.1,0.666-0.2,1-0.3c0.6-0.267,1.066-0.6,1.399-1c0.301-0.4,0.45-0.817,0.45-1.25
		c0-0.5-0.217-0.983-0.649-1.45l-0.101-0.1c-0.366-0.367-0.866-0.767-1.5-1.2c-0.633-0.433-1.383-0.9-2.25-1.4
		c-0.967-0.533-1.75-0.983-2.35-1.35c-0.601-0.4-1.017-0.733-1.25-1l-0.351-0.35c-0.633-0.767-0.933-1.566-0.899-2.4
		c-0.033-0.8,0.2-1.533,0.7-2.2l0.25-0.2c0.199-0.267,0.466-0.5,0.8-0.7c0.333-0.233,0.7-0.417,1.1-0.55
		c0.434-0.2,0.9-0.35,1.4-0.45c0.467-0.1,0.967-0.133,1.5-0.1c0.533,0,1.066,0.05,1.6,0.15c0.5,0.1,1,0.25,1.5,0.45
		C185.525,4.842,186.476,5.542,187.476,6.575z M218.226,4.825v10.2c0,0.767-0.034,1.483-0.101,2.15
		c-0.1,0.633-0.217,1.183-0.35,1.65c-0.033,0.033-0.05,0.083-0.05,0.15c-0.367,0.9-0.983,1.733-1.851,2.5
		c-1,0.733-2.166,1.1-3.5,1.1c-1.467,0-2.717-0.333-3.75-1c-1.066-0.767-1.767-1.7-2.1-2.8c-0.066-0.067-0.084-0.117-0.05-0.15
		c-0.101-0.367-0.184-0.833-0.25-1.4c-0.067-0.633-0.084-1.367-0.051-2.2v-10.2c-0.033-0.1,0.017-0.183,0.15-0.25
		c0.066-0.133,0.15-0.183,0.25-0.15h1.7c0.1-0.033,0.217,0.017,0.35,0.15c0.066,0.067,0.101,0.15,0.101,0.25v11.65
		c0,0.367,0.033,0.617,0.1,0.75c0.066,0.6,0.233,1.1,0.5,1.5c0.267,0.333,0.667,0.667,1.2,1l0.05,0.05
		c0.267,0.1,0.533,0.183,0.8,0.25c0.3,0.033,0.584,0.066,0.851,0.1c0.5-0.033,0.983-0.133,1.449-0.3
		c0.434-0.267,0.801-0.55,1.101-0.85l0.05-0.05c0.134-0.2,0.267-0.417,0.4-0.65c0.1-0.233,0.199-0.483,0.3-0.75
		c0.033-0.2,0.066-0.5,0.1-0.9c0-0.433,0.017-0.966,0.05-1.6v-10.2c-0.033-0.1,0.017-0.183,0.15-0.25
		c0.066-0.133,0.15-0.183,0.25-0.15h1.7c0.1-0.033,0.217,0.017,0.35,0.15C218.191,4.642,218.226,4.725,218.226,4.825z"/>
	<path fill-rule="evenodd" clip-rule="evenodd" fill="#DCD8CD" d="M165.25,12.975c0.071,0.577,0.104,1.194,0.101,1.85l-0.025,0.075
		l-0.1,0.05H149.5c0.054,1.407,0.729,2.649,2.025,3.725c1.337,1.111,2.837,1.669,4.5,1.675c1.28-0.003,2.488-0.328,3.625-0.975
		c1.173-0.641,2.007-1.499,2.5-2.575l0.05-0.025l0.05-0.025h2.476l0.074,0.025l0.051,0.05V16.9
		c-0.611,1.699-1.729,3.091-3.351,4.175c-1.624,1.081-3.382,1.623-5.274,1.625c-2.57,0-4.771-0.842-6.601-2.525
		c-1.818-1.662-2.727-3.712-2.725-6.15c-0.002-2.404,0.89-4.455,2.675-6.15c1.797-1.649,3.997-2.474,6.6-2.475
		c1.398,0,2.707,0.267,3.926,0.8c1.243,0.539,2.285,1.297,3.125,2.275c0.845,0.957,1.403,1.932,1.675,2.925
		C165.054,11.881,165.171,12.406,165.25,12.975z M160.45,9.225c-1.247-0.979-2.672-1.47-4.275-1.475
		c-1.642,0.004-3.083,0.479-4.324,1.425c-1.188,0.919-1.954,2.094-2.301,3.525h13.15C162.385,11.332,161.635,10.174,160.45,9.225z
		 M130.275,0h2.399l0.075,0.025l0.05,0.1v22.05l-0.024,0.075l-0.101,0.05h-2.399l-0.075-0.025l-0.05-0.1V0.125l0.024-0.075
		L130.275,0z M138.875,0.05L138.976,0h2.399l0.075,0.025l0.05,0.1v22.05l-0.024,0.075l-0.101,0.05h-2.399l-0.075-0.025l-0.05-0.1
		V0.125L138.875,0.05z M125.601,12.325c0.07,0.577,0.104,1.194,0.1,1.85l-0.025,0.075l-0.1,0.05h-15.725
		c0.054,1.408,0.729,2.649,2.024,3.725c1.338,1.111,2.838,1.669,4.5,1.675c1.28-0.003,2.488-0.328,3.625-0.975
		c1.174-0.641,2.007-1.499,2.5-2.575l0.05-0.025l0.051-0.025h2.475l0.075,0.025l0.05,0.05v0.075c-0.611,1.7-1.729,3.091-3.35,4.175
		c-1.624,1.08-3.382,1.622-5.275,1.625c-2.57,0-4.77-0.842-6.6-2.525c-1.609-1.473-2.509-3.248-2.7-5.325l-4.5,0.1l-6.4,0.15
		l-2.85,0.05l-0.601,0.025h-0.35l-0.15,0.025l0.025,0.05l0.5,1.875c2.077,7.707,7.235,12.666,15.475,14.875
		c3.148,0.814,6.731,1.223,10.75,1.225c4.031-0.002,8.498-0.411,13.4-1.225h0.1l0.125,0.1v0.125l-0.05,0.075l-0.175,0.1l-0.325,0.15
		l-0.625,0.325L130.7,32.7c-0.374,0.183-0.907,0.375-1.6,0.575c-0.688,0.201-1.529,0.409-2.525,0.625
		c-1.014,0.204-1.955,0.362-2.825,0.475c-0.869,0.104-1.66,0.163-2.375,0.175l-2.35,0.05c-0.164,0.033-0.363,0.05-0.601,0.05
		L117.5,34.7h-0.925c-3.325-0.004-6.417-0.387-9.275-1.15c-2.854-0.759-5.453-1.893-7.8-3.4c-5.394-3.448-8.927-8.556-10.6-15.325
		l-0.15-0.55c-0.082,0.047-0.216,0.072-0.399,0.075c-0.268-0.003-0.643-0.054-1.125-0.15c-0.42-0.099-0.771-0.216-1.051-0.35
		c-0.28-0.133-0.488-0.283-0.625-0.45l-0.274-0.475c-0.055-0.116-0.079-0.199-0.075-0.25v-0.25c-0.033-0.067-0.05-0.134-0.05-0.2
		c-0.004-0.11,0.013-0.185,0.05-0.225l0.1-0.1l0.075-0.025l0.101,0.025h0.199h0.101h0.1h2.101h0.875l0.024-3.05l-0.024-2.425
		L88.75,4.9l-0.1-1.075l-0.05-0.35L88.375,3.55L88.25,3.5l-0.125-0.05L88.05,3.275l-0.25-1.4c-0.067-0.341-0.018-0.699,0.15-1.075
		c0.137-0.436,0.429-0.703,0.875-0.8h0.35c1.18,0.096,1.921,0.529,2.226,1.3c0.133,0.307,0.217,0.649,0.25,1.025l0.1,3.25l0.075,0.7
		l0.075,1.3c0.037,0.51,0.062,1.027,0.075,1.55l-0.025,1.6l-0.05,1.2l0.075-0.025l15.375,0.15c0.27-1.841,1.128-3.449,2.574-4.825
		c1.797-1.649,3.997-2.474,6.601-2.475c1.398,0,2.706,0.267,3.925,0.8c1.243,0.539,2.285,1.297,3.125,2.275
		c0.846,0.957,1.404,1.932,1.675,2.925C125.404,11.231,125.521,11.756,125.601,12.325z M120.8,8.575
		c-1.246-0.978-2.671-1.47-4.274-1.475c-1.642,0.004-3.083,0.479-4.325,1.425c-1.187,0.92-1.954,2.095-2.3,3.525h13.149
		C122.733,10.682,121.983,9.524,120.8,8.575z M78.175,9.35c-0.093-0.668-0.501-1.21-1.225-1.625L76.9,7.65
		c-0.387-0.199-0.829-0.349-1.325-0.45c-0.49-0.1-1.032-0.149-1.625-0.15h-0.075c-1.03,0.009-1.905,0.243-2.625,0.7
		c-0.766,0.466-1.149,1.042-1.149,1.725c-0.001,0.876,0.433,1.519,1.3,1.925c0.4,0.183,0.942,0.366,1.625,0.55
		c0.681,0.184,1.497,0.368,2.45,0.55c0.957,0.2,1.832,0.433,2.625,0.7c0.788,0.269,1.488,0.568,2.1,0.9
		c1.199,0.626,1.799,1.585,1.8,2.875c-0.002,1.48-0.752,2.688-2.25,3.625C78.176,21.533,76.185,22,73.775,22h-0.05
		c-2.177,0-4.035-0.5-5.575-1.5c-1.423-0.951-2.173-2.059-2.25-3.325l0.024-0.025h3.2c0.098,0.818,0.59,1.535,1.476,2.15
		c0.919,0.625,2.061,0.941,3.425,0.95c1.364-0.01,2.489-0.293,3.375-0.85c0.933-0.532,1.399-1.223,1.399-2.075
		c0-0.976-0.483-1.701-1.449-2.175c-0.469-0.233-0.994-0.441-1.575-0.625c-0.581-0.185-1.214-0.343-1.9-0.475
		c-0.697-0.113-1.305-0.221-1.825-0.325c-0.517-0.113-0.941-0.221-1.274-0.325c-0.341-0.076-0.674-0.176-1-0.3
		c-0.334-0.125-0.659-0.275-0.976-0.45c-0.579-0.354-1.046-0.787-1.399-1.3c-0.34-0.543-0.506-1.101-0.5-1.675
		c0.003-1.28,0.686-2.338,2.05-3.175c1.439-0.799,3.197-1.199,5.275-1.2h0.05c1.947,0,3.622,0.417,5.024,1.25
		c1.281,0.785,1.965,1.71,2.051,2.775L81.325,9.35H78.175z M46.275,5.8l0.1-0.05h2.4l0.075,0.025l0.05,0.1v8.6
		c0.004,0.51,0.021,0.952,0.05,1.325c0.021,0.371,0.055,0.671,0.1,0.9c0.062,0.229,0.188,0.528,0.375,0.9
		c0.189,0.365,0.439,0.798,0.75,1.3c0.625,0.958,1.941,1.441,3.95,1.45c1.722-0.011,2.955-0.469,3.7-1.375
		c0.355-0.462,0.639-0.887,0.85-1.275c0.216-0.39,0.357-0.74,0.426-1.05c0.078-0.316,0.136-0.658,0.175-1.025
		c0.045-0.36,0.07-0.744,0.075-1.15v-8.6L59.375,5.8l0.101-0.05h2.35L61.9,5.775l0.05,0.1v16.3l-0.025,0.075l-0.1,0.05h-2.25
		L59.5,22.275l-0.05-0.1V20.15c-0.529,0.799-1.229,1.416-2.1,1.85c-1.052,0.467-2.234,0.701-3.551,0.7h-0.024
		c-0.604,0.004-1.18-0.045-1.726-0.15c-0.543-0.113-1.06-0.279-1.55-0.5c-0.976-0.439-1.967-1.214-2.975-2.325
		c-0.242-0.243-0.451-0.535-0.625-0.875c-0.169-0.337-0.303-0.72-0.4-1.15c-0.087-0.432-0.154-0.915-0.2-1.45
		c-0.037-0.543-0.054-1.135-0.05-1.775v-8.6L46.275,5.8z M40.851,5.875v16.3l-0.025,0.075l-0.1,0.05h-2.25L38.4,22.275l-0.05-0.1
		v-2.6c-0.655,0.942-1.521,1.684-2.601,2.225c-1.218,0.6-2.567,0.9-4.05,0.9h-0.025c-1.398,0-2.773-0.284-4.125-0.85
		c-1.378-0.607-2.436-1.299-3.175-2.075c-0.374-0.394-0.707-0.819-1-1.275c-0.285-0.447-0.526-0.922-0.725-1.425
		c-0.188-0.49-0.329-0.998-0.425-1.525c-0.089-0.526-0.13-1.068-0.125-1.625C22.1,13.418,22.149,12.91,22.25,12.4
		c0.1-0.51,0.25-1.018,0.45-1.525c0.439-0.994,1.081-1.894,1.925-2.7c0.806-0.81,1.848-1.485,3.125-2.025
		c1.259-0.5,2.542-0.75,3.851-0.75c1.514,0,2.896,0.283,4.149,0.85c1.098,0.504,1.965,1.237,2.601,2.2V5.875L38.375,5.8l0.101-0.05
		h2.25L40.8,5.775L40.851,5.875z M31.625,7.75c-1.894,0.007-3.51,0.632-4.85,1.875c-1.373,1.241-2.064,2.724-2.075,4.45
		c0.011,1.759,0.72,3.243,2.125,4.45c1.372,1.211,2.989,1.819,4.85,1.825c1.795-0.008,3.362-0.633,4.7-1.875
		c1.307-1.239,1.965-2.689,1.976-4.35c-0.01-1.76-0.651-3.26-1.926-4.5C35.118,8.382,33.519,7.757,31.625,7.75z M2.65,0.125v8.4
		C3.234,7.598,4.067,6.856,5.15,6.3c1.284-0.601,2.617-0.901,4-0.9c2.652,0.002,4.927,0.81,6.825,2.425
		c1.853,1.628,2.777,3.662,2.774,6.1c0.001,0.557-0.049,1.098-0.149,1.625c-0.1,0.535-0.25,1.052-0.45,1.55
		c-0.44,1.009-1.1,1.967-1.976,2.875c-0.882,0.911-1.882,1.586-3,2.025c-1.1,0.467-2.358,0.7-3.774,0.7H9.375
		c-1.365,0-2.74-0.284-4.125-0.85c-1.2-0.518-2.133-1.209-2.8-2.075v2.4L2.425,22.25l-0.1,0.05h-2.2L0.05,22.275L0,22.175V0.125
		L0.025,0.05L0.125,0h2.4L2.6,0.025L2.65,0.125z M2.575,12.875c-0.077,0.416-0.119,0.849-0.125,1.3
		c0.01,1.726,0.685,3.192,2.025,4.4c1.339,1.177,2.972,1.768,4.9,1.775c1.862-0.007,3.445-0.632,4.75-1.875
		c1.341-1.24,2.017-2.724,2.025-4.45c-0.01-1.792-0.686-3.292-2.025-4.5c-1.34-1.178-2.973-1.77-4.899-1.775
		c-0.479,0.001-0.945,0.043-1.4,0.125c-0.447,0.085-0.88,0.21-1.3,0.375C6.114,8.412,5.723,8.612,5.35,8.85
		C4.986,9.089,4.645,9.364,4.325,9.675c-0.328,0.312-0.611,0.637-0.85,0.975C3.238,10.989,3.046,11.339,2.9,11.7
		C2.75,12.078,2.642,12.469,2.575,12.875z"/>
</g>
</svg>
