<?xml version="1.0" encoding="utf-8"?>
<!-- Generator: Adobe Illustrator 15.0.0, SVG Export Plug-In . SVG Version: 6.00 Build 0)  -->
<!DOCTYPE svg PUBLIC "-//W3C//DTD SVG 1.1//EN" "http://www.w3.org/Graphics/SVG/1.1/DTD/svg11.dtd">
<svg version="1.1" id="Selected_Items" xmlns="http://www.w3.org/2000/svg" xmlns:xlink="http://www.w3.org/1999/xlink" x="0px"
	 y="0px" width="170.194px" height="77.009px" viewBox="0 0 170.194 77.009" enable-background="new 0 0 170.194 77.009"
	 xml:space="preserve">
<g>
	<polygon fill-rule="evenodd" clip-rule="evenodd" fill="#DCD8CD" points="92.3,17.359 151.9,17.359 151.925,17.384 151.925,76.984 
		151.9,77.009 92.3,77.009 92.275,76.984 92.275,17.384 	"/>
</g>
<g>
	<path fill-rule="evenodd" clip-rule="evenodd" fill="#5A5341" d="M96.975,19.41l0.075,0.024l0.05,0.025
		c0.111-0.002,0.202,0.048,0.275,0.149c0.104,0.043,0.154,0.168,0.15,0.375c-0.031,0.072-0.031,0.173,0,0.301
		c0,0.638,0.017,1.288,0.05,1.949v0.4v0.15v0.449v0.15v0.3v0.101v0.5v0.1l0.025,1.725l0.075,1.775v0.3l0.05,0.7l0.025,2.125
		l0.025,2.125v1.55l0.025,0.95l0.075,0.9v0.1v0.3v0.101v0.399v0.45v0.05v1.101c0.033,0.298,0.033,0.564,0,0.8l0.05,1.3v1.3
		c-0.033,0.27-0.05,0.569-0.05,0.9c0,0.266,0.017,0.516,0.05,0.75c0.034,0.367,0.034,0.684,0,0.95
		c0.002,0.255,0.052,0.446,0.15,0.574l0.075,0.051l0.1,0.074l0.075-0.1v-0.1c0.065-0.051,0.099-0.134,0.1-0.25
		c-0.1-0.235-0.1-0.502,0-0.801c-0.003-0.256-0.036-0.431-0.1-0.524v-0.125L98.3,42.91l-0.025-0.875v-0.101v-0.8l-0.025-0.6
		l0.025-0.45v-0.2v-0.15c-0.055-0.331-0.088-0.673-0.1-1.024c-0.004-0.351,0.012-0.709,0.05-1.075v-0.1v-0.4v-0.45
		c-0.065-0.232-0.099-0.449-0.1-0.649L98.1,35.934c-0.018-0.166-0.009-0.299,0.025-0.399v-0.101c-0.033-0.365-0.033-0.731,0-1.1
		c0-0.198-0.018-0.348-0.05-0.45c-0.037-0.106-0.037-0.182,0-0.225c0.031-0.161,0.031-0.369,0-0.625l0.025-0.025h0.375v-0.075
		L98.5,32.91c0.108,0,0.2,0.033,0.275,0.1h0.175h0.1h0.2h0.05h0.275l0.1-0.05l0.1,0.05c0.034,0.138,0.05,0.288,0.05,0.45l0.1,0.05
		v0.375c-0.065,0.37-0.065,0.72,0,1.05v1.2v0.1v0.301c0.033,0.099,0.05,0.199,0.05,0.3l0.025,1.05l0.025,1.05v0.101
		c-0.033,0.203-0.033,0.503,0,0.899c0,0.402,0.033,0.852,0.1,1.351v1.05v0.6v0.101l0.025,0.425l-0.025,0.475
		c-0.064,0.261-0.047,0.485,0.05,0.675v0.075l-0.025,0.226l0.025,0.1v1.25c0.259,0.099,0.534,0.182,0.825,0.25l0.225,0.1l0.2,0.101
		l3.325,1l3.35,1.1l1.7,0.5l0.9,0.2c0.536,0.2,1.086,0.384,1.65,0.55l0.875,0.25l0.875,0.3l0.85,0.25l0.075,0.025l0.15,0.125
		c0.126,0.032,0.268,0.049,0.425,0.05c0.244,0.033,0.452,0.1,0.625,0.2l0.175,0.05l1.1,0.325l1.15,0.35l1.2-0.925l1.275-0.95
		l0.5-0.425l0.7-0.575l1.25-0.899c0.232-0.199,0.433-0.383,0.6-0.55c0.1-0.1,0.217-0.184,0.35-0.25c0.067-0.1,0.15-0.2,0.25-0.301
		h0.15c0.133-0.13,0.267-0.23,0.4-0.3l0.1-0.1c0.103-0.039,0.203-0.106,0.3-0.2c0.033-0.134,0.116-0.234,0.25-0.3
		c0.232-0.104,0.432-0.236,0.6-0.4c-0.033-0.492-0.05-0.983-0.05-1.475v-0.8l-0.075-1.5l-0.025-1.5v-0.051v-0.75l-0.05-1.5v-1.524
		c-0.033-0.044-0.05-0.103-0.05-0.175c-0.038-0.165-0.054-0.323-0.05-0.476c0.012-0.149,0.045-0.291,0.1-0.425v-0.1l-0.025-0.601
		l0.025-0.6l0.05-0.075c0.051-0.05,0.109-0.075,0.175-0.075c0.081,0.001,0.173,0.043,0.275,0.125
		c0.091,0.063,0.25,0.097,0.475,0.101h0.1l0.35,0.1l0.35,0.1h0.075v0.075l0.05,0.45v0.6c0,0.367,0.034,0.7,0.1,1v0.101
		c-0.065,0.337-0.065,0.687,0,1.05l0.025,1.625l0.025,1.575l0.025,1l0.025,1l-0.025,0.075l0.025,0.175
		c0.001,0.237,0.034,0.487,0.1,0.75l1.15-0.976c0.402-0.334,0.818-0.668,1.25-1l1.2-0.975l1.2-0.925l0.9-0.7
		c0.381-0.349,0.773-0.69,1.175-1.025c0.401-0.334,0.81-0.659,1.225-0.975l0.1-0.025l0.05-0.074l0.025-0.075l0.025-0.2l-0.05-0.575
		v-0.524l-0.025-0.101l-0.025-1.45v-0.149c-0.001-0.566-0.051-1.066-0.15-1.5c-0.034-0.369-0.034-0.702,0-1v-0.351l-0.075-0.774
		l-0.075-0.726v-0.399c0-0.4-0.034-0.733-0.1-1v-0.15c0-0.567-0.034-1.084-0.1-1.55c-0.034-0.401-0.051-0.768-0.05-1.1v-0.101
		l-0.05-0.7v-0.75v-0.05l-0.025-1.149l-0.075-1.051c-0.033-0.232-0.05-0.466-0.05-0.699v-0.051c-0.034-0.161-0.034-0.295,0-0.399
		c-0.034-0.399-0.084-0.749-0.15-1.05c-0.034-0.202-0.05-0.402-0.05-0.601c-0.033-0.229-0.033-0.396,0-0.5
		c0-0.432-0.017-0.831-0.05-1.2v-0.05v-0.149l3.525-0.025l0.125,0.1v0.226c0,0.333,0.017,0.683,0.05,1.05l0.025,1.025l0.025,1.024
		v0.15l0.025,0.8l0.075,0.85v0.101v1c0,0.267,0.018,0.5,0.05,0.7v0.1c-0.033,0.4-0.033,0.734,0,1
		c0.035,0.184,0.043,0.343,0.025,0.475c0.079,0.102,0.146,0.168,0.2,0.2c0.147-0.008,0.247-0.05,0.3-0.125
		c0.059-0.074,0.067-0.19,0.025-0.35c-0.034-0.234-0.034-0.435,0-0.601l-0.05-0.55c-0.067-0.232-0.101-0.433-0.1-0.6l-0.05-1.05
		v-1.101v-3v-0.05c-0.034-0.129-0.034-0.279,0-0.45c-0.004-0.053-0.021-0.095-0.05-0.125c-0.103-0.245-0.153-0.503-0.15-0.774
		l3.575-0.025l0.025,0.025c-0.066,0.499-0.066,0.966,0,1.399l0.1,2.15v0.35c0,0.6,0.05,1.065,0.15,1.4
		c0.001,0.17,0.018,0.336,0.05,0.5l0.075,0.899l0.025,1.101c0.003,0.123,0.037,0.215,0.1,0.274c-0.03,0.485-0.03,0.993,0,1.525v0.1
		v0.9c0,0.399,0.034,0.767,0.1,1.1v0.601c-0.063,0.195-0.063,0.387,0,0.575l0.05,0.05c0.037,0.315,0.037,0.674,0,1.075
		c0,0.264,0.017,0.514,0.05,0.75c0,0.436,0.034,0.869,0.1,1.3v0.1c0,0.3,0.017,0.583,0.05,0.851v0.399
		c-0.034,0.139-0.034,0.422,0,0.851c0,0.233,0.017,0.417,0.05,0.55c0.04,0.156,0.048,0.299,0.025,0.425
		c0.124,0.108,0.182,0.25,0.175,0.425l-0.025,0.025l-0.025,0.075l0.025,0.1l0.05,0.075c0.133-0.001,0.25,0.016,0.35,0.05l0.15,0.05
		c0.264,0,0.464-0.017,0.6-0.05c0.062-0.032,0.128-0.049,0.2-0.05l0.85-0.3l1.8-0.4l0.75-0.2h0.1c0.333-0.133,0.667-0.216,1-0.25
		l0.075-0.05c0.271-0.004,0.471-0.054,0.6-0.15c0.038-0.035,0.08-0.052,0.125-0.05h0.15c0.053,0.186,0.078,0.46,0.075,0.825
		c0.001,0.2,0.035,0.417,0.1,0.65c0.034,0.134,0.05,0.25,0.05,0.35v0.2c-0.032,0.269-0.016,0.502,0.05,0.7l-0.025,0.024l-0.15,0.025
		l-0.05,0.05l-0.025,0.075c-0.074,0.031-0.141,0.049-0.2,0.05c-0.062-0.002-0.112-0.026-0.15-0.075
		c-0.086-0.088-0.12-0.271-0.1-0.55c0.03-0.285-0.011-0.443-0.125-0.475l-0.1,0.024l-0.075,0.05l-0.025,0.025h-0.15
		c-0.079-0.004-0.137,0.013-0.175,0.05c-0.047,0.055-0.063,0.146-0.05,0.275v0.149v0.2v0.05c0.003,0.127,0.037,0.269,0.1,0.426
		c0.137,0.074,0.204,0.183,0.2,0.324c0.034,0.13,0.034,0.264,0,0.4l-0.15,0.125c-0.033,0.066-0.083,0.1-0.15,0.1
		c-0.07,0.061-0.154,0.094-0.25,0.101l-0.05,0.375c0.034,0.196,0.05,0.396,0.05,0.6c-0.033,0.401-0.017,0.768,0.05,1.101v0.6
		c0,0.333,0.033,0.667,0.1,1l0.1,2.2v0.3v0.4c0,0.399,0.034,0.699,0.1,0.899c0.034,0.17,0.05,0.369,0.05,0.601v0.699
		c0.033,0.365,0.083,0.698,0.15,1v0.101l-0.075,0.3c0.057,0.1,0.082,0.2,0.075,0.3l0.1,2.05c0,0.4,0.034,0.784,0.1,1.15v0.05v0.95
		c0.001,0.125,0.018,0.217,0.05,0.275l0.05,0.1v2.125c0.001,0.225,0.035,0.399,0.1,0.525v0.074l0.05,0.476v0.625v0.25
		c0,0.566,0.017,1.1,0.05,1.6c0,0.367,0.033,0.718,0.1,1.05l0.05,0.025l0.025,1.15l0.025,0.975l0.1,1.025l0.05,1.074v0.101
		l0.025,0.8l0.025,0.7c0,0.401,0.034,0.784,0.1,1.149v0.051c-0.066,0.601-0.049,1.117,0.05,1.55c0.034,0.702,0.083,1.436,0.15,2.2
		v0.05l0.025,0.774l0.075,0.775v0.65v0.149l0.025,0.775l0.075,0.774c0.034,0.166,0.05,0.315,0.05,0.45l-0.025,0.025h-3.25
		l-0.025-0.025v-0.25v-0.2c-0.033-0.164-0.05-0.322-0.05-0.475c0-0.15,0.016-0.292,0.05-0.425l-0.025-0.15l-0.05-0.05l-0.075-0.025
		l-0.025-0.074l0.025-0.101v-1.6c-0.033-0.264-0.049-0.497-0.05-0.7c-0.066-0.195-0.066-0.328,0-0.4l-0.15-2L148.2,69.41
		l-0.075-1.075l-0.075-2.075l-0.025-2.125l-0.075-0.525l-0.025-0.524c-0.033-0.356-0.05-0.715-0.05-1.075
		c-0.033-0.04-0.05-0.082-0.05-0.125v-1.025l-0.1-0.1v-1.025c0-0.333-0.017-0.666-0.05-1c-0.033-0.333-0.05-0.666-0.05-1v-0.699
		l-0.075-1.075l-0.025-1.075l-0.025-0.175l-0.025-0.05l-0.025-0.125l0.025-0.075l-0.075-1.101l-0.075-1.024
		c-0.033-0.334-0.05-0.684-0.05-1.05s-0.017-0.7-0.05-1l-0.075-1.075l-0.025-1.125v-0.05l-0.1-1.551
		c-0.067-0.398-0.1-0.781-0.1-1.149c0-0.6-0.017-1.133-0.05-1.601l-0.05-0.8v-0.8c-0.001-0.292-0.034-0.517-0.1-0.675
		c-0.034-0.145-0.051-0.27-0.05-0.375l-0.025-0.15l-0.05-0.024h-0.075c-0.168,0.098-0.351,0.164-0.55,0.199l-0.05,0.051
		c-0.055,0.07-0.105,0.104-0.15,0.1c-0.049,0.007-0.082-0.026-0.1-0.1c-0.102-0.143-0.118-0.301-0.05-0.476
		c0.033-0.29,0.033-0.548,0-0.774c-0.133-0.176-0.232-0.367-0.3-0.575c-0.035-0.126-0.102-0.251-0.2-0.375
		c-0.068-0.17-0.152-0.337-0.25-0.5l-0.05-0.15l-0.275-0.3c-0.042,0.1-0.05,0.258-0.025,0.475l0.05,1.025v1.125v0.5l0.075,0.6
		l0.025,0.601v0.149c0.001,0.225,0.035,0.399,0.1,0.525v0.725c-0.032,0.203-0.032,0.37,0,0.5c0.068,0.137,0.068,0.245,0,0.325v0.075
		c0,0.4,0.034,0.801,0.1,1.2v0.05v1.95c-0.034,0.08-0.042,0.139-0.025,0.175l0.05,0.025l0.025,0.05l0.05,1.125v1.125
		c0,0.399,0.034,0.766,0.1,1.1l0.05,0.4l0.05,1.05v1.15v0.449c0.004,0.382,0.021,0.757,0.05,1.125
		c0.021,0.368,0.055,0.727,0.1,1.075l0.05,1.025v1.125c0.001,0.39,0.035,0.665,0.1,0.825l-0.025,0.1v0.1l0.025,0.275
		c0,0.505,0.017,0.988,0.05,1.45v0.149l0.025,1l0.025,1v0.15l-0.025,0.175l0.025,0.05c0.004,0.108,0.038,0.225,0.1,0.351
		c-0.064,0.35-0.064,0.69,0,1.024c0.033,0.336,0.05,0.702,0.05,1.101v0.3l0.025,0.825l0.025,0.774c0.066,0.331,0.1,0.682,0.1,1.051
		c-0.064,0.228-0.064,0.419,0,0.574c0.034,0.145,0.051,0.336,0.05,0.575v1.05c0.034,0.365,0.083,0.748,0.15,1.15v0.25
		c-0.029,0.378-0.038,0.745-0.025,1.1c0.004,0.365,0.03,0.715,0.075,1.051c0,0.302,0.017,0.603,0.05,0.899v0.15v0.149v0.051
		l-0.025,0.074l0.025,0.176l-0.025,0.1l0.025,0.075H142.5l-0.075-0.05v-0.125v-0.2v-0.101c-0.034-0.196-0.034-0.396,0-0.6
		l-0.075-1.075l-0.075-1.075c-0.034-0.366-0.05-0.716-0.05-1.05l-0.025-0.225v-0.125l0.025-0.05v-1v-0.101
		c-0.033-0.331-0.049-0.665-0.05-1v-0.5c-0.065-0.199-0.065-0.382,0-0.55c-0.1-0.366-0.133-0.75-0.1-1.15v-0.25v-0.149
		c-0.037-0.16-0.062-0.344-0.075-0.55c-0.004-0.214,0.004-0.447,0.025-0.7v-0.351l-0.075-0.699l-0.075-0.75v-0.051v-0.35
		c-0.033-0.299-0.033-0.648,0-1.05c-0.001-0.099-0.018-0.199-0.05-0.3l-0.025-0.075v-0.175l0.025-0.351l-0.05-0.899l-0.025-0.926
		l-0.075-0.824v-0.051l-0.05-0.725v-0.725v-0.4c-0.033-0.231-0.05-0.465-0.05-0.7v-0.45l-0.075-0.75l-0.025-0.8v-0.05l-0.05-0.75
		v-0.7v-1.1c-0.054-0.348-0.096-0.698-0.125-1.05c-0.021-0.351-0.029-0.701-0.025-1.051c-0.034-0.365-0.05-0.731-0.05-1.1
		c0-0.4-0.017-0.767-0.05-1.1v-0.351c-0.066-0.098-0.066-0.214,0-0.35c-0.001-0.334-0.035-0.684-0.1-1.05v-0.4v-0.65
		c-0.033-0.398-0.05-0.781-0.05-1.149l-0.05-0.7v-0.85c-0.067-0.265-0.067-0.481,0-0.65c0.011-0.2-0.022-0.343-0.1-0.425
		c-0.049-0.062-0.125-0.096-0.225-0.101c-0.088,0.007-0.146,0.04-0.175,0.101l-0.075,0.024l-0.075,0.101
		c-0.014,0.057-0.014,0.14,0,0.25c0.001,0.269,0.034,0.502,0.1,0.7v0.1c0.033,0.07,0.05,0.203,0.05,0.4l-0.025,1.074l0.025,1.025
		v0.1l0.15,1.051c-0.064,0.141-0.064,0.324,0,0.55c0.001,0.169,0.018,0.336,0.05,0.5c0.001,0.337,0.018,0.703,0.05,1.1v0.45v0.95
		l0.075,0.55l0.025,0.45v0.05l0.1,2.15v1c0,0.399,0.034,0.799,0.1,1.199v0.051c-0.039,0.139-0.055,0.238-0.05,0.3l0.05,0.125
		c0.003,0.416,0.02,0.824,0.05,1.225v0.125l0.15,0.25c-0.032,0.385-0.048,0.76-0.05,1.125c0,0.355,0.017,0.706,0.05,1.05
		c0,0.302,0.017,0.651,0.05,1.051c0,0.367,0.017,0.717,0.05,1.05v0.899v1l0.075,0.5l0.025,0.5c0,0.167,0.017,0.334,0.05,0.5
		c0.034,0.335,0.05,0.701,0.05,1.101c-0.033,0.365-0.05,0.724-0.05,1.075c0,0.352,0.017,0.692,0.05,1.024v0.15
		c0.066,0.168,0.1,0.418,0.1,0.75l0.025,1.05l0.025,1.05c-0.097,0.111-0.113,0.278-0.05,0.5c0.034,0.303,0.051,0.637,0.05,1
		l0.025,0.075l0.125,0.15v0.074l-0.025,0.101l-0.075,0.2c0.001,0.399,0.034,0.8,0.1,1.199c0,0.137,0.017,0.304,0.05,0.5v1.15
		c0,0.1,0.018,0.217,0.05,0.35v0.45l-0.025,0.025h-5.8l-0.025-0.025c-0.004-0.093,0.021-0.16,0.075-0.2
		c-0.027-0.058-0.035-0.107-0.025-0.149l0.025-0.101c-0.058-0.466-0.083-0.899-0.075-1.3v-0.5c-0.033-0.1-0.033-0.2,0-0.3
		l-0.05-0.85v-0.851v-0.1v-0.8c-0.034-0.332-0.084-0.666-0.15-1v-0.301l-0.025-1.175l-0.025-1.175v-0.35v-0.301L135.8,66.66
		l-0.025-0.726c-0.034-0.203-0.05-0.403-0.05-0.6c0-0.188,0.017-0.372,0.05-0.55l-0.025-0.551l-0.075-0.5
		c-0.034-0.166-0.05-0.366-0.05-0.6v-1.05l-0.025-0.101l0.025-0.074v-1.075c0-0.267-0.017-0.5-0.05-0.7
		c-0.067-0.161-0.067-0.295,0-0.4c-0.492-0.279-1.017-0.487-1.575-0.625l-0.5-0.149l-0.85-0.2c-0.137-0.066-0.254-0.1-0.35-0.1
		l-1.05-0.4l-0.625-0.2l-0.125-0.05l-0.05,0.025l-0.05,0.024c-0.205,0.003-0.33-0.03-0.375-0.1c-0.167-0.067-0.3-0.167-0.4-0.3
		c-0.032-0.097-0.09-0.146-0.175-0.15c-0.115-0.04-0.173-0.115-0.175-0.225c-0.103-0.143-0.119-0.301-0.05-0.476l0.05-0.075v-0.399
		c0.069-0.18,0.168-0.338,0.3-0.476l0.025-0.05c0.052-0.136,0.144-0.253,0.275-0.35c0.055-0.052,0.13-0.077,0.225-0.075
		c0.092-0.001,0.201,0.024,0.325,0.075l1.575,0.6l0.45,0.05h0.05l1.3,0.4c0.268,0.101,0.551,0.234,0.85,0.4h0.075l0.1,0.05v-0.05
		l0.05-0.025l0.15,0.025c0.034,0.068,0.092,0.118,0.175,0.149l0.225-0.05v-1.475l-0.075-1.075l-0.075-1.025v-0.1l-0.025-0.9
		l-0.025-0.899v-0.101v-0.35v-0.05L135.2,50.16l-0.025-0.825v-0.45l-0.025-1l-0.075-1l-0.05-1.125v-1.075
		c-0.268,0.121-0.501,0.263-0.7,0.425l-0.5,0.4c-0.135,0.039-0.235,0.122-0.3,0.25c-0.066,0.134-0.166,0.251-0.3,0.35l-0.1,0.051
		l-0.2,0.199c-0.203,0.137-0.419,0.319-0.65,0.551c-0.402,0.302-0.802,0.635-1.2,1l-1.2,0.949l-1.2,1
		c-0.066,0.292-0.066,0.583,0,0.875c0,0.237-0.017,0.42-0.05,0.551l0.025,1.35l0.025,1.3v0.101v0.199v0.051v0.149v0.05l0.1,0.4
		c0.001,0.136,0.018,0.253,0.05,0.35c-0.165,0.213-0.249,0.513-0.25,0.9c-0.059,0.392-0.026,0.716,0.1,0.975
		c0.096,0.001,0.163,0.026,0.2,0.075c0.041,0.057,0.041,0.14,0,0.25v0.05l-0.025,1.726l0.025,1.675v0.05l0.025,1.925l0.075,1.875
		v0.051c0,0.5,0.017,1,0.05,1.5v1.899v0.15l0.025,1.475l0.025,1.525v0.05c-0.065,0.237-0.083,0.554-0.05,0.95
		c0,0.376-0.067,0.667-0.2,0.875c-0.032,0.128-0.032,0.319,0,0.575c0.002,0.186,0.019,0.368,0.05,0.55L129,74.309l0.075,0.05
		c0.005,0.108,0.038,0.225,0.1,0.351v0.375v0.1c0,0.4,0.017,0.8,0.05,1.2v0.1v0.45l-0.025,0.025H127l-0.025-0.025v-0.175h-0.05
		v-0.275v-0.699v-0.45v-0.25c-0.005-0.125,0.003-0.25,0.025-0.375l-0.025-0.025v-0.3v-0.05v-0.15v-1.225l-0.875-1.05l-0.825-1
		l-2-2.4l-2.05-2.35c-0.367-0.4-0.7-0.801-1-1.2l-1.025-1.2l-0.975-1.2c-0.328-0.394-0.662-0.777-1-1.149
		c-0.339-0.372-0.681-0.73-1.025-1.075L115,61.259l-1.075,0.95l-0.05,0.024l-0.05,0.051c-0.438,0.318-0.855,0.66-1.25,1.024l-1.15,1
		l-1.2,1l-0.025,0.9l0.025,0.925c0,0.634,0.034,1.184,0.1,1.65v0.55v0.6l0.025,1.075l0.025,1.125v0.55
		c0.034,0.134,0.034,0.334,0,0.601v0.6c-0.054,0.181-0.054,0.306,0,0.375c0.043,0.06,0.118,0.093,0.225,0.1h0.1l0.025,0.025v0.7
		c-0.098,0.403-0.098,0.753,0,1.05c0.001,0.104,0.018,0.221,0.05,0.35l0.15,0.426l-0.025,0.05h-5.7l-0.725-0.45
		c-0.098-0.102-0.165-0.201-0.2-0.3h-0.125c-0.514-0.269-0.973-0.552-1.375-0.851c-0.18-0.153-0.389-0.278-0.625-0.375
		c0.028,0.42,0.086,0.87,0.175,1.351v0.149c0.004,0.06,0.038,0.135,0.1,0.226l0.35,0.149c0.08,0.028,0.18,0.046,0.3,0.051
		l0.025,0.024l-0.025,0.025H92.25l-0.025-0.025v-8.8l0.05-0.025l1.25,1.15l1.125,1l1.125,1.05h0.075
		c-0.023-0.479-0.032-0.912-0.025-1.3l-0.1-0.05c-0.088-0.092-0.122-0.167-0.1-0.226L95.7,69.66l-0.825-0.926l-0.8-0.975
		l-0.95-1.175l-0.9-1.075v-4.825c-0.004-0.043,0.029-0.102,0.1-0.175c0.141-0.136,0.349-0.219,0.625-0.25
		c0.085-0.036,0.144-0.086,0.175-0.15c0.24-0.073,0.44-0.174,0.6-0.3c0.134-0.101,0.25-0.201,0.35-0.3
		c0.106-0.133,0.248-0.216,0.425-0.25l0.625-0.4c0.102-0.035,0.202-0.085,0.3-0.149c0.199-0.166,0.416-0.315,0.65-0.45
		c0.234-0.134,0.484-0.25,0.75-0.35c0.029-0.274,0.046-0.558,0.05-0.851v-0.925v-0.3v-0.351c0.033-0.17,0.033-0.42,0-0.75
		c-0.034-0.197-0.034-0.348,0-0.449c0-0.4,0.017-0.801,0.05-1.2c0-0.298-0.017-0.548-0.05-0.75l-0.025-0.101
		c0.047-0.079,0.072-0.179,0.075-0.3L96.9,50.859l-0.025-1.024v-0.101v-1.774c-0.391-0.036-0.766-0.12-1.125-0.25l-0.3-0.101
		l-0.9-0.3c-0.267-0.1-0.534-0.183-0.8-0.25c-0.47-0.201-0.97-0.367-1.5-0.5l-0.025-2.675l0.025-0.025c0.3,0.101,0.6,0.184,0.9,0.25
		c0.138,0.067,0.304,0.118,0.5,0.15l0.075,0.05l0.05,0.05l0.1,0.025l0.175,0.025l0.075,0.05l1.3,0.35l1.25,0.425
		c0.096-0.287,0.146-0.621,0.15-1l-0.1-1.024l-0.05-1.075v-0.05v-0.351c-0.033-0.26-0.033-0.427,0-0.5v-4.399
		c-0.033-0.365-0.033-0.732,0-1.101c0-0.432-0.017-0.832-0.05-1.199c0-0.136,0.017-0.285,0.05-0.45v-0.4l-0.05-0.2l0.05-0.074
		l-0.025-0.976l-0.025-1.05v-1.575l0.05-1.575c-0.033-0.101-0.05-0.251-0.05-0.449v-1.525l0.05-1.475v-0.101
		c0.033-0.302,0.05-0.636,0.05-1v-0.899L96.7,21.759l-0.025-0.775c-0.034-0.399-0.034-0.732,0-1c0.033-0.199,0.083-0.366,0.15-0.5
		V19.41v-0.051l0.05-0.024L96.975,19.41z M139.9,28.109c-0.111,0.394-0.136,0.818-0.075,1.275l-0.05,0.1l0.025,0.101l0.025,0.075
		v0.125c0.033,0.331,0.05,0.698,0.05,1.1v0.5l0.15,0.9c-0.066,0.37-0.066,0.721,0,1.05c0,0.402,0.017,0.72,0.05,0.95v1.25v1.149
		c-0.027,0.291,0.04,0.5,0.2,0.625l0.225,0.15h0.075c0.125-0.262,0.159-0.57,0.1-0.925c-0.034-0.401-0.051-0.769-0.05-1.101v-0.8
		c-0.054-0.248-0.088-0.507-0.1-0.775c-0.005-0.267,0.012-0.542,0.05-0.824v-0.101l-0.1-0.5l-0.05-0.55l-0.05-0.6v-0.851v-0.35
		c-0.033-0.281-0.05-0.565-0.05-0.851c0-0.284,0.017-0.567,0.05-0.85l-0.05-0.05l-0.05-0.025l-0.225-0.2H139.9z M134.2,74.459
		c0.201-0.099,0.417-0.165,0.65-0.2c0.093-0.065,0.201-0.116,0.325-0.15l0.075-0.024l0.15,0.024
		c0.057,0.009,0.098,0.034,0.125,0.075c0.037,0.082,0.021,0.207-0.05,0.375c-0.048,0.064-0.073,0.132-0.075,0.2
		c0.002,0.062,0.027,0.129,0.075,0.2v0.125c0.033,0.265,0.05,0.614,0.05,1.05c-0.032,0.104-0.032,0.22,0,0.35
		c-0.032,0.14-0.032,0.289,0,0.45l-0.025,0.025h-1.45l-0.025-0.025c-0.033-0.162-0.05-0.312-0.05-0.45v-0.6v-0.1
		c-0.001-0.458-0.067-0.85-0.2-1.176C133.853,74.51,133.994,74.46,134.2,74.459z M132.075,74.785
		c-0.094,0.322-0.077,0.564,0.05,0.725v0.05c0.267,0.269,0.517,0.568,0.75,0.9l0.55,0.45l-0.025,0.05h-2.75l-0.025-0.025v-0.125
		h-0.075l-0.05-0.05v-0.075l0.125-0.125v-0.075c0.033-0.277,0.1-0.519,0.2-0.725l0.05-0.05v-0.125
		c0.204-0.185,0.404-0.343,0.6-0.476h0.125c0.153,0.001,0.245-0.041,0.275-0.125l0.075-0.199l0.075-0.051L132.075,74.785z
		 M111.8,52.559c0.357,0.384,0.699,0.767,1.025,1.15c0.101,0.134,0.234,0.267,0.4,0.399l0.525,0.625l0.475,0.575h0.15
		c0.367-0.301,0.717-0.601,1.05-0.899c0.065-0.067,0.132-0.117,0.2-0.15c0.216-0.092,0.375-0.226,0.475-0.4l-0.9-0.35l-1-0.25
		c-0.074-0.066-0.141-0.1-0.2-0.1c-0.207-0.134-0.44-0.218-0.7-0.25h-0.15c-0.273-0.134-0.556-0.218-0.85-0.25l-0.125-0.101
		c-0.079-0.031-0.154-0.048-0.225-0.05L111.8,52.559z M112.125,55.559l-0.975-1.149l-1.025-1.075l0.025,1.85l0.025,1.9
		c0.031,0.506,0.048,0.998,0.05,1.475c0.356-0.221,0.698-0.454,1.025-0.7c0.325-0.256,0.633-0.522,0.925-0.8l0.025-0.05h0.1
		c0.243-0.101,0.426-0.275,0.55-0.525L112.125,55.559z M118.075,59.459c0.27,0.27,0.537,0.554,0.8,0.85
		c0.255,0.289,0.505,0.589,0.75,0.9l1,1.25c0.366,0.398,0.716,0.799,1.05,1.2c0.399,0.466,0.833,0.949,1.3,1.449l2.05,2.351
		c0.328,0.365,0.652,0.749,0.975,1.149c0.33,0.394,0.655,0.802,0.975,1.226c0.032-0.028,0.048-0.062,0.05-0.101
		c-0.033-0.298-0.05-0.648-0.05-1.05v-0.1v-0.4v-0.1v-0.75c-0.033-0.129-0.033-0.245,0-0.351v-1v-0.05l-0.05-1.25v-1.3
		c-0.062-0.166-0.079-0.291-0.05-0.375h-0.05c-0.025-0.093-0.025-0.16,0-0.2c0.017-0.047,0.042-0.08,0.075-0.1
		c-0.058-0.491-0.083-0.949-0.075-1.375l-0.05-1v-0.3v-2v-0.101c0.031-0.326-0.019-0.618-0.15-0.875
		c-0.033-0.129-0.125-0.195-0.275-0.2c-0.076,0.001-0.151-0.032-0.225-0.1l-0.275-0.075l-0.4-0.125l-1.3-0.399l-0.925-0.25
		l-0.825-0.25l-0.05-0.025l-0.025-0.075l-0.25-0.05c-0.075,0.001-0.142,0.018-0.2,0.05c-0.133,0.067-0.233,0.134-0.3,0.2l-0.175,0.1
		l-0.125,0.101c-0.2,0.133-0.4,0.316-0.6,0.55l-0.775,0.65l-1.625,1.35c-0.189,0.123-0.348,0.29-0.475,0.5l0.025,0.05l0.05,0.15
		c0.067,0.043,0.117,0.118,0.15,0.225L118.075,59.459z M126.35,51.66c-0.374,0.299-0.741,0.607-1.1,0.925
		c-0.368,0.318-0.727,0.643-1.075,0.975l0.05,0.101c0.098-0.002,0.165,0.015,0.2,0.05c0.09,0.062,0.215,0.096,0.375,0.1l0.075,0.05
		c0.324,0.036,0.616,0.119,0.875,0.25h0.1c0.278,0.067,0.486,0.167,0.625,0.301l0.1-0.075v-0.3l-0.05-0.551v-0.05
		c0.031-0.104,0.031-0.221,0-0.35v-0.25v-0.2v-0.7l0.025-0.175l-0.025-0.05l-0.05-0.025L126.35,51.66z M98.15,48.459l-0.1-0.025
		c-0.035,0.005-0.06,0.046-0.075,0.125c-0.027,0.075-0.044,0.184-0.05,0.325v0.2L98,49.834l0.075,0.8v2.1
		c-0.063,0.1-0.063,0.225,0,0.375v0.426c0.033,0.129,0.033,0.312,0,0.55c-0.064,0.105-0.064,0.289,0,0.55
		c0.034,0.063,0.034,0.13,0,0.2c0,0.397,0.017,0.813,0.05,1.25c-0.032,0.104-0.032,0.238,0,0.399v0.476
		c0.097-0.072,0.206-0.123,0.325-0.15c0.115-0.061,0.173-0.169,0.175-0.325c-0.1-0.233-0.1-0.392,0-0.475v-0.075l-0.075-0.975
		l-0.025-0.925c0-0.467-0.018-0.8-0.05-1v-0.551c0.033-0.401,0.033-0.718,0-0.949c0-0.203-0.017-0.403-0.05-0.601v-0.45v-0.85v-0.6
		C98.456,48.682,98.364,48.491,98.15,48.459z M100.4,49.009l-0.025,0.05l-0.025,0.025c0.023,0.171,0.015,0.387-0.025,0.649v0.75
		l0.1,1.851v2.149c-0.026,0.379,0.007,0.712,0.1,1c0.419-0.292,0.869-0.584,1.35-0.875l0.65-0.475l0.65-0.425l0.025-0.05h0.1
		c0.258-0.133,0.483-0.267,0.675-0.4c0.105-0.099,0.213-0.166,0.325-0.2l0.65-0.425l0.625-0.425c0.008-0.067,0.05-0.101,0.125-0.101
		l1.6-1.05c-0.031-0.066-0.098-0.101-0.2-0.1l-0.6-0.101l-0.95-0.35c-0.268-0.1-0.484-0.167-0.65-0.2l-0.3-0.05
		c-0.077-0.066-0.143-0.1-0.2-0.1c-0.276-0.034-0.501-0.101-0.675-0.2l-0.825-0.2c-0.336-0.134-0.636-0.217-0.9-0.25
		c-0.271-0.102-0.538-0.185-0.8-0.25c-0.074-0.066-0.157-0.1-0.25-0.1c-0.11-0.033-0.185-0.066-0.225-0.101
		c-0.108-0.048-0.191-0.073-0.25-0.075L100.4,49.009z M98.45,59.16l-0.075,0.1l-0.1,0.05c-0.031,0.014-0.056,0.047-0.075,0.101
		c-0.026,0.06-0.034,0.151-0.025,0.274v0.15c-0.033,0.269-0.033,0.502,0,0.7v0.399v1.55l0.025,1.101l0.075,1.149v0.45v0.101
		l0.025,1.225l0.025,1.2l0.1-0.05c0.066-0.196,0.167-0.33,0.3-0.4c0.062-0.097,0.096-0.255,0.1-0.475l-0.075-0.5l-0.025-0.5
		c-0.037-0.332-0.062-0.674-0.075-1.025c-0.004-0.352,0.004-0.71,0.025-1.075v-0.95l-0.05-0.649v-0.601v-0.05v-0.2v-0.6
		c-0.067-0.134-0.067-0.267,0-0.4v-0.1c-0.067-0.133-0.067-0.267,0-0.4v-0.399l-0.05-0.125l-0.05-0.05H98.45z M100.575,58.734
		l0.05,0.075c0.002,0.147-0.015,0.289-0.05,0.425c-0.032,0.199-0.032,0.365,0,0.5v0.7l0.025,0.05l0.025,0.051v1.199
		c0,0.367,0.034,0.717,0.1,1.051v0.899v0.2v2.2c0.281-0.131,0.548-0.307,0.8-0.525c0.265-0.266,0.548-0.482,0.85-0.649l0.55-0.4
		c0.182-0.182,0.374-0.356,0.575-0.525c0.201-0.166,0.409-0.325,0.625-0.475l0.65-0.45c0.198-0.182,0.406-0.357,0.625-0.524
		c0.217-0.167,0.442-0.325,0.675-0.476l1.2-0.975l1.2-0.976l-0.05-0.074c-0.016-0.059,0.001-0.134,0.05-0.226
		c0.065-0.358,0.082-0.75,0.05-1.175v-0.1l-0.05-1.176v-1.125v-0.1v-0.3c-0.065-0.255-0.065-0.421,0-0.5
		c-0.034-0.282-0.05-0.566-0.05-0.851c0-0.284,0.017-0.567,0.05-0.85c-0.008-0.209-0.058-0.376-0.15-0.5
		c-0.114,0.03-0.214,0.088-0.3,0.175l-0.05,0.025l-0.05,0.024c-0.2,0.101-0.366,0.218-0.5,0.351l-2.05,1.2L104,55.734l-1.275,0.825
		l-0.1,0.101c-0.171,0.038-0.304,0.104-0.4,0.199c-0.166,0.168-0.383,0.317-0.65,0.45c-0.366,0.169-0.699,0.386-1,0.65V58.734z
		 M103.425,71.134l1.1,1.575l1.1,0.375l1.075,0.425h0.1c0.271,0.101,0.537,0.184,0.8,0.25c0.266,0.066,0.533,0.167,0.8,0.3h0.075
		l0.05-0.575l0.05-0.6c-0.035-0.195-0.035-0.362,0-0.5v-0.65c-0.034-0.265-0.034-0.548,0-0.85v-0.1c0.066-0.336,0.1-0.637,0.1-0.9
		c-0.067-0.232-0.067-0.433,0-0.6v-0.551c-0.05-0.252-0.075-0.51-0.075-0.774c0-0.255,0.025-0.514,0.075-0.775
		c-0.005-0.228-0.047-0.377-0.125-0.45l-1.225,1.025l-1.15,1l-0.775,0.65l-1.625,1.35l-0.05,0.05
		C103.527,70.875,103.428,70.984,103.425,71.134z M95.725,60.884l-1.05,0.675c-0.072,0.006-0.122,0.022-0.15,0.05
		c-0.168,0.135-0.385,0.269-0.65,0.4c-0.324,0.129-0.616,0.304-0.875,0.525c0.062,0.16,0.154,0.335,0.275,0.524l1.85,2.45l0.45,0.6
		c0.333,0.434,0.667,0.85,1,1.25c0.097,0.103,0.164,0.235,0.2,0.4l0.075-0.025l0.025-0.199c-0.034-0.231-0.034-0.481,0-0.75
		L96.85,66.16l0.025-0.476v-0.6v-0.15v-1.125l0.05-1.075v-0.649c-0.033-0.101-0.033-0.2,0-0.3v-0.101
		c-0.033-0.398-0.033-0.748,0-1.05c0.039-0.2,0.031-0.333-0.025-0.4c-0.036-0.041-0.086-0.066-0.15-0.074L95.725,60.884z
		 M117.85,76.959h-6.35l-0.025-0.025v-0.2l-0.15-0.225c-0.035-0.345-0.018-0.62,0.05-0.825v-0.1c-0.038-0.309,0.062-0.484,0.3-0.525
		l0.05-0.1c0.294-0.008,0.527,0.042,0.7,0.149c0.065,0.033,0.115,0.084,0.15,0.15l0.925,0.25l0.825,0.275l0.825,0.324
		c0.267,0.034,0.55,0.101,0.85,0.2l0.05,0.025l0.125,0.125l1.475,0.399c0.066,0.031,0.133,0.048,0.2,0.051l0.025,0.024
		L117.85,76.959z"/>
</g>
<g>
	<path fill-rule="evenodd" clip-rule="evenodd" fill="#B8E300" d="M163.75,1.934l-2.55,5.95h5L163.75,1.934z M144.65,13.484h-1.3
		V0.434l5.25,0.101c0.5,0.066,1.05,0.267,1.65,0.6c0.6,0.3,1.083,0.767,1.45,1.4c0.3,0.666,0.45,1.383,0.45,2.149
		c0,1.101-0.367,2.033-1.1,2.8c-0.767,0.767-1.667,1.15-2.7,1.15l3.65,4.85h-1.6l-4.45-5.949l2.3-0.051l1.15-0.35
		c0.433-0.2,0.783-0.533,1.05-1c0.3-0.533,0.45-1.066,0.45-1.6c0-0.367-0.117-0.784-0.35-1.25l-0.9-1.101
		c-0.333-0.233-0.767-0.383-1.3-0.45l-3.7-0.1V13.484z M127.35,0.434h1.3l0.1,9.4l0.5,1.3c0.233,0.366,0.6,0.7,1.1,1
		c0.533,0.233,1.017,0.35,1.45,0.35c0.5,0,0.933-0.116,1.3-0.35c0.434-0.2,0.817-0.483,1.15-0.85l0.5-1.301l0.2-1.649v-7.9h1.25
		l-0.15,10c-0.167,0.601-0.434,1.15-0.8,1.65c-0.4,0.5-0.9,0.899-1.5,1.2c-0.7,0.267-1.35,0.399-1.95,0.399
		c-1.434,0-2.467-0.383-3.1-1.149s-1.017-1.45-1.15-2.051l-0.2-2.149V0.434z M168.65,13.484l-1.9-4.399h-6.05l-1.9,4.399h-1.4
		l5.65-13.05h1.4l5.6,13.05H168.65z M8.8,7.884l-2.45-5.95L3.8,7.884H8.8z M5.65,0.434h1.4l5.6,13.05h-1.4l-1.9-4.399H3.3
		l-1.9,4.399H0L5.65,0.434z M23.6,1.734l-3.7-0.1v11.85h-1.3V0.434l5.25,0.101c0.5,0.066,1.05,0.267,1.65,0.6
		c0.6,0.3,1.083,0.767,1.45,1.4c0.3,0.666,0.45,1.383,0.45,2.149c0,1.101-0.367,2.033-1.1,2.8c-0.767,0.767-1.667,1.15-2.7,1.15
		l3.65,4.85h-1.6L21.2,7.535l2.3-0.051l1.15-0.35c0.433-0.2,0.783-0.533,1.05-1c0.3-0.533,0.45-1.066,0.45-1.6
		c0-0.367-0.117-0.784-0.35-1.25l-0.9-1.101C24.567,1.951,24.133,1.801,23.6,1.734z M69.15,0.434h1.3v13.05h-1.3V0.434z M83.6,0.434
		v1.2h-3v11.85h-1.3V1.634h-3v-1.2H83.6z M46,3.684h-1.45c-0.4-0.6-1.05-1.133-1.95-1.6c-0.867-0.434-1.75-0.65-2.65-0.65
		c-1.4,0-2.667,0.566-3.8,1.7c-1.067,1.033-1.6,2.283-1.6,3.75c0,1.566,0.533,2.884,1.6,3.95c1.1,1.1,2.4,1.649,3.9,1.649
		c0.867,0,1.717-0.233,2.55-0.699c0.867-0.434,1.533-1,2-1.7h1.5c-0.566,1.066-1.417,1.95-2.55,2.649
		c-1.067,0.634-2.233,0.95-3.5,0.95c-1.967,0-3.583-0.649-4.85-1.95c-1.333-1.233-2-2.85-2-4.85c0-1.833,0.667-3.417,2-4.75
		c1.333-1.267,2.917-1.9,4.75-1.9c1.467,0,2.567,0.25,3.3,0.75c0.7,0.4,1.317,0.867,1.85,1.4C45.534,2.818,45.833,3.25,46,3.684z
		 M60.65,6.184v-5.75h1.3v13.05h-1.3v-6.1H53.9v6.1h-1.3V0.434h1.3v5.75H60.65z M121.4,1.634h-3v11.85h-1.3V1.634h-3v-1.2h7.3V1.634
		z M102.2,1.634v-1.2h7.3v1.2h-3v11.85h-1.3V1.634H102.2z M96.4,6.334v1.2h-5.6v4.8h5.85v1.149H89.5V0.434h7.15v1.2H90.8v4.7H96.4z"
		/>
</g>
</svg>
