<?xml version="1.0" encoding="utf-8"?>
<!-- Generator: Adobe Illustrator 15.0.0, SVG Export Plug-In . SVG Version: 6.00 Build 0)  -->
<!DOCTYPE svg PUBLIC "-//W3C//DTD SVG 1.1//EN" "http://www.w3.org/Graphics/SVG/1.1/DTD/svg11.dtd">
<svg version="1.1" id="Layer_1" xmlns="http://www.w3.org/2000/svg" xmlns:xlink="http://www.w3.org/1999/xlink" x="0px" y="0px"
	 width="59.65px" height="59.648px" viewBox="0 0 59.65 59.648" enable-background="new 0 0 59.65 59.648" xml:space="preserve">
<g>
	<rect x="-0.05" y="-0.05" fill="#DCD8CD" width="59.649" height="59.649"/>
</g>
<g>
	<path fill="#5B5442" d="M3.4,59.7C2.733,57.4,2.317,55,2.15,52.5c-0.8-9.667,1.117-18.817,5.75-27.45
		C12.767,15.817,20.117,9.267,29.95,5.4C39.717,1.534,49.5,0.966,59.3,3.7c0.135,0.033,0.268,0.066,0.4,0.101v5.8
		c-0.134-0.065-0.267-0.134-0.4-0.2c-4-1.5-8.5-1.916-13.5-1.25c-12.699,1.7-21.8,8.033-27.3,19
		c-5.8,11.435-7.05,22.283-3.75,32.551L3.4,59.7L3.4,59.7z M38.15,45.4l0.648,0.25l0.2-1.5L39.6,44l4.8,1.399
		c1.933-0.267,3.5-1.148,4.699-2.648C53.667,36.65,54.017,30.734,50.15,25c-3.367-0.167-6.55,0.566-9.55,2.2
		C29,33.7,25.367,43.234,29.7,55.8c0.467,1.399,1.017,2.7,1.649,3.899H21.1c-4.935-7.899-4.917-16.283,0.05-25.149
		c5.867-10.533,14.784-15.3,26.75-14.3c5.065,0.466,8.866,1.666,11.398,3.6c0.135,0.101,0.268,0.217,0.4,0.351V43.15
		c-0.066,0.066-0.117,0.167-0.15,0.301c-0.1,0.134-0.183,0.267-0.25,0.399c-1,1.601-2.183,3.066-3.55,4.4
		c-0.167,0.166-0.35,0.35-0.55,0.55c-3.2,2.533-6.75,3.366-10.65,2.5L38.9,48.7l-2.4-1.851l1.45-0.05l-0.45-0.6l0.05-0.2v-0.4
		L38.15,45.4z"/>
</g>
</svg>
