<?xml version="1.0" encoding="utf-8"?>
<!-- Generator: Adobe Illustrator 15.0.0, SVG Export Plug-In . SVG Version: 6.00 Build 0)  -->
<!DOCTYPE svg PUBLIC "-//W3C//DTD SVG 1.1//EN" "http://www.w3.org/Graphics/SVG/1.1/DTD/svg11.dtd">
<svg version="1.1" id="Layer_1" xmlns="http://www.w3.org/2000/svg" xmlns:xlink="http://www.w3.org/1999/xlink" x="0px" y="0px"
	 width="59.65px" height="59.648px" viewBox="0 0 59.65 59.648" enable-background="new 0 0 59.65 59.648" xml:space="preserve">
<g>
	<rect x="0.05" y="0.075" fill="#DCD8CD" width="59.601" height="59.6"/>
</g>
<g>
	<path fill="#5B5442" d="M5.3,4.924c0,0.034,0,0.167,0,0.4v0.149c0,0.166,0,0.316,0,0.449v0.15c0,0.134,0,0.232,0,0.3v0.101
		c0,0.199,0,0.366,0,0.5v0.101c0,1.134,0.033,2.3,0.101,3.5c0,0.1,0,0.199,0,0.3c0,0.167,0.017,0.399,0.05,0.7
		c0,1.434,0.017,2.85,0.05,4.25c0,0.5,0,1.017,0,1.55v0.05c0,0.601,0.034,1.2,0.101,1.801v0.101c0,0.134,0,0.232,0,0.3v0.101
		c0,0.133,0,0.268,0,0.399c0,0.033,0,0.184,0,0.45v0.05c0,0.367,0,0.732,0,1.101v0.05c0.032,0.268,0.032,0.518,0,0.75v0.051
		c0.032,0.833,0.05,1.684,0.05,2.55c-0.034,0.267-0.05,0.565-0.05,0.899c0,0.268,0.017,0.518,0.05,0.75
		c0.033,0.366,0.033,0.685,0,0.95v0.05c0,0.233,0.05,0.416,0.149,0.551c0,0.032,0.033,0.05,0.101,0.05
		c0.133,0.134,0.2,0.117,0.2-0.05v-0.101c0.066-0.034,0.1-0.117,0.1-0.25c-0.1-0.232-0.1-0.5,0-0.801c0-0.267-0.033-0.449-0.1-0.55
		c0-0.033,0-0.066,0-0.101c0-0.634-0.018-1.232-0.051-1.8v-0.101c0-0.133,0-0.399,0-0.8c-0.032-0.435-0.032-0.783,0-1.051
		c0-0.101,0-0.167,0-0.199v-0.15c-0.1-0.666-0.116-1.366-0.05-2.1v-0.101c0-0.2,0-0.334,0-0.399c0-0.066,0-0.218,0-0.45
		c-0.065-0.233-0.1-0.45-0.1-0.649c-0.034-0.066-0.034-0.101,0-0.101c-0.034-0.166-0.034-0.3,0-0.399v-0.101
		c-0.034-0.366-0.034-0.733,0-1.101c0-0.199-0.018-0.351-0.05-0.449c-0.033-0.1-0.033-0.167,0-0.2c0.032-0.166,0.032-0.383,0-0.649
		H6.25v-0.101c0.101,0,0.185,0.033,0.25,0.101c0.067,0,0.133,0,0.2,0h0.1c0.066,0,0.134,0,0.2,0h0.05c0.066,0,0.167,0,0.301,0
		c0.066-0.066,0.116-0.066,0.149,0c0.034,0.133,0.05,0.283,0.05,0.449l0.101,0.051c0,0.101,0,0.216,0,0.351v0.05
		c-0.067,0.334-0.067,0.667,0,1c0,0.399,0,0.8,0,1.2v0.1c0,0.167,0,0.267,0,0.301c0.033,0.101,0.05,0.199,0.05,0.3
		c0,0.7,0.017,1.399,0.05,2.101v0.101c-0.033,0.199-0.033,0.5,0,0.899c0,0.399,0.034,0.851,0.101,1.351v0.05c0,0.233,0,0.566,0,1
		c0,0.2,0,0.399,0,0.601v0.101c0.032,0.268,0.032,0.566,0,0.899c-0.066,0.267-0.051,0.5,0.05,0.7v0.05
		c-0.034,0.167-0.034,0.283,0,0.351c0,0.3,0,0.716,0,1.25c0.267,0.101,0.55,0.184,0.85,0.25c0.133,0.066,0.268,0.133,0.4,0.199
		c1.133,0.334,2.25,0.667,3.35,1c1.101,0.367,2.217,0.733,3.351,1.101c0.532,0.166,1.1,0.333,1.699,0.5
		c0.268,0.066,0.566,0.134,0.9,0.2c0.533,0.199,1.083,0.383,1.65,0.55c0.566,0.166,1.149,0.351,1.75,0.551
		c0.232,0.065,0.517,0.149,0.85,0.25c0.033,0,0.1,0.05,0.2,0.149c0.133,0.033,0.283,0.05,0.45,0.05c0.232,0.033,0.434,0.101,0.6,0.2
		c0.033,0,0.1,0.018,0.2,0.05c0.7,0.233,1.45,0.468,2.25,0.7c0.8-0.634,1.633-1.267,2.5-1.899c0.399-0.333,0.8-0.667,1.2-1
		c0.434-0.301,0.85-0.601,1.25-0.9c0.232-0.199,0.434-0.383,0.6-0.55c0.1-0.101,0.217-0.185,0.35-0.25
		c0.066-0.101,0.15-0.2,0.25-0.3c0.033,0,0.083,0,0.15,0c0.133-0.135,0.267-0.233,0.4-0.301c0.032-0.065,0.066-0.101,0.1-0.101
		c0.1-0.033,0.2-0.1,0.3-0.199c0.034-0.134,0.117-0.232,0.25-0.301c0.233-0.1,0.435-0.233,0.601-0.399c-0.033-0.5-0.051-1-0.051-1.5
		c0-0.167,0-0.434,0-0.8c-0.066-1-0.1-2-0.1-3v-0.051c0-0.3,0-0.55,0-0.75c-0.033-1-0.05-2.017-0.05-3.05
		c-0.034-0.033-0.05-0.083-0.05-0.149c-0.066-0.334-0.051-0.634,0.05-0.899v-0.101c-0.034-0.399-0.034-0.801,0-1.2
		c0-0.032,0.017-0.05,0.05-0.05c0.1-0.101,0.233-0.084,0.4,0.05c0.1,0.066,0.267,0.101,0.5,0.101c0.032,0,0.066,0,0.1,0
		c0.233,0.065,0.467,0.134,0.7,0.2h0.05v0.05c0.033,0.267,0.05,0.617,0.05,1.05c0,0.367,0.034,0.7,0.101,1v0.101
		c-0.066,0.333-0.066,0.685,0,1.051c0,1.1,0.017,2.167,0.05,3.199c0,0.666,0.017,1.333,0.05,2c-0.033,0.033-0.033,0.116,0,0.25
		c0,0.233,0.033,0.483,0.1,0.75c0,0.033,0.018,0.051,0.051,0.051c0.732-0.667,1.532-1.333,2.399-2c0.8-0.667,1.601-1.301,2.4-1.9
		c0.3-0.233,0.6-0.466,0.899-0.699c0.768-0.7,1.566-1.367,2.4-2c0.067,0,0.1-0.017,0.1-0.051l0.051-0.05
		c0.032,0,0.05-0.101,0.05-0.3c-0.034-0.4-0.05-0.768-0.05-1.101c-0.033-0.066-0.033-0.101,0-0.101
		c-0.033-0.533-0.051-1.018-0.051-1.45v-0.149c0-0.565-0.05-1.065-0.149-1.5c-0.034-0.366-0.034-0.699,0-1c0-0.134,0-0.25,0-0.351
		v-0.05c-0.034-0.5-0.083-0.983-0.15-1.45c0-0.133,0-0.267,0-0.399c0-0.399-0.033-0.732-0.1-1c0-0.065,0-0.116,0-0.149
		c0-0.566-0.034-1.083-0.101-1.55C44.017,9.179,44,8.812,44,8.479V8.375c-0.033-0.467-0.05-0.95-0.05-1.45v-0.05
		c0-0.8-0.033-1.533-0.1-2.2C43.817,4.442,43.8,4.209,43.8,3.976V3.924c-0.032-0.166-0.032-0.3,0-0.399
		c-0.032-0.399-0.083-0.75-0.149-1.05c-0.034-0.2-0.05-0.399-0.05-0.601c-0.033-0.233-0.033-0.399,0-0.5v-0.05
		c0-0.4-0.018-0.783-0.051-1.15v-0.05c0-0.033,0-0.083,0-0.149h3.5l0.101,0.101c0,0.032,0,0.1,0,0.199
		c0,0.333,0.017,0.685,0.05,1.051c0,0.699,0.017,1.384,0.05,2.05c0,0.065,0,0.117,0,0.149c0,0.533,0.034,1.083,0.101,1.649v0.101
		c0,0.2,0,0.533,0,1c0,0.268,0.017,0.5,0.05,0.7v0.101c-0.034,0.399-0.034,0.732,0,1c0.033,0.199,0.033,0.365,0,0.5h0.05
		c0.067,0.1,0.133,0.167,0.2,0.199c0.333,0,0.45-0.167,0.35-0.5c-0.033-0.232-0.033-0.434,0-0.601
		c-0.033-0.233-0.05-0.416-0.05-0.55c-0.067-0.233-0.1-0.435-0.1-0.601C47.817,5.824,47.8,5.107,47.8,4.374c0-1,0-2,0-3v-0.05
		c-0.032-0.135-0.032-0.283,0-0.45c0-0.066-0.017-0.116-0.05-0.149c-0.1-0.232-0.149-0.482-0.149-0.75h3.55
		c-0.067,0.5-0.067,0.966,0,1.399c0.033,0.732,0.065,1.45,0.1,2.149c0,0.101,0,0.218,0,0.351c0,0.601,0.05,1.065,0.15,1.399
		c0,0.166,0.017,0.333,0.05,0.5c0.067,0.533,0.1,1.2,0.1,2c0,0.134,0.033,0.233,0.101,0.301c-0.034,0.467-0.034,0.967,0,1.5v0.1
		c0,0.2,0,0.5,0,0.9c0,0.399,0.033,0.767,0.1,1.1c0,0.167,0,0.367,0,0.601c-0.065,0.2-0.065,0.399,0,0.601l0.05,0.05
		c0.033,0.301,0.033,0.65,0,1.051c0,0.268,0.018,0.518,0.051,0.75c0,0.434,0.032,0.866,0.1,1.3v0.101c0,0.3,0.017,0.584,0.05,0.851
		v0.05c0,0.101,0,0.218,0,0.351c-0.033,0.134-0.033,0.417,0,0.851c0,0.233,0.018,0.416,0.05,0.55c0.033,0.166,0.033,0.316,0,0.45
		c0.134,0.101,0.2,0.233,0.2,0.399c-0.033,0-0.05,0.033-0.05,0.101c0,0.133,0.033,0.199,0.1,0.199c0.134,0,0.25,0.017,0.351,0.051
		c0.033,0,0.083,0.018,0.149,0.05h0.051c0.232,0,0.417-0.017,0.55-0.05c0.065-0.034,0.133-0.051,0.2-0.051
		c0.3-0.1,0.583-0.199,0.85-0.3c0.567-0.133,1.167-0.268,1.8-0.399c0.233-0.066,0.483-0.134,0.75-0.2c0.034,0,0.067,0,0.101,0
		c0.333-0.134,0.667-0.217,1-0.25l0.1-0.05c0.267,0,0.467-0.051,0.6-0.149c0.033-0.033,0.066-0.051,0.101-0.051
		c0.065,0,0.117,0,0.149,0c0.033,0.166,0.051,0.435,0.051,0.801c0,0.199,0.032,0.417,0.1,0.649c0.033,0.133,0.05,0.25,0.05,0.351
		c0,0.032,0,0.1,0,0.199c-0.033,0.268-0.017,0.5,0.05,0.7c-0.167,0-0.25,0.05-0.25,0.149c-0.3,0.134-0.434-0.05-0.399-0.55v-0.051
		c0.033-0.267-0.018-0.417-0.15-0.449c-0.133,0-0.2,0.032-0.2,0.1c-0.3-0.066-0.434,0.051-0.399,0.351c0,0.033,0,0.083,0,0.149
		c0,0.034,0,0.101,0,0.2v0.05c0,0.134,0.033,0.284,0.1,0.45h0.05c0.101,0.065,0.15,0.167,0.15,0.3c0.033,0.134,0.033,0.267,0,0.4
		c-0.067,0.032-0.117,0.065-0.15,0.1c-0.032,0.067-0.083,0.101-0.149,0.101c-0.067,0.066-0.15,0.101-0.25,0.101
		c-0.034,0.2-0.05,0.334-0.05,0.399c0.032,0.2,0.05,0.399,0.05,0.601c-0.034,0.399-0.018,0.767,0.05,1.101c0,0.166,0,0.366,0,0.601
		c0,0.333,0.033,0.667,0.1,1c0.033,0.732,0.066,1.467,0.101,2.199c0,0.066,0,0.166,0,0.301c0,0.065,0,0.199,0,0.399
		c0,0.399,0.033,0.699,0.1,0.899c0.034,0.167,0.05,0.367,0.05,0.601c0,0.268,0,0.5,0,0.699c0.033,0.367,0.083,0.7,0.15,1v0.101
		c-0.067,0.166-0.1,0.268-0.1,0.301c0.066,0.1,0.1,0.199,0.1,0.3c0.033,0.7,0.067,1.384,0.1,2.05c0,0.4,0.033,0.784,0.101,1.15v0.05
		c0,0.232,0,0.55,0,0.95c0,0.134,0.017,0.232,0.05,0.3c0.033,0,0.05,0.033,0.05,0.101c0,0.699,0,1.399,0,2.101
		c0,0.232,0.034,0.417,0.101,0.55v0.05c0.032,0.268,0.05,0.634,0.05,1.102c0,0.065,0,0.148,0,0.25c0,0.565,0.017,1.1,0.05,1.6
		c0,0.367,0.033,0.717,0.1,1.05c0,0.034,0.018,0.051,0.051,0.051c0,0.801,0.017,1.5,0.05,2.101c0.065,0.667,0.117,1.366,0.149,2.1
		v0.102c0,0.565,0.018,1.065,0.051,1.5c0,0.398,0.032,0.782,0.1,1.148v0.051c-0.067,0.601-0.05,1.116,0.05,1.551
		c0.034,0.699,0.083,1.434,0.15,2.199v0.051c0,0.532,0.033,1.05,0.1,1.55c0,0.232,0,0.45,0,0.649v0.149
		c0,0.533,0.034,1.05,0.101,1.55c0.032,0.167,0.05,0.317,0.05,0.45H56.4c0-0.1,0-0.184,0-0.25c0-0.1,0-0.166,0-0.2
		c-0.067-0.333-0.067-0.633,0-0.898c0-0.167-0.05-0.25-0.15-0.25c-0.033-0.033-0.033-0.084,0-0.15c0-0.566,0-1.1,0-1.6
		c-0.033-0.268-0.05-0.5-0.05-0.7c-0.067-0.2-0.067-0.333,0-0.4c-0.067-0.866-0.117-1.533-0.15-2
		c-0.032-0.732-0.083-1.449-0.149-2.148c-0.067-1.367-0.101-2.768-0.101-4.2c-0.066-0.366-0.1-0.717-0.1-1.05
		c-0.033-0.367-0.05-0.733-0.05-1.102c-0.034-0.033-0.05-0.065-0.05-0.1c0-0.366,0-0.717,0-1.05L55.5,43.432c0-0.267,0-0.6,0-1
		c0-0.333-0.017-0.666-0.05-1c-0.033-0.333-0.05-0.666-0.05-1c0-0.133,0-0.366,0-0.699C55.333,39,55.3,38.283,55.3,37.583
		c0-0.134-0.017-0.217-0.05-0.25c-0.033-0.066-0.033-0.116,0-0.15c-0.033-0.767-0.083-1.482-0.149-2.148
		c-0.033-0.334-0.051-0.685-0.051-1.051s-0.017-0.699-0.05-1c-0.065-0.699-0.1-1.434-0.1-2.199v-0.051
		c-0.034-0.601-0.067-1.116-0.101-1.551c-0.066-0.398-0.1-0.783-0.1-1.148v-0.051c0-0.566-0.017-1.084-0.05-1.551
		c-0.034-0.533-0.05-1.065-0.05-1.6c0-0.3-0.033-0.533-0.101-0.7c-0.033-0.133-0.05-0.25-0.05-0.35c0.033-0.167-0.033-0.233-0.2-0.2
		c-0.167,0.1-0.35,0.167-0.55,0.2c-0.033,0-0.05,0.017-0.05,0.05c-0.101,0.134-0.167,0.134-0.2,0c-0.1-0.134-0.117-0.283-0.05-0.45
		c0.033-0.3,0.033-0.566,0-0.8c-0.133-0.167-0.233-0.351-0.3-0.55c-0.033-0.135-0.101-0.268-0.2-0.4
		c-0.067-0.166-0.15-0.333-0.25-0.5l-0.05-0.149c-0.134-0.134-0.233-0.25-0.301-0.351c-0.066,0.101-0.083,0.283-0.05,0.55
		c0.034,0.667,0.05,1.384,0.05,2.15c0,0.167,0,0.333,0,0.5c0.066,0.399,0.101,0.8,0.101,1.2v0.148c0,0.233,0.033,0.417,0.1,0.551
		v0.051c0,0.267,0,0.482,0,0.648c-0.033,0.2-0.033,0.367,0,0.5c0.067,0.134,0.067,0.233,0,0.301v0.101c0,0.399,0.034,0.8,0.101,1.2
		v0.05c0,0.434,0,1.083,0,1.95c-0.066,0.133-0.051,0.217,0.05,0.25v0.05c0.033,0.732,0.05,1.467,0.05,2.2
		c0,0.398,0.033,0.767,0.1,1.1c0,0.033,0.018,0.167,0.051,0.4c0.032,0.666,0.05,1.398,0.05,2.199c0,0.134,0,0.283,0,0.449
		c0,0.768,0.05,1.5,0.149,2.2c0.033,0.667,0.051,1.384,0.051,2.15c0,0.398,0.032,0.684,0.1,0.85c-0.067,0.033-0.067,0.184,0,0.45
		c0,0.5,0.017,0.982,0.05,1.45v0.148c0,0.667,0.018,1.334,0.05,2v0.15c-0.032,0.134-0.032,0.217,0,0.25
		c0,0.1,0.033,0.217,0.101,0.35c-0.067,0.334-0.067,0.667,0,1c0.033,0.334,0.05,0.7,0.05,1.102c0,0.1,0,0.199,0,0.3
		c0,0.565,0.017,1.1,0.05,1.6c0.067,0.334,0.101,0.685,0.101,1.051c-0.066,0.233-0.066,0.434,0,0.601
		c0.032,0.134,0.05,0.315,0.05,0.55c0,0.4,0,0.75,0,1.05c0.033,0.367,0.083,0.75,0.149,1.15c0,0.065,0,0.149,0,0.25
		c-0.066,0.767-0.05,1.482,0.051,2.149c0,0.301,0.017,0.601,0.05,0.899c0,0.066,0,0.117,0,0.15v0.148
		c-0.034,0.034-0.034,0.134,0,0.301c-0.034,0.066-0.034,0.116,0,0.149h-3.65l-0.05-0.05v-0.101c0-0.066,0-0.134,0-0.199
		c0-0.033,0-0.066,0-0.102c-0.033-0.199-0.033-0.398,0-0.6c-0.033-0.733-0.083-1.45-0.15-2.15C50.017,56.064,50,55.714,50,55.38
		c-0.033-0.233-0.033-0.366,0-0.399c0-0.366,0-0.699,0-1V53.88c-0.033-0.333-0.05-0.666-0.05-1c0-0.166,0-0.333,0-0.5
		c-0.067-0.2-0.067-0.383,0-0.55V51.78c-0.1-0.334-0.133-0.699-0.1-1.101c0-0.066,0-0.149,0-0.25V50.28
		c-0.066-0.334-0.083-0.75-0.051-1.25c0-0.167,0-0.282,0-0.351c-0.032-0.466-0.083-0.949-0.149-1.449v-0.051c0-0.133,0-0.25,0-0.35
		c-0.034-0.301-0.034-0.65,0-1.051c0-0.101-0.018-0.199-0.05-0.3c-0.033-0.066-0.033-0.267,0-0.601
		c-0.033-0.435-0.051-0.733-0.051-0.899v-0.051c0-0.6-0.032-1.166-0.1-1.699v-0.051c-0.033-0.5-0.05-0.983-0.05-1.449
		c0-0.2,0-0.334,0-0.399c-0.034-0.233-0.05-0.468-0.05-0.7c0-0.268,0-0.416,0-0.45c-0.066-0.5-0.101-1.017-0.101-1.55v-0.05
		c-0.033-0.533-0.05-1.018-0.05-1.45c0-0.399,0-0.768,0-1.101c-0.1-0.699-0.15-1.399-0.15-2.101c-0.032-0.366-0.05-0.733-0.05-1.1
		c0-0.4-0.017-0.768-0.05-1.101c0-0.101,0-0.217,0-0.351v-0.05c-0.067-0.066-0.067-0.167,0-0.301c0-0.334-0.033-0.684-0.1-1.05
		c0-0.134,0-0.267,0-0.399c0-0.167,0-0.385,0-0.65c-0.033-0.399-0.051-0.783-0.051-1.149c-0.032-0.434-0.05-0.949-0.05-1.55v-0.051
		c-0.065-0.233-0.065-0.433,0-0.6c0.034-0.366-0.083-0.551-0.35-0.551c-0.101,0-0.167,0.033-0.2,0.101
		c-0.133,0.033-0.183,0.167-0.15,0.399c0,0.268,0.033,0.5,0.101,0.7v0.101c0.033,0.065,0.05,0.199,0.05,0.399
		c-0.033,0.733-0.033,1.434,0,2.101v0.1c0.033,0.301,0.083,0.65,0.15,1.051c-0.066,0.133-0.066,0.316,0,0.55
		c0,0.166,0.017,0.333,0.05,0.5c0,0.333,0.017,0.7,0.05,1.101c0,0.2,0,0.351,0,0.45v0.05c0,0.267,0,0.565,0,0.899
		c0.067,0.399,0.1,0.733,0.1,1v0.051c0.033,0.699,0.066,1.417,0.101,2.149c0,0.399,0,0.733,0,1v0.05c0,0.366,0.033,0.75,0.1,1.149
		v0.051c-0.065,0.233-0.065,0.383,0,0.449c0,0.4,0.018,0.801,0.05,1.2v0.149c0.033,0.033,0.083,0.116,0.15,0.25
		c-0.067,0.733-0.067,1.45,0,2.149c0,0.301,0.017,0.65,0.05,1.051c0,0.366,0.018,0.716,0.05,1.05c0,0.2,0,0.5,0,0.899
		c0,0.4,0,0.733,0,1v0.051c0.066,0.3,0.101,0.616,0.101,0.949c0,0.167,0.017,0.334,0.05,0.5c0.033,0.334,0.05,0.7,0.05,1.101
		c-0.065,0.733-0.065,1.435,0,2.101v0.149c0.067,0.166,0.101,0.416,0.101,0.75c0,0.7,0.017,1.399,0.05,2.101
		c-0.101,0.101-0.117,0.267-0.05,0.5c0.032,0.3,0.05,0.634,0.05,1c0,0.065,0.05,0.149,0.149,0.25c0,0.033-0.032,0.149-0.1,0.351
		v0.05c0,0.366,0.033,0.75,0.1,1.149c0,0.134,0.018,0.301,0.051,0.5c0,0.367,0,0.75,0,1.15c0,0.1,0.017,0.217,0.05,0.35
		c0,0.134,0,0.284,0,0.45h-5.8c0-0.101,0.032-0.166,0.1-0.2c-0.067-0.1-0.067-0.183,0-0.25c-0.067-0.466-0.1-0.899-0.1-1.3
		c0-0.066,0-0.233,0-0.5c-0.033-0.101-0.033-0.2,0-0.3c-0.033-0.566-0.051-1.135-0.051-1.7v-0.101c0-0.134,0-0.399,0-0.8
		c-0.032-0.334-0.083-0.667-0.149-1c0-0.066,0-0.167,0-0.301c0-0.8-0.018-1.583-0.05-2.35v-0.051c0-0.101,0-0.199,0-0.3
		c0-0.134,0-0.232,0-0.301c0-0.6-0.018-1.116-0.051-1.55c-0.066-0.399-0.066-0.783,0-1.149c0-0.399-0.032-0.75-0.1-1.051
		c-0.033-0.166-0.05-0.366-0.05-0.6c0-0.366,0-0.718,0-1.051c-0.034-0.065-0.034-0.116,0-0.149c0-0.233,0-0.601,0-1.101
		c0-0.267-0.018-0.5-0.05-0.699c-0.066-0.167-0.066-0.301,0-0.4v-0.05c-0.5-0.268-1.033-0.467-1.601-0.601
		c-0.133-0.032-0.3-0.084-0.5-0.149c-0.3-0.066-0.583-0.133-0.85-0.2c-0.133-0.066-0.25-0.1-0.351-0.1
		c-0.333-0.135-0.684-0.268-1.05-0.4c-0.232-0.066-0.433-0.133-0.6-0.199c-0.101-0.066-0.185-0.066-0.25,0
		c-0.2,0-0.317-0.034-0.351-0.101c-0.167-0.066-0.3-0.166-0.399-0.3c-0.034-0.101-0.101-0.15-0.2-0.15
		c-0.1-0.033-0.15-0.1-0.15-0.199c-0.1-0.134-0.116-0.284-0.05-0.45l0.05-0.101c0-0.133,0-0.267,0-0.399
		c0.066-0.167,0.167-0.315,0.301-0.449c0-0.033,0.017-0.051,0.05-0.051c0.033-0.134,0.117-0.25,0.25-0.351c0.1-0.1,0.267-0.1,0.5,0
		c0.466,0.167,1,0.367,1.6,0.601c0.067,0,0.217,0.018,0.45,0.051h0.05c0.4,0.134,0.833,0.267,1.3,0.399
		c0.268,0.101,0.551,0.233,0.851,0.399c0.033,0,0.1,0.033,0.2,0.101v-0.101c0.032-0.033,0.083-0.033,0.149,0
		c0.034,0.065,0.101,0.117,0.2,0.149H43c0.034,0,0.101-0.017,0.2-0.05c0-0.5,0-1,0-1.5v-0.051c-0.033-0.699-0.083-1.383-0.15-2.05
		v-0.101c0-0.601-0.017-1.199-0.05-1.8v-0.101c0-0.133,0-0.25,0-0.351v-0.05c0-0.601-0.017-1.167-0.05-1.7v-0.05
		c0-0.034,0-0.167,0-0.399c0-0.667-0.033-1.333-0.1-2c-0.033-0.768-0.051-1.5-0.051-2.2c0-0.033-0.017-0.05-0.05-0.05
		c-0.267,0.134-0.5,0.282-0.7,0.449c-0.167,0.134-0.333,0.268-0.5,0.399c-0.133,0.034-0.232,0.117-0.3,0.25
		c-0.065,0.134-0.167,0.25-0.3,0.351l-0.1,0.051c-0.066,0.065-0.134,0.134-0.2,0.199c-0.2,0.134-0.417,0.316-0.65,0.551
		c-0.399,0.3-0.8,0.634-1.2,1c-0.8,0.634-1.6,1.282-2.399,1.949v0.051c-0.067,0.267-0.067,0.55,0,0.85
		c0,0.233-0.018,0.417-0.05,0.551c0,0.899,0.017,1.783,0.05,2.649v0.101c0,0.066,0,0.133,0,0.199v0.051c0,0.033,0,0.083,0,0.149
		v0.05c0,0.034,0.033,0.167,0.1,0.4c0,0.134,0.018,0.25,0.05,0.35c-0.167,0.2-0.25,0.5-0.25,0.9c-0.066,0.399-0.032,0.732,0.101,1
		c0.2,0,0.267,0.1,0.2,0.3c-0.033,0.033-0.033,0.065,0,0.101c-0.033,1.133-0.033,2.25,0,3.351v0.05c0,1.3,0.032,2.565,0.1,3.8v0.051
		c0,0.5,0.017,1,0.05,1.5c0,0.8,0,1.434,0,1.899v0.149c0,0.968,0.018,1.968,0.05,3v0.051c-0.066,0.232-0.083,0.55-0.05,0.949
		c0,0.366-0.065,0.649-0.2,0.851c-0.032,0.134-0.032,0.334,0,0.601c0,0.199,0.018,0.399,0.051,0.601
		c0.066-0.033,0.116-0.051,0.149-0.051l0.05,0.051c0,0.1,0.033,0.217,0.101,0.35c0,0.034,0,0.15,0,0.351c0,0.033,0,0.066,0,0.101
		c0,0.399,0.017,0.8,0.05,1.2v0.1c0,0.134,0,0.284,0,0.45h-2.2c0-0.101,0-0.166,0-0.2H34.7c0-0.1,0-0.183,0-0.25
		c0-0.199,0-0.433,0-0.699v-0.051c0-0.133,0-0.267,0-0.399c0-0.101,0-0.184,0-0.25c0-0.134,0.017-0.267,0.05-0.399H34.7
		c0-0.101,0-0.2,0-0.3c0-0.033,0.017-0.051,0.05-0.051c-0.033-0.032-0.05-0.084-0.05-0.149c0-0.435,0-0.851,0-1.25
		c-0.6-0.7-1.167-1.383-1.7-2.05c-0.667-0.801-1.333-1.601-2-2.4c-0.7-0.8-1.383-1.583-2.05-2.35c-0.367-0.4-0.7-0.801-1-1.2
		c-0.7-0.8-1.367-1.601-2-2.399c-0.667-0.801-1.35-1.551-2.05-2.25c-0.8,0.633-1.55,1.268-2.25,1.899
		c-0.067,0-0.101,0.033-0.101,0.101c-0.434,0.3-0.85,0.633-1.25,1c-0.767,0.666-1.55,1.333-2.35,2c-0.033,0.601-0.033,1.216,0,1.851
		c0,0.634,0.033,1.184,0.1,1.649c0,0.199,0,0.383,0,0.55v0.051c0,0.134,0,0.315,0,0.55c0,0.7,0.018,1.434,0.051,2.2
		c0,0.134,0,0.315,0,0.55v0.05c0.032,0.101,0.032,0.284,0,0.551c0,0.166,0,0.366,0,0.601c-0.101,0.333-0.018,0.5,0.25,0.5h0.1
		c0,0.199,0,0.434,0,0.699v0.051c-0.1,0.365-0.1,0.699,0,1c0,0.1,0.017,0.217,0.05,0.35c0.034,0.134,0.083,0.284,0.15,0.45h-5.7
		c-0.267-0.166-0.5-0.316-0.7-0.45c-0.1-0.1-0.167-0.199-0.2-0.3c-0.066,0-0.116,0-0.149,0c-0.5-0.268-0.95-0.55-1.351-0.851
		c-0.199-0.167-0.434-0.3-0.699-0.399c0.032,0.434,0.1,0.899,0.199,1.399c0,0.033,0,0.083,0,0.149c0,0.067,0.033,0.15,0.101,0.25
		c0.1,0.034,0.216,0.084,0.35,0.15c0.091,0.029,0.199,0.047,0.325,0.05H0v-8.8c0.4,0.365,0.817,0.75,1.25,1.149
		c0.768,0.666,1.518,1.351,2.25,2.05c0.067,0,0.117,0,0.15,0v-0.05c-0.034-0.467-0.05-0.899-0.05-1.301L3.5,52.627
		c-0.133-0.133-0.133-0.217,0-0.25c-0.565-0.633-1.117-1.283-1.649-1.95c-0.634-0.8-1.25-1.55-1.851-2.25v-4.8
		c0-0.033,0.034-0.083,0.101-0.149c0.133-0.134,0.333-0.217,0.6-0.25c0.1-0.034,0.167-0.084,0.2-0.149
		c0.232-0.066,0.433-0.167,0.6-0.301c0.133-0.101,0.25-0.199,0.351-0.3c0.1-0.134,0.232-0.217,0.399-0.25
		c0.233-0.134,0.45-0.267,0.65-0.399c0.1-0.033,0.2-0.083,0.3-0.15c0.4-0.333,0.867-0.6,1.4-0.8c0.066-0.566,0.083-1.166,0.05-1.8
		v-0.051c0-0.101,0-0.184,0-0.25c0-0.134,0-0.25,0-0.351c0.033-0.166,0.033-0.416,0-0.75c-0.034-0.199-0.034-0.35,0-0.449
		c0-0.399,0.017-0.801,0.05-1.2c0-0.3-0.017-0.55-0.05-0.75c-0.034-0.065-0.034-0.101,0-0.101c0.033-0.066,0.05-0.166,0.05-0.3
		c0-0.733-0.017-1.435-0.05-2.101v-0.101c0-0.566,0-1.166,0-1.8c-0.4-0.033-0.784-0.116-1.15-0.25c-0.399-0.133-0.8-0.268-1.2-0.399
		c-0.267-0.101-0.532-0.184-0.8-0.25c-0.466-0.2-0.966-0.367-1.5-0.5v-2.649c0.3,0.1,0.601,0.184,0.9,0.25
		c0.133,0.065,0.3,0.115,0.5,0.149c0.033,0,0.05,0.018,0.05,0.05c0.033,0.066,0.15,0.101,0.35,0.101l0.051,0.05
		c0.899,0.233,1.767,0.5,2.6,0.801c0.1-0.301,0.15-0.649,0.15-1.051c-0.066-0.666-0.117-1.366-0.15-2.1v-0.051
		c0-0.134,0-0.25,0-0.351v-0.05c-0.033-0.233-0.033-0.383,0-0.45c0-1.466,0-2.933,0-4.399c-0.033-0.366-0.033-0.732,0-1.101v-0.05
		c0-0.399-0.017-0.783-0.05-1.149c0-0.134,0.017-0.284,0.05-0.45c0-0.232,0-0.366,0-0.399c-0.033-0.101-0.05-0.166-0.05-0.2
		l0.05-0.05c0-0.633-0.017-1.316-0.05-2.05c0-1.066,0.017-2.116,0.05-3.15c-0.033-0.1-0.05-0.25-0.05-0.449
		c0-1.034,0.017-2.034,0.05-3V7.375c0.033-0.3,0.05-0.633,0.05-1c0-0.2,0-0.5,0-0.899c0-0.767-0.017-1.367-0.05-1.801
		c-0.033-0.399-0.033-0.733,0-1c0.033-0.199,0.083-0.366,0.15-0.5c0-0.133,0.032-0.149,0.1-0.05c0,0.033,0.05,0.05,0.15,0.05
		c0.1,0,0.184,0.051,0.25,0.15C5.2,2.358,5.25,2.475,5.25,2.675c-0.033,0.067-0.033,0.167,0,0.301C5.25,3.608,5.267,4.258,5.3,4.924
		z M47.65,10.775H47.6c-0.101,0.399-0.117,0.833-0.051,1.301c-0.066,0.032-0.066,0.134,0,0.3v0.101
		c0.033,0.333,0.051,0.699,0.051,1.101c0,0.134,0,0.3,0,0.5c0.032,0.267,0.083,0.565,0.149,0.899c-0.065,0.366-0.065,0.716,0,1.05
		c0,0.399,0.018,0.718,0.05,0.95v0.05c0,0.399,0,0.801,0,1.2c0,0.366,0,0.75,0,1.149c-0.032,0.3,0.033,0.517,0.2,0.649
		c0.101,0.066,0.185,0.116,0.25,0.149h0.101c0.133-0.267,0.167-0.583,0.1-0.949c-0.033-0.399-0.05-0.767-0.05-1.101
		c0-0.268,0-0.533,0-0.8c-0.101-0.5-0.117-1.033-0.05-1.601v-0.101c-0.066-0.333-0.117-0.685-0.15-1.05
		c-0.033-0.333-0.05-0.816-0.05-1.45c0-0.166,0-0.283,0-0.351c-0.067-0.565-0.067-1.134,0-1.699c0-0.066-0.034-0.101-0.101-0.101
		c-0.066-0.066-0.149-0.134-0.25-0.2C47.767,10.775,47.717,10.775,47.65,10.775z M43.2,57.225c-0.1,0.133-0.1,0.283,0,0.449v0.101
		c0.033,0.268,0.05,0.616,0.05,1.051c-0.033,0.1-0.033,0.217,0,0.35c-0.033,0.134-0.033,0.284,0,0.45H41.8v-0.05
		c-0.032-0.135-0.05-0.268-0.05-0.4c0-0.233,0-0.433,0-0.6v-0.101c0-0.467-0.065-0.867-0.2-1.2c0.066-0.065,0.2-0.101,0.4-0.101
		c0.2-0.1,0.417-0.166,0.65-0.199c0.1-0.066,0.217-0.117,0.35-0.149c0.033-0.033,0.1-0.033,0.2,0
		C43.284,56.858,43.3,56.992,43.2,57.225z M39.8,57.475c-0.1,0.333-0.083,0.583,0.051,0.75v0.05c0.267,0.268,0.517,0.566,0.75,0.899
		c0.167,0.134,0.35,0.284,0.55,0.45H38.4c0-0.033,0-0.083,0-0.149c-0.167,0-0.167-0.066,0-0.2v-0.101c0.033-0.267,0.1-0.5,0.2-0.699
		l0.05-0.051c0-0.033,0-0.083,0-0.149c0.2-0.167,0.399-0.315,0.6-0.449h0.101c0.167,0,0.267-0.051,0.3-0.15
		C39.717,57.508,39.767,57.441,39.8,57.475z M4.7,43.325c0.067-0.333,0-0.5-0.2-0.5c-0.7,0.5-1.399,0.967-2.1,1.399
		c-0.067,0-0.117,0.018-0.15,0.05c-0.167,0.134-0.383,0.268-0.649,0.399c-0.333,0.134-0.634,0.317-0.9,0.551
		c0.067,0.166,0.167,0.351,0.3,0.55c0.601,0.801,1.217,1.616,1.851,2.45c0.133,0.166,0.282,0.366,0.449,0.601
		c0.333,0.434,0.667,0.85,1,1.25c0.101,0.1,0.167,0.232,0.2,0.399c0.101,0,0.15-0.017,0.15-0.051c0-0.1,0-0.166,0-0.199
		c-0.034-0.232-0.034-0.482,0-0.75c-0.034-0.467-0.034-0.834,0-1.101c0-0.268,0-0.467,0-0.601c0-0.065,0-0.116,0-0.149
		c0-0.768,0.017-1.5,0.05-2.2c0-0.166,0-0.383,0-0.649c-0.033-0.101-0.033-0.199,0-0.3c0-0.034,0-0.066,0-0.101
		C4.667,43.975,4.667,43.625,4.7,43.325z M11.15,53.825v0.05c0.367,0.5,0.732,1.017,1.1,1.55c0.733,0.233,1.467,0.5,2.2,0.801
		c0.033,0,0.067,0,0.1,0c0.268,0.101,0.533,0.184,0.801,0.25c0.267,0.066,0.532,0.166,0.8,0.3h0.1
		c0.034-0.399,0.067-0.8,0.101-1.199c-0.033-0.2-0.033-0.366,0-0.5c0-0.268,0-0.483,0-0.65c-0.033-0.267-0.033-0.55,0-0.85v-0.101
		c0.066-0.334,0.1-0.634,0.1-0.899c-0.067-0.233-0.067-0.435,0-0.601c0-0.134,0-0.316,0-0.551c-0.1-0.5-0.1-1.017,0-1.55
		c0-0.268-0.05-0.435-0.15-0.5l-0.05,0.05c-0.8,0.667-1.583,1.334-2.35,2c-0.8,0.667-1.601,1.334-2.4,2l-0.05,0.051
		C11.25,53.542,11.15,53.658,11.15,53.825z M8.3,40.625c0,0.367,0,0.634,0,0.8l0.051,0.101c0,0.134-0.018,0.268-0.051,0.399
		c-0.032,0.2-0.032,0.367,0,0.5c0,0.334,0,0.567,0,0.7c0,0.033,0.018,0.065,0.051,0.101c0,0.366,0,0.768,0,1.199
		c0,0.367,0.032,0.717,0.1,1.051c0,0.199,0,0.5,0,0.899v0.2c0,0.732,0,1.482,0,2.25c0.3-0.135,0.583-0.316,0.85-0.551
		c0.268-0.267,0.551-0.482,0.851-0.649c0.2-0.133,0.383-0.268,0.55-0.399c0.367-0.367,0.767-0.7,1.2-1
		c0.232-0.167,0.45-0.316,0.649-0.45c0.4-0.366,0.833-0.699,1.301-1c0.8-0.634,1.6-1.282,2.399-1.949l0.05-0.051
		c-0.1-0.032-0.116-0.116-0.05-0.25c0.067-0.366,0.083-0.767,0.05-1.199v-0.101c-0.032-0.801-0.05-1.566-0.05-2.301v-0.1
		c0-0.066,0-0.167,0-0.301c-0.065-0.267-0.065-0.434,0-0.5v-0.05c-0.065-0.534-0.065-1.084,0-1.649c0-0.233-0.05-0.417-0.149-0.551
		c-0.134,0.033-0.25,0.101-0.351,0.2c-0.033,0-0.065,0.018-0.1,0.05c-0.2,0.101-0.367,0.218-0.5,0.351
		c-0.667,0.399-1.351,0.8-2.05,1.2c-0.934,0.532-1.816,1.083-2.65,1.649l-0.1,0.101c-0.167,0.032-0.301,0.1-0.4,0.199
		c-0.167,0.166-0.383,0.316-0.65,0.45C8.934,40.141,8.6,40.358,8.3,40.625z M6.4,42.025c-0.067-0.267-0.167-0.3-0.3-0.101
		c-0.167,0.034-0.233,0.184-0.2,0.45c0,0.033,0,0.084,0,0.149c-0.034,0.268-0.034,0.5,0,0.7c0,0.199,0,0.333,0,0.399
		c0,0.533,0,1.05,0,1.55c0,0.733,0.033,1.483,0.1,2.25c0,0.101,0,0.25,0,0.45v0.101c0,0.833,0.018,1.666,0.05,2.5
		c0.033-0.034,0.083-0.066,0.15-0.101c0.067-0.2,0.167-0.333,0.3-0.399c0.067-0.101,0.101-0.267,0.101-0.5
		c-0.066-0.334-0.101-0.667-0.101-1c-0.065-0.667-0.083-1.367-0.05-2.101c0-0.399,0-0.717,0-0.95v-0.05
		c-0.033-0.399-0.05-0.8-0.05-1.2v-0.05c0-0.066,0-0.133,0-0.2c0-0.233,0-0.433,0-0.6c-0.067-0.135-0.067-0.268,0-0.4v-0.1
		c-0.067-0.135-0.067-0.268,0-0.4C6.4,42.358,6.4,42.225,6.4,42.025z M6.2,31.725c0.033-0.367-0.067-0.566-0.3-0.601
		c-0.167-0.101-0.25,0.05-0.25,0.45v0.199c0.033,0.5,0.083,1.018,0.149,1.551c0,0.8,0,1.5,0,2.1c-0.066,0.101-0.066,0.233,0,0.4
		c0,0.1,0,0.232,0,0.399c0.033,0.133,0.033,0.316,0,0.55c-0.066,0.101-0.066,0.283,0,0.551c0.033,0.065,0.033,0.134,0,0.199v0.051
		c0,0.365,0.018,0.767,0.051,1.199v0.051c-0.033,0.065-0.033,0.184,0,0.35c0,0.134,0,0.317,0,0.551c0.1-0.101,0.217-0.167,0.35-0.2
		c0.133-0.065,0.2-0.184,0.2-0.351v-0.05c-0.101-0.2-0.101-0.333,0-0.399v-0.101c-0.067-0.666-0.101-1.3-0.101-1.899
		c0-0.467-0.017-0.801-0.05-1c0-0.2,0-0.384,0-0.551c0.034-0.399,0.034-0.716,0-0.949c0-0.2-0.017-0.399-0.05-0.601
		c0-0.066,0-0.217,0-0.45v-0.05c0-0.268,0-0.533,0-0.8C6.2,32.091,6.2,31.891,6.2,31.725z M8.05,31.775
		c0.033,0.166,0.033,0.384,0,0.649c0,0.334,0,0.584,0,0.75c0.033,0.634,0.066,1.25,0.101,1.851c0,0.634,0,1.351,0,2.149
		c-0.034,0.4,0,0.75,0.1,1.051c0.435-0.301,0.9-0.601,1.4-0.899c0.433-0.333,0.867-0.635,1.3-0.9c0-0.033,0.033-0.05,0.1-0.05
		c0.268-0.133,0.5-0.268,0.7-0.399c0.101-0.101,0.2-0.167,0.3-0.2c0.468-0.267,0.9-0.55,1.301-0.851c0-0.066,0.032-0.1,0.1-0.1
		c0.533-0.333,1.083-0.685,1.65-1.051c-0.033-0.101-0.117-0.149-0.25-0.149c-0.233-0.033-0.434-0.066-0.601-0.101
		c-0.333-0.134-0.649-0.25-0.95-0.351c-0.267-0.1-0.482-0.166-0.649-0.199c-0.133-0.034-0.233-0.051-0.3-0.051
		c-0.066-0.066-0.134-0.1-0.2-0.1c-0.268-0.033-0.483-0.101-0.65-0.2c-0.3-0.066-0.583-0.133-0.85-0.2
		c-0.333-0.133-0.633-0.216-0.9-0.25c-0.267-0.1-0.533-0.183-0.8-0.25c-0.067-0.066-0.15-0.1-0.25-0.1
		c-0.1-0.033-0.167-0.066-0.2-0.101c-0.232-0.101-0.367-0.101-0.399,0L8.05,31.775z M34.2,34.325c-0.033,0-0.067,0-0.1,0
		c-0.768,0.6-1.5,1.232-2.2,1.899c0,0.066,0.017,0.116,0.05,0.149c0.1,0,0.167,0.017,0.2,0.05c0.1,0.067,0.232,0.101,0.399,0.101
		l0.051,0.051c0.333,0.032,0.633,0.115,0.899,0.25H33.6c0.267,0.065,0.467,0.167,0.6,0.3c0.1,0.033,0.15,0,0.15-0.101
		c0-0.134,0-0.232,0-0.3c-0.033-0.334-0.051-0.517-0.051-0.551v-0.05c0.033-0.101,0.033-0.217,0-0.351c0-0.101,0-0.184,0-0.25
		c0-0.101,0-0.167,0-0.199c0-0.233,0-0.468,0-0.7C34.367,34.424,34.333,34.325,34.2,34.325z M25.75,42.125
		c0,0.033,0.018,0.05,0.05,0.05c0.533,0.534,1.051,1.117,1.551,1.75c0.3,0.367,0.633,0.784,1,1.25c0.366,0.4,0.717,0.801,1.05,1.2
		c0.399,0.467,0.833,0.95,1.3,1.45c0.667,0.767,1.35,1.55,2.05,2.35c0.667,0.733,1.317,1.534,1.95,2.4c0.067,0,0.1-0.051,0.1-0.15
		c-0.032-0.3-0.05-0.649-0.05-1.05v-0.101c0-0.065,0-0.199,0-0.399v-0.101c0-0.366,0-0.616,0-0.75c-0.033-0.134-0.033-0.25,0-0.351
		v-0.05c0-0.435,0-0.75,0-0.95v-0.05c-0.033-0.833-0.05-1.685-0.05-2.55c-0.067-0.2-0.067-0.333,0-0.4h-0.1
		c-0.033-0.133,0-0.216,0.1-0.25c-0.067-0.5-0.1-0.966-0.1-1.399c-0.033-0.434-0.051-0.767-0.051-1c0-0.167,0-0.267,0-0.3
		c0-0.732,0-1.399,0-2v-0.101c0.033-0.333-0.017-0.633-0.149-0.899c-0.034-0.134-0.133-0.2-0.3-0.2c-0.066,0-0.134-0.032-0.2-0.101
		c-0.233-0.066-0.467-0.133-0.7-0.199c-0.433-0.134-0.867-0.267-1.3-0.399c-0.633-0.167-1.217-0.333-1.75-0.5
		c-0.034,0-0.05-0.033-0.05-0.101c-0.2-0.066-0.367-0.066-0.5,0c-0.134,0.066-0.233,0.133-0.301,0.199
		c-0.1,0.067-0.199,0.134-0.3,0.2c-0.2,0.134-0.399,0.315-0.6,0.55c-0.8,0.667-1.601,1.334-2.4,2c-0.2,0.134-0.367,0.317-0.5,0.551
		c0.034,0,0.05,0.018,0.05,0.05c0,0.033,0.018,0.083,0.051,0.149C25.667,41.958,25.717,42.025,25.75,42.125z M20.05,39.725
		c0.268-0.101,0.468-0.284,0.601-0.551c-0.233-0.3-0.483-0.616-0.75-0.949c-0.667-0.801-1.351-1.566-2.05-2.301
		c0,1.267,0.017,2.551,0.05,3.851v0.051c0.033,0.5,0.05,1,0.05,1.5c0.733-0.468,1.4-0.983,2-1.551
		C19.95,39.742,19.983,39.725,20.05,39.725z M20.05,35.325l-0.1-0.101c-0.167-0.066-0.317-0.066-0.45,0
		c0.367,0.399,0.717,0.8,1.05,1.199c0.101,0.134,0.233,0.267,0.4,0.4c0.333,0.399,0.667,0.8,1,1.199c0.067,0,0.133,0,0.2,0
		c0.367-0.3,0.716-0.601,1.05-0.899c0.067-0.066,0.133-0.116,0.2-0.149c0.232-0.101,0.399-0.25,0.5-0.45
		c-0.333-0.134-0.65-0.25-0.95-0.351c-0.367-0.1-0.7-0.183-1-0.25c-0.067-0.066-0.133-0.1-0.2-0.1c-0.2-0.135-0.433-0.218-0.7-0.25
		c-0.066,0-0.116,0-0.149,0C20.633,35.441,20.35,35.358,20.05,35.325z M25.6,59.625H19.25c0-0.101,0-0.166,0-0.2
		c-0.065-0.1-0.117-0.183-0.149-0.25c-0.033-0.333-0.018-0.6,0.05-0.8v-0.101c-0.034-0.3,0.065-0.467,0.3-0.5l0.05-0.101
		c0.268,0,0.483,0.051,0.65,0.15c0.065,0.032,0.117,0.083,0.149,0.149c0.301,0.066,0.617,0.149,0.95,0.25
		c0.534,0.166,1.083,0.366,1.65,0.601c0.267,0.032,0.55,0.1,0.85,0.199c0.034,0.033,0.083,0.083,0.15,0.149
		c0.466,0.134,0.966,0.267,1.5,0.4C25.463,59.606,25.529,59.623,25.6,59.625z"/>
</g>
</svg>
