<?xml version="1.0" encoding="utf-8"?>
<!-- Generator: Adobe Illustrator 15.0.0, SVG Export Plug-In . SVG Version: 6.00 Build 0)  -->
<!DOCTYPE svg PUBLIC "-//W3C//DTD SVG 1.1//EN" "http://www.w3.org/Graphics/SVG/1.1/DTD/svg11.dtd">
<svg version="1.1" xmlns="http://www.w3.org/2000/svg" xmlns:xlink="http://www.w3.org/1999/xlink" x="0px" y="0px"
	 width="226.771px" height="113.387px" viewBox="0 0 226.771 113.387" enable-background="new 0 0 226.771 113.387"
	 xml:space="preserve">
<g id="Layer_1" display="none">
	<g display="inline">
		<g>
			<polygon fill="#DCD8CD" points="76.732,27.498 130.639,27.498 130.663,27.523 130.663,81.371 130.639,81.394 76.732,81.394 
				76.709,81.371 76.709,27.523 			"/>
		</g>
		<g>
			<path fill="#5A5341" d="M80.96,29.352l0.068,0.021l0.045,0.021c0.101-0.002,0.183,0.044,0.249,0.136
				c0.094,0.038,0.139,0.151,0.135,0.339c-0.026,0.065-0.026,0.155,0,0.272c0,0.575,0.017,1.163,0.046,1.76v0.361v0.136v0.405v0.137
				v0.271v0.092v0.451v0.091l0.022,1.56l0.067,1.603v0.272l0.046,0.632l0.022,1.92l0.022,1.919v1.402l0.022,0.857l0.068,0.812v0.09
				v0.272v0.091v0.359v0.406v0.045v0.994c0.03,0.271,0.03,0.511,0,0.725l0.045,1.173v1.176c-0.03,0.243-0.045,0.513-0.045,0.812
				c0,0.24,0.015,0.467,0.045,0.679c0.031,0.331,0.031,0.617,0,0.856c0.002,0.231,0.047,0.404,0.136,0.52l0.067,0.047l0.091,0.066
				l0.068-0.091v-0.09c0.058-0.046,0.089-0.122,0.09-0.226c-0.09-0.214-0.09-0.454,0-0.726c-0.002-0.229-0.033-0.39-0.09-0.474
				v-0.113l-0.023-0.833l-0.023-0.791v-0.092v-0.724l-0.021-0.541l0.021-0.406v-0.182v-0.135c-0.049-0.301-0.079-0.608-0.09-0.925
				c-0.004-0.317,0.011-0.641,0.044-0.973v-0.09v-0.361v-0.406c-0.058-0.21-0.089-0.405-0.09-0.587l-0.022-0.093
				c-0.017-0.15-0.009-0.27,0.022-0.36v-0.091c-0.03-0.331-0.03-0.66,0-0.994c0-0.179-0.017-0.313-0.045-0.405
				c-0.034-0.098-0.034-0.164,0-0.202c0.027-0.146,0.027-0.334,0-0.564l0.022-0.022h0.339v-0.069l0.022-0.021
				c0.098,0,0.182,0.029,0.248,0.09h0.159h0.09h0.182h0.045h0.249l0.09-0.044l0.09,0.044c0.031,0.125,0.046,0.262,0.046,0.407
				l0.09,0.043v0.34c-0.059,0.336-0.059,0.65,0,0.949v1.083v0.091v0.272c0.03,0.089,0.045,0.179,0.045,0.271l0.023,0.948
				l0.021,0.947v0.092c-0.028,0.185-0.028,0.454,0,0.812c0,0.363,0.03,0.77,0.092,1.221v0.947v0.544v0.09l0.021,0.385l-0.021,0.431
				c-0.059,0.234-0.042,0.438,0.045,0.608v0.068l-0.023,0.204l0.023,0.09v1.13c0.233,0.09,0.482,0.164,0.747,0.227l0.202,0.09
				l0.182,0.092l3.008,0.903l3.03,0.992l1.538,0.452l0.814,0.183c0.484,0.18,0.982,0.347,1.492,0.496l0.792,0.227l0.791,0.272
				l0.77,0.226l0.068,0.022l0.135,0.112c0.115,0.028,0.242,0.044,0.387,0.044c0.219,0.03,0.408,0.09,0.564,0.183l0.158,0.045
				l0.994,0.294l1.041,0.315l1.084-0.837l1.154-0.857l0.451-0.386l0.635-0.519l1.129-0.812c0.211-0.179,0.393-0.348,0.543-0.496
				c0.09-0.091,0.195-0.166,0.316-0.227c0.061-0.091,0.137-0.182,0.227-0.271h0.135c0.121-0.118,0.24-0.208,0.363-0.271l0.09-0.09
				c0.092-0.035,0.184-0.096,0.27-0.18c0.029-0.122,0.105-0.212,0.227-0.272c0.211-0.094,0.393-0.213,0.545-0.361
				c-0.031-0.444-0.047-0.888-0.047-1.333v-0.724l-0.066-1.354l-0.023-1.355v-0.046v-0.678l-0.047-1.354v-1.379
				c-0.029-0.039-0.043-0.094-0.043-0.157c-0.035-0.149-0.049-0.293-0.047-0.431c0.012-0.134,0.041-0.263,0.09-0.385v-0.09
				l-0.021-0.544l0.021-0.541l0.047-0.067c0.047-0.046,0.1-0.069,0.156-0.069c0.074,0.002,0.158,0.04,0.25,0.113
				c0.082,0.059,0.227,0.089,0.43,0.092h0.092l0.314,0.09l0.316,0.093h0.068v0.066l0.045,0.405v0.544c0,0.33,0.029,0.632,0.09,0.904
				v0.089c-0.059,0.306-0.059,0.622,0,0.95l0.023,1.468l0.023,1.423l0.021,0.903l0.021,0.902l-0.021,0.067l0.021,0.158
				c0.002,0.214,0.033,0.439,0.092,0.678l1.039-0.882c0.363-0.302,0.74-0.604,1.131-0.903l1.086-0.882l1.084-0.835l0.814-0.632
				c0.344-0.316,0.699-0.624,1.062-0.926c0.361-0.302,0.73-0.597,1.107-0.883l0.09-0.021l0.047-0.068l0.021-0.067l0.021-0.181
				l-0.043-0.521v-0.473l-0.023-0.094l-0.023-1.309v-0.135c-0.002-0.513-0.045-0.964-0.135-1.355c-0.031-0.333-0.031-0.635,0-0.903
				v-0.316l-0.068-0.699l-0.068-0.656v-0.359c0-0.361-0.029-0.662-0.09-0.902v-0.137c0-0.512-0.029-0.979-0.09-1.399
				c-0.029-0.362-0.047-0.694-0.047-0.995v-0.091l-0.043-0.633v-0.677v-0.046l-0.023-1.038l-0.066-0.949
				c-0.031-0.211-0.047-0.421-0.047-0.632v-0.046c-0.029-0.146-0.029-0.269,0-0.36c-0.029-0.361-0.076-0.678-0.135-0.949
				c-0.031-0.182-0.045-0.361-0.045-0.543c-0.029-0.207-0.029-0.356,0-0.451c0-0.392-0.016-0.752-0.047-1.086V27.57v-0.136
				l3.189-0.021l0.113,0.091v0.203c0,0.302,0.014,0.616,0.045,0.948l0.021,0.928l0.023,0.924v0.137l0.023,0.723l0.066,0.77v0.09
				v0.903c0,0.242,0.016,0.452,0.047,0.634v0.09c-0.031,0.361-0.031,0.663,0,0.903c0.031,0.166,0.039,0.31,0.021,0.429
				c0.072,0.092,0.131,0.152,0.182,0.182c0.131-0.008,0.223-0.045,0.27-0.112c0.057-0.065,0.062-0.172,0.023-0.316
				c-0.029-0.211-0.029-0.392,0-0.542l-0.043-0.498c-0.062-0.21-0.092-0.392-0.092-0.542l-0.045-0.948v-0.994v-2.71v-0.046
				c-0.031-0.116-0.031-0.253,0-0.406c-0.002-0.048-0.02-0.086-0.045-0.113c-0.092-0.222-0.139-0.454-0.137-0.7l3.234-0.021
				l0.023,0.021c-0.061,0.452-0.061,0.874,0,1.267l0.09,1.94v0.316c0,0.543,0.045,0.963,0.137,1.265
				c0,0.154,0.016,0.304,0.043,0.452l0.07,0.813l0.02,0.992c0.004,0.111,0.035,0.195,0.092,0.249c-0.027,0.438-0.027,0.896,0,1.378
				v0.091v0.812c0,0.361,0.031,0.693,0.09,0.995v0.541c-0.057,0.177-0.057,0.351,0,0.521l0.045,0.044
				c0.033,0.286,0.033,0.609,0,0.973c0,0.239,0.016,0.465,0.045,0.678c0,0.396,0.029,0.786,0.09,1.174v0.09
				c0,0.272,0.016,0.528,0.047,0.771v0.359c-0.033,0.128-0.033,0.382,0,0.771c0,0.21,0.016,0.377,0.043,0.498
				c0.037,0.141,0.045,0.27,0.023,0.382c0.113,0.099,0.164,0.227,0.158,0.385l-0.021,0.023l-0.023,0.066l0.023,0.091l0.045,0.067
				c0.121-0.002,0.227,0.016,0.316,0.044l0.137,0.046c0.236,0,0.418-0.016,0.541-0.046c0.057-0.027,0.115-0.044,0.18-0.044
				l0.771-0.271l1.627-0.362l0.678-0.18h0.09c0.303-0.119,0.604-0.195,0.904-0.227l0.068-0.046c0.244-0.004,0.428-0.048,0.543-0.134
				c0.033-0.032,0.072-0.048,0.113-0.047h0.135c0.049,0.168,0.072,0.415,0.068,0.745c0,0.182,0.031,0.378,0.09,0.587
				c0.031,0.123,0.045,0.227,0.045,0.315v0.183c-0.027,0.242-0.014,0.454,0.045,0.632l-0.021,0.021l-0.137,0.023l-0.047,0.046
				l-0.02,0.066c-0.068,0.027-0.129,0.045-0.184,0.046c-0.057-0.001-0.1-0.023-0.135-0.068c-0.078-0.079-0.107-0.243-0.09-0.496
				c0.027-0.258-0.01-0.399-0.113-0.429l-0.09,0.021l-0.066,0.047l-0.023,0.021h-0.137c-0.072-0.003-0.123,0.013-0.158,0.046
				c-0.043,0.05-0.057,0.133-0.045,0.249v0.134v0.182v0.045c0.002,0.115,0.035,0.244,0.09,0.385c0.125,0.067,0.184,0.166,0.18,0.293
				c0.033,0.116,0.033,0.239,0,0.362l-0.133,0.112c-0.031,0.059-0.076,0.091-0.137,0.091c-0.062,0.055-0.139,0.084-0.227,0.09
				l-0.045,0.339c0.031,0.179,0.045,0.357,0.045,0.543c-0.029,0.362-0.016,0.694,0.045,0.994v0.543c0,0.301,0.029,0.603,0.092,0.904
				l0.09,1.985v0.272v0.358c0,0.361,0.031,0.632,0.09,0.813c0.031,0.154,0.047,0.334,0.047,0.542v0.632
				c0.027,0.33,0.074,0.632,0.133,0.904v0.091l-0.066,0.271c0.053,0.092,0.074,0.182,0.066,0.271l0.094,1.854
				c0,0.361,0.029,0.707,0.09,1.039v0.044v0.859c0,0.113,0.016,0.196,0.043,0.247l0.047,0.092v1.92c0,0.203,0.031,0.36,0.09,0.475
				v0.065l0.045,0.432v0.563v0.227c0,0.513,0.016,0.993,0.045,1.445c0,0.331,0.029,0.649,0.092,0.948l0.043,0.023l0.023,1.037
				l0.023,0.883l0.09,0.925l0.047,0.971v0.092l0.02,0.725l0.023,0.632c0,0.36,0.033,0.708,0.09,1.036v0.047
				c-0.059,0.543-0.043,1.009,0.045,1.399c0.031,0.635,0.076,1.299,0.137,1.987v0.046l0.023,0.698l0.066,0.701v0.588v0.134
				l0.023,0.701l0.066,0.698c0.031,0.149,0.047,0.283,0.047,0.407l-0.023,0.021h-2.939l-0.023-0.021V81.1v-0.182
				c-0.029-0.147-0.043-0.291-0.043-0.43c0-0.136,0.014-0.263,0.043-0.385l-0.021-0.135l-0.045-0.046l-0.068-0.022l-0.021-0.065
				l0.021-0.092v-1.445c-0.031-0.238-0.045-0.448-0.045-0.632c-0.061-0.178-0.061-0.298,0-0.362l-0.135-1.807l-0.068-0.974
				l-0.068-0.971l-0.066-1.874l-0.023-1.921l-0.066-0.476l-0.023-0.474c-0.029-0.32-0.045-0.646-0.045-0.972
				c-0.031-0.035-0.045-0.072-0.045-0.113v-0.925l-0.092-0.092v-0.926c0-0.301-0.014-0.602-0.043-0.902
				c-0.031-0.302-0.045-0.603-0.045-0.902v-0.632l-0.068-0.974l-0.023-0.972l-0.021-0.158l-0.023-0.044l-0.021-0.112l0.021-0.068
				l-0.066-0.994l-0.068-0.926c-0.029-0.303-0.045-0.618-0.045-0.948c0-0.331-0.016-0.634-0.045-0.902l-0.068-0.975l-0.021-1.017
				v-0.043l-0.09-1.402c-0.061-0.359-0.092-0.706-0.092-1.039c0-0.542-0.016-1.022-0.045-1.444l-0.045-0.724v-0.725
				c0-0.264-0.031-0.467-0.092-0.608c-0.029-0.131-0.045-0.244-0.043-0.339l-0.023-0.136l-0.045-0.021h-0.066
				c-0.152,0.088-0.318,0.148-0.498,0.182l-0.045,0.046c-0.049,0.062-0.096,0.094-0.137,0.089c-0.043,0.008-0.072-0.022-0.09-0.089
				c-0.094-0.129-0.105-0.272-0.045-0.432c0.029-0.262,0.029-0.494,0-0.698c-0.121-0.159-0.211-0.332-0.271-0.521
				c-0.031-0.113-0.094-0.226-0.182-0.337c-0.062-0.154-0.139-0.306-0.227-0.452l-0.043-0.136l-0.25-0.271
				c-0.039,0.09-0.045,0.232-0.023,0.43l0.047,0.927v1.016v0.452l0.066,0.542l0.023,0.543v0.135c0,0.202,0.031,0.359,0.09,0.476
				v0.654c-0.027,0.184-0.027,0.335,0,0.45c0.062,0.124,0.062,0.224,0,0.296v0.066c0,0.362,0.029,0.725,0.09,1.084v0.046v1.762
				c-0.029,0.071-0.037,0.126-0.023,0.158l0.047,0.023l0.023,0.043l0.043,1.017v1.019c0,0.361,0.033,0.692,0.092,0.996l0.045,0.358
				l0.045,0.95v1.039v0.405c0.006,0.344,0.02,0.683,0.045,1.017c0.02,0.332,0.049,0.656,0.092,0.971l0.043,0.928v1.017
				c0.002,0.353,0.033,0.6,0.09,0.744l-0.021,0.091v0.091l0.021,0.248c0,0.456,0.016,0.894,0.047,1.312v0.134l0.023,0.904
				l0.021,0.902v0.136l-0.021,0.159l0.021,0.044c0.004,0.098,0.033,0.202,0.09,0.317c-0.057,0.316-0.057,0.623,0,0.925
				c0.031,0.304,0.045,0.636,0.045,0.995v0.271l0.023,0.745l0.021,0.699c0.061,0.298,0.092,0.614,0.092,0.948
				c-0.059,0.206-0.059,0.379,0,0.519c0.031,0.132,0.045,0.305,0.045,0.521v0.947c0.029,0.331,0.074,0.676,0.137,1.04v0.227
				c-0.027,0.342-0.035,0.672-0.023,0.993c0.004,0.329,0.025,0.646,0.066,0.949c0,0.272,0.016,0.545,0.045,0.812v0.134v0.138v0.046
				l-0.021,0.065l0.021,0.159l-0.021,0.09l0.021,0.066h-3.324l-0.066-0.044v-0.112v-0.183v-0.089c-0.033-0.18-0.033-0.358,0-0.544
				l-0.07-0.972l-0.066-0.971c-0.029-0.331-0.047-0.647-0.047-0.95l-0.02-0.202v-0.112l0.02-0.047v-0.902v-0.09
				c-0.029-0.301-0.043-0.604-0.043-0.903v-0.452c-0.061-0.18-0.061-0.346,0-0.498c-0.09-0.329-0.121-0.677-0.09-1.038V73.01v-0.134
				c-0.035-0.146-0.057-0.312-0.07-0.498c-0.002-0.192,0.006-0.404,0.023-0.633v-0.317l-0.066-0.631l-0.068-0.679v-0.047v-0.314
				c-0.031-0.271-0.031-0.585,0-0.949c0-0.088-0.018-0.18-0.045-0.271l-0.023-0.067v-0.157l0.023-0.317l-0.045-0.812l-0.023-0.837
				l-0.066-0.744v-0.046l-0.047-0.656v-0.655v-0.36c-0.029-0.208-0.043-0.42-0.043-0.632v-0.406l-0.068-0.678l-0.023-0.725v-0.046
				l-0.045-0.678v-0.632v-0.993c-0.049-0.314-0.086-0.632-0.113-0.949c-0.02-0.316-0.025-0.634-0.021-0.95
				c-0.031-0.33-0.047-0.661-0.047-0.994c0-0.361-0.014-0.692-0.043-0.992v-0.314c-0.061-0.089-0.061-0.194,0-0.316
				c-0.002-0.301-0.033-0.617-0.092-0.949v-0.361v-0.585c-0.029-0.36-0.045-0.706-0.045-1.039l-0.047-0.632v-0.77
				c-0.059-0.24-0.059-0.436,0-0.587c0.012-0.181-0.02-0.311-0.09-0.385c-0.043-0.055-0.113-0.087-0.203-0.09
				c-0.08,0.005-0.131,0.035-0.158,0.09l-0.066,0.022l-0.068,0.089c-0.014,0.054-0.014,0.128,0,0.228
				c0,0.243,0.031,0.453,0.09,0.633v0.091c0.031,0.063,0.045,0.184,0.045,0.361l-0.021,0.971l0.021,0.924v0.094l0.137,0.948
				c-0.059,0.128-0.059,0.294,0,0.495c0.002,0.154,0.016,0.305,0.045,0.452c0,0.307,0.016,0.636,0.045,0.996v0.405v0.856
				l0.066,0.499l0.023,0.406v0.046l0.09,1.942v0.903c0,0.359,0.031,0.722,0.09,1.083v0.046c-0.035,0.126-0.049,0.216-0.045,0.271
				l0.045,0.113c0.002,0.375,0.02,0.744,0.047,1.107v0.113l0.135,0.227c-0.029,0.348-0.043,0.687-0.045,1.016
				c0,0.319,0.014,0.638,0.045,0.948c0,0.272,0.016,0.587,0.045,0.948c0,0.332,0.016,0.648,0.047,0.949v0.812v0.901l0.066,0.452
				l0.023,0.452c0,0.152,0.014,0.302,0.043,0.451c0.033,0.304,0.047,0.634,0.047,0.996c-0.031,0.33-0.047,0.653-0.047,0.971
				s0.016,0.626,0.047,0.926v0.135c0.061,0.151,0.09,0.378,0.09,0.678l0.023,0.949l0.021,0.949c-0.088,0.1-0.102,0.25-0.045,0.45
				c0.031,0.274,0.045,0.576,0.045,0.904l0.023,0.066l0.113,0.137v0.065l-0.023,0.092l-0.068,0.182
				c0.002,0.359,0.031,0.721,0.092,1.083c0,0.123,0.014,0.273,0.045,0.452v1.038c0,0.092,0.016,0.196,0.045,0.315v0.407
				l-0.023,0.022h-5.246l-0.021-0.022c-0.004-0.086,0.018-0.146,0.066-0.181c-0.023-0.054-0.031-0.099-0.021-0.137l0.021-0.091
				c-0.053-0.422-0.074-0.812-0.066-1.175v-0.451c-0.029-0.091-0.029-0.181,0-0.271l-0.045-0.769v-0.768v-0.091v-0.724
				c-0.031-0.3-0.076-0.602-0.137-0.902v-0.272l-0.023-1.062l-0.021-1.062v-0.315v-0.271l-0.021-0.737l-0.023-0.656
				c-0.029-0.185-0.045-0.363-0.045-0.541c0-0.17,0.016-0.339,0.045-0.498l-0.023-0.498l-0.066-0.452
				c-0.033-0.149-0.047-0.329-0.047-0.541v-0.949l-0.021-0.09l0.021-0.067v-0.973c0-0.239-0.016-0.451-0.043-0.632
				c-0.062-0.146-0.062-0.267,0-0.361c-0.447-0.253-0.92-0.438-1.426-0.563l-0.453-0.135l-0.77-0.182
				c-0.123-0.059-0.229-0.091-0.314-0.091l-0.951-0.361l-0.564-0.18l-0.113-0.046l-0.043,0.021l-0.047,0.023
				c-0.186,0.001-0.297-0.028-0.338-0.093c-0.152-0.061-0.273-0.149-0.363-0.271c-0.029-0.088-0.082-0.133-0.158-0.136
				c-0.104-0.037-0.156-0.104-0.158-0.203c-0.094-0.129-0.107-0.271-0.047-0.431l0.047-0.067v-0.36
				c0.062-0.162,0.152-0.307,0.271-0.43l0.021-0.046c0.047-0.124,0.131-0.228,0.248-0.315c0.051-0.049,0.119-0.07,0.205-0.068
				c0.082,0,0.182,0.021,0.295,0.068l1.424,0.542l0.408,0.046h0.043l1.178,0.359c0.242,0.092,0.498,0.212,0.77,0.361h0.066
				l0.092,0.046v-0.046l0.045-0.022l0.135,0.022c0.031,0.062,0.084,0.108,0.16,0.137l0.203-0.046v-1.333l-0.07-0.973l-0.066-0.925
				v-0.093l-0.023-0.812l-0.023-0.813v-0.09v-0.316v-0.045l-0.02-0.788l-0.023-0.746v-0.405l-0.023-0.904l-0.066-0.902l-0.047-1.017
				v-0.971c-0.242,0.108-0.453,0.235-0.633,0.382l-0.451,0.362c-0.125,0.035-0.215,0.108-0.271,0.227
				c-0.061,0.121-0.15,0.226-0.273,0.315l-0.09,0.046l-0.18,0.18c-0.184,0.124-0.381,0.29-0.588,0.498
				c-0.363,0.273-0.727,0.573-1.086,0.903l-1.086,0.856l-1.084,0.904c-0.059,0.265-0.059,0.527,0,0.79
				c0,0.217-0.016,0.38-0.045,0.498l0.023,1.22l0.021,1.175v0.094v0.18v0.046v0.134v0.046l0.09,0.36
				c0,0.123,0.018,0.229,0.047,0.317c-0.15,0.191-0.227,0.463-0.227,0.812c-0.055,0.355-0.023,0.647,0.09,0.883
				c0.086,0,0.146,0.022,0.18,0.067c0.037,0.051,0.037,0.127,0,0.226v0.046l-0.021,1.56l0.021,1.514v0.046l0.023,1.738l0.066,1.694
				v0.045c0,0.452,0.016,0.903,0.047,1.354v1.717v0.136l0.021,1.333l0.023,1.377v0.046c-0.061,0.213-0.076,0.501-0.047,0.856
				c0,0.342-0.061,0.604-0.18,0.791c-0.029,0.116-0.029,0.289,0,0.521c0.002,0.167,0.016,0.332,0.045,0.496l0.111-0.025l0.07,0.046
				c0.002,0.099,0.033,0.203,0.09,0.316v0.338v0.092c0,0.36,0.014,0.724,0.043,1.084v0.091v0.407l-0.02,0.021h-1.992l-0.023-0.021
				v-0.159h-0.043v-0.247v-0.633v-0.405v-0.227c-0.006-0.113,0.002-0.227,0.023-0.339l-0.023-0.023v-0.271v-0.043v-0.137v-1.106
				l-0.793-0.949l-0.746-0.902l-1.809-2.168l-1.854-2.123c-0.332-0.361-0.633-0.725-0.904-1.084l-0.928-1.085l-0.883-1.083
				c-0.295-0.356-0.598-0.702-0.902-1.038c-0.307-0.337-0.615-0.66-0.928-0.973l-1.041,0.832l-0.971,0.859l-0.045,0.021
				l-0.045,0.047c-0.396,0.286-0.773,0.596-1.13,0.927l-1.041,0.902l-1.085,0.904l-0.022,0.812l0.022,0.836
				c0,0.572,0.03,1.068,0.091,1.49v0.495v0.544l0.021,0.971l0.023,1.017v0.497c0.031,0.121,0.031,0.303,0,0.543v0.541
				c-0.049,0.165-0.049,0.277,0,0.339c0.039,0.056,0.107,0.085,0.203,0.092h0.091l0.022,0.021v0.633
				c-0.089,0.364-0.089,0.68,0,0.948c0.001,0.096,0.017,0.201,0.045,0.318l0.136,0.384l-0.023,0.044h-5.154l-0.656-0.405
				c-0.088-0.093-0.149-0.182-0.181-0.271h-0.113c-0.465-0.241-0.88-0.497-1.244-0.768c-0.163-0.141-0.352-0.253-0.565-0.339
				c0.025,0.379,0.078,0.784,0.159,1.219v0.138c0.003,0.053,0.033,0.12,0.09,0.201l0.316,0.138c0.072,0.022,0.164,0.04,0.271,0.045
				l0.022,0.021l-0.022,0.022h-9.791l-0.022-0.022v-7.951l0.045-0.021l1.13,1.036l1.019,0.903l1.018,0.949h0.068
				c-0.021-0.433-0.029-0.823-0.022-1.176l-0.091-0.044c-0.079-0.083-0.11-0.151-0.09-0.204l0.067-0.064l-0.747-0.838l-0.723-0.882
				l-0.858-1.061l-0.814-0.972V66.64c-0.003-0.039,0.026-0.092,0.091-0.159c0.127-0.121,0.315-0.197,0.565-0.226
				c0.077-0.032,0.13-0.077,0.158-0.135c0.217-0.066,0.396-0.156,0.542-0.271c0.12-0.091,0.226-0.182,0.316-0.271
				c0.095-0.121,0.224-0.193,0.384-0.227l0.565-0.36c0.092-0.031,0.183-0.078,0.271-0.136c0.181-0.148,0.376-0.284,0.589-0.405
				c0.211-0.122,0.437-0.227,0.678-0.315c0.025-0.249,0.042-0.505,0.045-0.771v-0.836v-0.271V61.94c0.03-0.154,0.03-0.38,0-0.678
				c-0.031-0.178-0.031-0.314,0-0.405c0-0.362,0.015-0.725,0.045-1.084c0-0.271-0.015-0.496-0.045-0.678l-0.023-0.092
				c0.042-0.07,0.066-0.161,0.068-0.271l-0.023-0.971l-0.021-0.927v-0.091V55.14c-0.354-0.032-0.693-0.107-1.019-0.228l-0.271-0.089
				l-0.814-0.271c-0.24-0.09-0.482-0.165-0.723-0.227c-0.426-0.182-0.878-0.331-1.357-0.451l-0.022-2.417l0.022-0.021
				c0.271,0.09,0.543,0.166,0.813,0.226c0.125,0.062,0.275,0.106,0.453,0.136l0.068,0.045l0.045,0.046l0.091,0.021l0.158,0.022
				l0.067,0.046l1.175,0.315l1.132,0.385c0.086-0.26,0.131-0.562,0.136-0.903l-0.091-0.927l-0.045-0.971v-0.046v-0.315
				c-0.03-0.234-0.03-0.387,0-0.451V45.09c-0.03-0.33-0.03-0.662,0-0.995c0-0.391-0.016-0.752-0.046-1.083
				c0-0.124,0.016-0.258,0.046-0.407v-0.361l-0.046-0.182l0.046-0.064l-0.023-0.884l-0.022-0.947v-1.424l0.046-1.423
				c-0.03-0.092-0.046-0.227-0.046-0.404v-1.38l0.046-1.332v-0.092c0.029-0.272,0.045-0.575,0.045-0.902v-0.812l-0.022-0.928
				l-0.021-0.7c-0.031-0.36-0.031-0.662,0-0.903c0.029-0.181,0.074-0.331,0.136-0.452v-0.066v-0.046l0.045-0.021L80.96,29.352z
				 M119.786,37.211c-0.102,0.356-0.125,0.739-0.066,1.152l-0.047,0.09l0.023,0.092l0.021,0.066v0.113
				c0.029,0.301,0.045,0.631,0.045,0.994v0.451l0.137,0.813c-0.061,0.335-0.061,0.65,0,0.949c0,0.36,0.016,0.648,0.045,0.856v1.129
				v1.038c-0.025,0.264,0.035,0.451,0.18,0.564l0.205,0.136h0.068c0.113-0.236,0.143-0.515,0.09-0.835
				c-0.031-0.362-0.045-0.695-0.045-0.994v-0.725c-0.049-0.225-0.08-0.456-0.09-0.7c-0.006-0.24,0.01-0.489,0.045-0.742v-0.093
				l-0.092-0.451l-0.043-0.498l-0.047-0.542v-0.769v-0.316c-0.029-0.254-0.045-0.51-0.045-0.769c0-0.257,0.016-0.514,0.045-0.77
				l-0.045-0.044l-0.045-0.021l-0.203-0.183h-0.137V37.211L119.786,37.211z M114.63,79.091c0.182-0.092,0.377-0.151,0.586-0.184
				c0.084-0.058,0.184-0.104,0.297-0.134l0.066-0.022l0.135,0.022c0.053,0.007,0.09,0.03,0.113,0.065
				c0.033,0.075,0.02,0.188-0.045,0.34c-0.043,0.059-0.066,0.121-0.068,0.181c0.002,0.057,0.025,0.118,0.068,0.182v0.112
				c0.029,0.24,0.045,0.555,0.045,0.948c-0.029,0.096-0.029,0.199,0,0.317c-0.029,0.124-0.029,0.262,0,0.405l-0.021,0.022h-1.312
				l-0.021-0.022c-0.031-0.146-0.047-0.283-0.047-0.405v-0.544v-0.09c0-0.413-0.061-0.769-0.18-1.062
				C114.315,79.136,114.444,79.091,114.63,79.091z M112.708,79.385c-0.086,0.291-0.068,0.51,0.045,0.653v0.046
				c0.242,0.242,0.469,0.514,0.678,0.812l0.498,0.407l-0.023,0.044h-2.486l-0.023-0.021v-0.113h-0.066l-0.047-0.046v-0.066
				l0.113-0.112V80.92c0.029-0.252,0.09-0.47,0.182-0.654l0.045-0.046v-0.113c0.186-0.166,0.365-0.309,0.541-0.429h0.113
				c0.141,0,0.223-0.037,0.25-0.112l0.068-0.181l0.066-0.046L112.708,79.385z M94.369,59.303c0.324,0.349,0.633,0.693,0.927,1.04
				c0.092,0.119,0.211,0.241,0.361,0.359l0.475,0.564l0.43,0.521h0.137c0.332-0.272,0.648-0.544,0.949-0.812
				c0.059-0.061,0.119-0.106,0.182-0.137c0.195-0.083,0.338-0.202,0.428-0.359l-0.812-0.317l-0.904-0.227
				c-0.066-0.059-0.129-0.089-0.182-0.089c-0.188-0.121-0.398-0.196-0.633-0.228h-0.137c-0.246-0.12-0.501-0.194-0.768-0.226
				l-0.113-0.091c-0.07-0.027-0.14-0.043-0.203-0.045L94.369,59.303z M94.664,62.014l-0.882-1.037l-0.927-0.974l0.021,1.674
				l0.023,1.716c0.029,0.456,0.043,0.9,0.045,1.334c0.322-0.201,0.631-0.411,0.927-0.634c0.294-0.231,0.572-0.473,0.836-0.723
				l0.023-0.046h0.09c0.22-0.092,0.386-0.248,0.498-0.475L94.664,62.014z M100.046,65.537c0.244,0.244,0.484,0.501,0.725,0.769
				c0.229,0.261,0.457,0.532,0.678,0.813l0.904,1.128c0.332,0.361,0.646,0.724,0.949,1.084c0.361,0.422,0.754,0.857,1.176,1.311
				l1.854,2.125c0.297,0.33,0.59,0.675,0.883,1.037c0.299,0.355,0.592,0.725,0.881,1.106c0.029-0.023,0.045-0.056,0.047-0.091
				c-0.031-0.27-0.047-0.587-0.047-0.948V73.78V73.42v-0.092v-0.677c-0.029-0.117-0.029-0.222,0-0.316v-0.903v-0.046l-0.045-1.129
				v-1.176c-0.055-0.149-0.07-0.263-0.045-0.339h-0.045c-0.021-0.083-0.021-0.144,0-0.18c0.016-0.043,0.037-0.073,0.068-0.091
				c-0.053-0.444-0.076-0.857-0.068-1.242l-0.045-0.903v-0.271v-1.809v-0.091c0.027-0.294-0.018-0.559-0.137-0.789
				c-0.029-0.119-0.113-0.177-0.248-0.183c-0.07,0.002-0.137-0.027-0.203-0.09l-0.25-0.066l-0.359-0.113l-1.176-0.361l-0.838-0.227
				l-0.746-0.227l-0.045-0.022l-0.021-0.065l-0.227-0.047c-0.068,0.001-0.129,0.019-0.182,0.047c-0.119,0.06-0.211,0.12-0.271,0.18
				l-0.158,0.092l-0.113,0.09c-0.182,0.12-0.361,0.286-0.543,0.498l-0.701,0.587l-1.469,1.221c-0.17,0.11-0.314,0.262-0.43,0.451
				l0.023,0.045l0.045,0.136c0.061,0.039,0.105,0.106,0.135,0.204L100.046,65.537z M107.528,58.49
				c-0.336,0.271-0.668,0.549-0.994,0.835c-0.332,0.288-0.658,0.583-0.971,0.882l0.043,0.091c0.09-0.002,0.148,0.016,0.182,0.047
				c0.082,0.056,0.195,0.086,0.338,0.09l0.068,0.046c0.293,0.031,0.559,0.106,0.791,0.226h0.09c0.252,0.062,0.441,0.15,0.566,0.272
				l0.092-0.069v-0.27l-0.047-0.498v-0.046c0.029-0.094,0.029-0.199,0-0.315v-0.227v-0.183V58.74l0.023-0.159l-0.023-0.045
				l-0.045-0.021L107.528,58.49z M82.023,55.598l-0.09-0.022c-0.032,0.005-0.054,0.043-0.067,0.113
				c-0.024,0.066-0.04,0.166-0.045,0.293v0.182l0.068,0.679l0.067,0.723v1.897c-0.058,0.092-0.058,0.203,0,0.34v0.385
				c0.029,0.116,0.029,0.282,0,0.496c-0.059,0.095-0.059,0.262,0,0.497c0.03,0.058,0.03,0.119,0,0.18
				c0,0.361,0.016,0.736,0.045,1.13c-0.028,0.096-0.028,0.216,0,0.362v0.429c0.087-0.062,0.187-0.111,0.294-0.134
				c0.104-0.059,0.157-0.154,0.158-0.295c-0.091-0.21-0.091-0.354,0-0.429v-0.067l-0.067-0.883l-0.023-0.834
				c0-0.422-0.016-0.725-0.044-0.903v-0.498c0.03-0.363,0.03-0.648,0-0.857c0-0.184-0.015-0.364-0.045-0.543v-0.406V56.66v-0.542
				C82.301,55.8,82.216,55.626,82.023,55.598z M84.058,56.095l-0.022,0.046l-0.022,0.021c0.021,0.153,0.014,0.351-0.022,0.586v0.679
				l0.09,1.674v1.94c-0.023,0.343,0.006,0.646,0.09,0.903c0.379-0.264,0.786-0.528,1.223-0.791l0.587-0.429l0.588-0.385l0.022-0.045
				h0.091c0.232-0.119,0.437-0.24,0.609-0.361c0.096-0.089,0.192-0.149,0.294-0.181l0.588-0.385l0.565-0.384
				c0.007-0.061,0.045-0.091,0.113-0.091l1.445-0.949c-0.027-0.06-0.088-0.092-0.181-0.09l-0.542-0.092l-0.859-0.315
				c-0.241-0.091-0.438-0.152-0.588-0.181l-0.271-0.047c-0.07-0.061-0.128-0.091-0.182-0.091c-0.249-0.031-0.452-0.092-0.61-0.182
				l-0.746-0.18c-0.304-0.122-0.575-0.196-0.813-0.228c-0.246-0.092-0.486-0.168-0.723-0.226c-0.067-0.062-0.142-0.09-0.227-0.09
				c-0.101-0.03-0.167-0.061-0.204-0.092c-0.098-0.045-0.172-0.065-0.227-0.067L84.058,56.095z M82.295,65.268l-0.067,0.091
				l-0.091,0.045c-0.027,0.013-0.051,0.043-0.067,0.091c-0.024,0.054-0.031,0.139-0.022,0.248v0.135
				c-0.029,0.244-0.029,0.454,0,0.635v0.358v1.401l0.022,0.993l0.067,1.04v0.405v0.092l0.022,1.106l0.023,1.083l0.09-0.044
				c0.061-0.179,0.15-0.299,0.271-0.361c0.057-0.089,0.086-0.23,0.091-0.43l-0.067-0.451l-0.023-0.452
				c-0.034-0.3-0.056-0.607-0.067-0.927c-0.004-0.316,0.003-0.643,0.022-0.97v-0.859l-0.045-0.586v-0.544v-0.044v-0.182v-0.543
				c-0.061-0.121-0.061-0.24,0-0.361v-0.089c-0.061-0.121-0.061-0.242,0-0.362v-0.359l-0.045-0.112l-0.046-0.047H82.295
				L82.295,65.268z M84.217,64.882l0.046,0.067c0.001,0.133-0.015,0.262-0.046,0.385c-0.028,0.181-0.028,0.33,0,0.452v0.632
				l0.022,0.046l0.023,0.047v1.083c0,0.331,0.03,0.647,0.09,0.949v0.812v0.18v1.989c0.254-0.118,0.496-0.277,0.724-0.477
				c0.24-0.238,0.495-0.435,0.77-0.586l0.496-0.36c0.165-0.164,0.339-0.321,0.521-0.476c0.182-0.149,0.37-0.293,0.565-0.429
				l0.587-0.406c0.18-0.165,0.367-0.321,0.564-0.475c0.197-0.15,0.4-0.293,0.612-0.429l1.084-0.883l1.086-0.881l-0.045-0.066
				c-0.014-0.054,0.001-0.122,0.045-0.205c0.059-0.323,0.074-0.678,0.045-1.062v-0.091l-0.045-1.062v-1.017v-0.09V62.26
				c-0.058-0.229-0.058-0.38,0-0.452c-0.031-0.253-0.045-0.51-0.045-0.768s0.015-0.514,0.045-0.77
				c-0.007-0.188-0.052-0.339-0.135-0.452c-0.104,0.028-0.194,0.079-0.272,0.159L90.91,60l-0.045,0.021
				c-0.181,0.092-0.331,0.197-0.452,0.316l-1.854,1.083l-1.244,0.749l-1.154,0.745l-0.09,0.092
				c-0.154,0.033-0.276,0.094-0.362,0.181c-0.149,0.15-0.346,0.285-0.587,0.406c-0.331,0.152-0.632,0.349-0.904,0.587L84.217,64.882
				L84.217,64.882z M86.794,76.084l0.995,1.425l0.995,0.339l0.973,0.383h0.091c0.244,0.092,0.485,0.168,0.724,0.226
				c0.241,0.062,0.482,0.152,0.724,0.272h0.068l0.045-0.52l0.046-0.544c-0.032-0.175-0.032-0.327,0-0.451v-0.587
				c-0.031-0.238-0.031-0.494,0-0.769v-0.091c0.06-0.305,0.09-0.574,0.09-0.813c-0.061-0.208-0.061-0.39,0-0.542v-0.497
				c-0.045-0.227-0.067-0.46-0.067-0.696c0-0.232,0.022-0.466,0.067-0.701c-0.005-0.207-0.042-0.341-0.112-0.406l-1.107,0.925
				l-1.041,0.902l-0.702,0.588l-1.47,1.22l-0.045,0.046C86.886,75.852,86.797,75.949,86.794,76.084z M79.829,66.823l-0.95,0.611
				c-0.064,0.005-0.109,0.019-0.136,0.046c-0.152,0.121-0.348,0.241-0.587,0.358c-0.293,0.118-0.557,0.275-0.792,0.476
				c0.056,0.145,0.139,0.304,0.249,0.476l1.674,2.213l0.407,0.541c0.301,0.393,0.603,0.77,0.904,1.131
				c0.087,0.094,0.146,0.212,0.18,0.36l0.068-0.021l0.022-0.181c-0.031-0.209-0.031-0.435,0-0.678l-0.022-0.562l0.022-0.432v-0.542
				v-0.135v-1.017l0.045-0.972v-0.589c-0.03-0.089-0.03-0.18,0-0.27v-0.093c-0.03-0.358-0.03-0.676,0-0.948
				c0.035-0.181,0.028-0.301-0.022-0.36c-0.033-0.036-0.078-0.06-0.136-0.066L79.829,66.823z M99.841,81.349h-5.741l-0.023-0.022
				v-0.18l-0.135-0.205c-0.032-0.312-0.018-0.56,0.045-0.745v-0.09c-0.035-0.278,0.056-0.438,0.271-0.475l0.046-0.091
				c0.266-0.007,0.477,0.037,0.634,0.135c0.059,0.029,0.104,0.075,0.136,0.136l0.835,0.227l0.746,0.249l0.746,0.293
				c0.242,0.03,0.5,0.089,0.77,0.181l0.045,0.021l0.113,0.113l1.334,0.358c0.061,0.028,0.121,0.046,0.18,0.047l0.023,0.022
				L99.841,81.349z"/>
		</g>
	</g>
	<g display="inline">
		<path fill="#B8E300" d="M163.748,10.896l-2.551,5.949h5L163.748,10.896z M144.648,22.446h-1.301V9.395l5.25,0.102
			c0.5,0.066,1.051,0.267,1.65,0.6c0.6,0.302,1.082,0.769,1.449,1.4c0.301,0.666,0.449,1.383,0.449,2.148
			c0,1.102-0.365,2.032-1.1,2.801c-0.768,0.767-1.668,1.149-2.699,1.149l3.648,4.851h-1.6l-4.449-5.949l2.299-0.051l1.15-0.352
			c0.434-0.199,0.783-0.531,1.051-1c0.299-0.531,0.449-1.064,0.449-1.6c0-0.367-0.117-0.784-0.352-1.25l-0.898-1.101
			c-0.334-0.233-0.768-0.385-1.301-0.451l-3.699-0.101v11.854H144.648z M127.347,9.396h1.301l0.1,9.399l0.5,1.301
			c0.232,0.365,0.602,0.699,1.102,1c0.533,0.232,1.018,0.351,1.449,0.351c0.5,0,0.934-0.116,1.301-0.351
			c0.434-0.2,0.816-0.483,1.148-0.851l0.5-1.302l0.201-1.648V9.396h1.25l-0.15,10c-0.166,0.602-0.434,1.149-0.801,1.649
			c-0.398,0.5-0.898,0.898-1.5,1.2c-0.699,0.268-1.35,0.399-1.949,0.399c-1.434,0-2.467-0.384-3.1-1.149
			c-0.635-0.767-1.018-1.45-1.15-2.052l-0.199-2.148V9.396H127.347z M168.648,22.446l-1.9-4.398h-6.049l-1.9,4.398h-1.4l5.65-13.051
			h1.4l5.6,13.051H168.648z M8.799,16.845l-2.45-5.949l-2.55,5.949H8.799z M5.648,9.396h1.4l5.6,13.051h-1.399l-1.899-4.398H3.3
			l-1.9,4.398H0L5.648,9.396z M23.598,10.696l-3.7-0.102v11.852h-1.3V9.395l5.25,0.102c0.5,0.066,1.05,0.267,1.649,0.6
			c0.601,0.302,1.083,0.769,1.45,1.4c0.3,0.666,0.449,1.383,0.449,2.148c0,1.102-0.366,2.032-1.1,2.801
			c-0.768,0.767-1.667,1.149-2.7,1.149l3.649,4.851h-1.601l-4.449-5.949l2.3-0.051l1.149-0.352c0.434-0.199,0.783-0.531,1.051-1
			c0.3-0.531,0.449-1.064,0.449-1.6c0-0.367-0.116-0.784-0.351-1.25l-0.899-1.101C24.565,10.912,24.132,10.762,23.598,10.696z
			 M69.148,9.396h1.301v13.051h-1.301V9.396z M83.598,9.396v1.199h-3v11.852h-1.3V10.595h-3V9.396H83.598z M45.998,12.646h-1.449
			c-0.4-0.601-1.051-1.134-1.95-1.601c-0.867-0.434-1.75-0.649-2.649-0.649c-1.399,0-2.667,0.565-3.801,1.699
			c-1.066,1.033-1.6,2.283-1.6,3.75c0,1.566,0.532,2.885,1.6,3.951c1.101,1.1,2.4,1.647,3.9,1.647c0.866,0,1.717-0.231,2.55-0.698
			c0.867-0.435,1.532-1,2-1.699h1.5c-0.565,1.065-1.417,1.949-2.55,2.647c-1.067,0.635-2.233,0.951-3.5,0.951
			c-1.968,0-3.583-0.649-4.851-1.951c-1.333-1.231-2-2.85-2-4.851c0-1.833,0.667-3.417,2-4.75c1.333-1.267,2.917-1.899,4.75-1.899
			c1.467,0,2.566,0.25,3.3,0.75c0.7,0.399,1.316,0.867,1.851,1.399C45.532,11.78,45.831,12.211,45.998,12.646z M60.648,15.146v-5.75
			h1.301v13.051h-1.301v-6.102h-6.75v6.102h-1.3V9.396h1.3v5.75H60.648z M121.398,10.595h-3v11.852h-1.301V10.595h-3V9.396h7.301
			V10.595z M102.198,10.595V9.396h7.3v1.199h-3v11.852h-1.301V10.595H102.198z M96.398,15.295v1.2h-5.6v4.801h5.85v1.147h-7.149
			V9.395h7.149v1.199h-5.85v4.7L96.398,15.295L96.398,15.295z"/>
	</g>
	<g id="Layer_2">
		<g display="inline">
			<g>
				<polygon fill="#DCD8CD" points="-239.485,431.873 -185.515,431.873 -185.492,431.893 -185.492,485.891 -239.485,485.914 
					-239.507,485.891 -239.507,431.893 				"/>
			</g>
			<g>
				<path fill="#5A5341" d="M-204.583,434.497c2.602-0.513,5.195-0.771,7.781-0.771c3.67,0.004,7.341,0.517,11.016,1.539
					l0.361,0.091l0.022,5.272l-0.045,0.022l-0.182-0.093l-0.181-0.09c-2.498-0.935-5.212-1.4-8.144-1.401
					c-0.649-0.001-1.313,0.021-1.989,0.065c-0.679,0.046-1.365,0.112-2.059,0.205c-5.718,0.771-10.642,2.6-14.771,5.477
					c-4.126,2.875-7.429,6.781-9.907,11.724c-2.604,5.152-4.188,10.192-4.75,15.116c-0.572,4.923-0.12,9.697,1.357,14.322
					l-0.022,0.026h-10.269c-0.621-2.098-1.006-4.277-1.153-6.539c-0.364-4.38-0.115-8.642,0.746-12.787
					c0.874-4.145,2.358-8.174,4.457-12.086c2.207-4.181,4.975-7.756,8.301-10.727c3.324-2.96,7.206-5.312,11.648-7.062
					C-209.781,435.783-207.187,435.014-204.583,434.497z M-211.324,453.393c3.581-2.179,7.736-3.271,12.463-3.281l1.356,0.047
					l1.403,0.091c4.587,0.424,8.033,1.51,10.337,3.259c0.121,0.091,0.242,0.196,0.361,0.317V471
					c-0.062,0.07-0.107,0.159-0.136,0.271c-0.092,0.134-0.168,0.262-0.226,0.387c-0.906,1.449-1.979,2.774-3.211,3.98l-0.34,0.339
					l-0.159,0.158c-2.163,1.715-4.5,2.575-7.012,2.581c-0.432-0.006-0.868-0.035-1.312-0.092c-0.44-0.049-0.885-0.126-1.335-0.227
					l-5.134-2.354l-2.172-1.675l0.022-0.047l1.244-0.045l-0.362-0.498l0.047-0.203v-0.362l0.564-0.203l0.565,0.203l0.18-1.312
					l0.566-0.158l4.343,1.269c1.736-0.251,3.147-1.05,4.229-2.398c2.046-2.739,3.147-5.448,3.302-8.124
					c0.162-2.686-0.622-5.316-2.353-7.899l-0.813-0.021c-2.729,0.005-5.323,0.676-7.78,2.014
					c-5.224,2.932-8.661,6.562-10.315,10.886c-1.645,4.325-1.494,9.32,0.453,14.981c0.214,0.622,0.448,1.227,0.702,1.81
					c0.245,0.59,0.509,1.156,0.792,1.698l-0.022,0.045h-9.273c-2.25-3.592-3.372-7.288-3.37-11.089
					c0.015-3.8,1.146-7.706,3.393-11.723C-217.899,458.842-214.898,455.577-211.324,453.393z"/>
			</g>
		</g>
		<g display="inline">
			<path fill="#B8E300" d="M-198.603,492.253l-2.55,5.95h5L-198.603,492.253z M-173.302,490.753h1.3v13.05h-1.3V490.753z
				 M-179.703,490.753v1.2h-5.3v4.698h5.149v1.199h-5.149v5.95h-1.3v-13.05L-179.703,490.753L-179.703,490.753z M-154.103,494.003
				c-0.399-0.602-1.05-1.134-1.949-1.602c-0.866-0.434-1.75-0.648-2.65-0.648c-1.398,0-2.666,0.565-3.8,1.7
				c-1.065,1.032-1.601,2.282-1.601,3.75c0,1.564,0.533,2.883,1.601,3.948c1.102,1.102,2.399,1.649,3.899,1.649
				c0.866,0,1.718-0.232,2.551-0.7c0.865-0.434,1.532-1,2-1.699h1.5c-0.566,1.066-1.417,1.949-2.551,2.649
				c-1.065,0.634-2.232,0.95-3.5,0.95c-1.967,0-3.584-0.65-4.852-1.95c-1.333-1.232-2-2.85-2-4.85c0-1.834,0.667-3.417,2-4.75
				c1.334-1.269,2.917-1.9,4.75-1.9c1.468,0,2.567,0.25,3.302,0.75c0.698,0.4,1.315,0.866,1.851,1.4
				c0.434,0.433,0.732,0.865,0.899,1.3L-154.103,494.003L-154.103,494.003z M-141.552,490.753h1.399l5.601,13.05h-1.4l-1.898-4.399
				h-6.051l-1.899,4.399h-1.4L-141.552,490.753z M-138.403,498.204l-2.45-5.95l-2.55,5.95H-138.403z M-203.552,503.803h-1.4
				l5.65-13.05h1.399l5.601,13.05h-1.4l-1.899-4.399h-6.05L-203.552,503.803z M-236.253,493.253c-0.5,0.398-0.95,1.017-1.351,1.85
				c-0.3,0.566-0.449,1.269-0.449,2.103c0,1.666,0.55,3,1.649,4c1.133,1.064,2.5,1.6,4.101,1.6c1.199,0,2.282-0.365,3.25-1.1
				c1.032-0.733,1.699-1.635,2-2.7h-7.301v-1.2h8.899c0,1.733-0.699,3.2-2.1,4.4c-1.333,1.198-2.934,1.8-4.801,1.8
				c-1.935,0-3.583-0.65-4.949-1.95c-1.4-1.333-2.101-2.95-2.101-4.85c0-0.769,0.185-1.603,0.55-2.5
				c0.333-0.802,0.851-1.552,1.551-2.25c0.633-0.603,1.366-1.084,2.199-1.45c0.899-0.3,1.815-0.45,2.75-0.45
				c1.399,0,2.518,0.25,3.351,0.75l1.851,1.5c0.366,0.366,0.667,0.816,0.899,1.351h-1.5c-0.466-0.732-1.117-1.301-1.95-1.698
				c-0.866-0.468-1.75-0.7-2.649-0.7c-0.699,0-1.417,0.133-2.149,0.398C-235.103,492.386-235.686,492.753-236.253,493.253z
				 M-216.403,497.853l2.3-0.05l1.149-0.35c0.434-0.2,0.783-0.534,1.051-1c0.3-0.534,0.449-1.067,0.449-1.603
				c0-0.365-0.116-0.782-0.35-1.25l-0.9-1.1c-0.333-0.233-0.767-0.384-1.3-0.45l-3.7-0.1v11.85h-1.3v-13.05l5.25,0.1
				c0.5,0.066,1.05,0.269,1.649,0.603c0.601,0.3,1.083,0.767,1.45,1.397c0.3,0.667,0.449,1.385,0.449,2.15
				c0,1.1-0.366,2.033-1.1,2.8c-0.768,0.768-1.667,1.15-2.7,1.15l3.649,4.85h-1.601L-216.403,497.853z"/>
		</g>
	</g>
</g>
<g id="Layer_2_1_">
	<g>
		<g>
			<polygon fill="#DCD8CD" points="76.909,27.194 130.878,27.194 130.901,27.213 130.901,81.211 76.909,81.235 76.885,81.211 
				76.885,27.213 			"/>
		</g>
		<g>
			<path fill="#5A5341" d="M111.809,29.818c2.602-0.513,5.195-0.771,7.781-0.771c3.67,0.004,7.342,0.517,11.016,1.539l0.361,0.091
				l0.023,5.272l-0.045,0.022l-0.182-0.093l-0.182-0.09c-2.498-0.935-5.211-1.4-8.143-1.401c-0.65-0.001-1.314,0.021-1.99,0.065
				c-0.678,0.046-1.365,0.112-2.059,0.205c-5.717,0.771-10.641,2.6-14.77,5.477c-4.127,2.875-7.43,6.781-9.908,11.724
				c-2.604,5.152-4.188,10.192-4.75,15.116c-0.572,4.923-0.119,9.697,1.357,14.322L90.3,81.323H80.03
				c-0.621-2.098-1.006-4.277-1.152-6.539c-0.365-4.38-0.115-8.642,0.746-12.787c0.873-4.145,2.357-8.174,4.457-12.086
				c2.207-4.181,4.975-7.756,8.301-10.727c3.324-2.96,7.205-5.312,11.648-7.062C106.612,31.104,109.206,30.334,111.809,29.818z
				 M105.069,48.713c3.58-2.179,7.736-3.271,12.463-3.281l1.355,0.047l1.404,0.091c4.586,0.424,8.033,1.51,10.336,3.259
				c0.121,0.091,0.242,0.196,0.361,0.317v17.175c-0.062,0.07-0.107,0.159-0.135,0.271c-0.092,0.134-0.168,0.262-0.227,0.387
				c-0.906,1.449-1.979,2.774-3.211,3.98l-0.34,0.339l-0.158,0.158c-2.164,1.715-4.5,2.575-7.012,2.581
				c-0.432-0.006-0.869-0.035-1.312-0.092c-0.441-0.049-0.885-0.126-1.336-0.227l-5.133-2.354l-2.172-1.675l0.021-0.047l1.244-0.045
				l-0.361-0.498l0.047-0.203v-0.362l0.564-0.203l0.564,0.203l0.18-1.312l0.566-0.158l4.344,1.269
				c1.736-0.251,3.146-1.05,4.229-2.398c2.047-2.739,3.148-5.448,3.303-8.124c0.162-2.686-0.623-5.316-2.354-7.899l-0.812-0.021
				c-2.73,0.005-5.324,0.676-7.781,2.014c-5.223,2.932-8.66,6.562-10.314,10.886c-1.645,4.325-1.494,9.32,0.453,14.981
				c0.213,0.622,0.447,1.227,0.701,1.81c0.246,0.59,0.51,1.156,0.793,1.698l-0.023,0.045h-9.273
				c-2.25-3.592-3.371-7.288-3.369-11.089c0.014-3.8,1.146-7.706,3.393-11.723C98.495,54.162,101.495,50.898,105.069,48.713z"/>
		</g>
	</g>
	<g>
		<path fill="#B8E300" d="M117.686,87.442l-2.549,5.95h5L117.686,87.442z M142.987,85.942h1.301v13.05h-1.301V85.942z
			 M136.587,85.942v1.2h-5.301v4.698h5.15v1.199h-5.15v5.95h-1.299V85.94L136.587,85.942L136.587,85.942z M162.186,89.192
			c-0.398-0.602-1.049-1.134-1.949-1.602c-0.865-0.434-1.75-0.648-2.65-0.648c-1.398,0-2.666,0.565-3.799,1.7
			c-1.066,1.032-1.602,2.282-1.602,3.75c0,1.564,0.533,2.883,1.602,3.948c1.102,1.102,2.398,1.649,3.898,1.649
			c0.867,0,1.719-0.232,2.551-0.7c0.865-0.434,1.533-1,2-1.699h1.5c-0.566,1.066-1.416,1.949-2.551,2.649
			c-1.064,0.634-2.232,0.95-3.5,0.95c-1.967,0-3.584-0.65-4.852-1.95c-1.332-1.232-2-2.85-2-4.85c0-1.834,0.668-3.417,2-4.75
			c1.334-1.269,2.918-1.9,4.75-1.9c1.469,0,2.568,0.25,3.303,0.75c0.697,0.4,1.314,0.866,1.85,1.4c0.434,0.433,0.732,0.865,0.9,1.3
			L162.186,89.192L162.186,89.192z M174.737,85.942h1.4l5.6,13.05h-1.4l-1.898-4.399h-6.051l-1.898,4.399h-1.4L174.737,85.942z
			 M177.887,93.393l-2.451-5.95l-2.549,5.95H177.887z M112.737,98.991h-1.4l5.65-13.05h1.4l5.6,13.05h-1.4l-1.898-4.399h-6.051
			L112.737,98.991z M80.036,88.442c-0.5,0.398-0.949,1.017-1.35,1.85c-0.301,0.566-0.449,1.269-0.449,2.103c0,1.666,0.549,3,1.648,4
			c1.133,1.064,2.5,1.6,4.102,1.6c1.199,0,2.281-0.365,3.25-1.1c1.031-0.733,1.699-1.635,2-2.7h-7.301v-1.2h8.898
			c0,1.733-0.699,3.2-2.1,4.4c-1.332,1.198-2.934,1.8-4.801,1.8c-1.934,0-3.582-0.65-4.949-1.95c-1.4-1.333-2.1-2.95-2.1-4.85
			c0-0.769,0.184-1.603,0.549-2.5c0.334-0.802,0.852-1.552,1.551-2.25c0.633-0.603,1.367-1.084,2.199-1.45
			c0.9-0.3,1.816-0.45,2.75-0.45c1.4,0,2.518,0.25,3.352,0.75l1.85,1.5c0.367,0.366,0.668,0.816,0.9,1.351h-1.5
			c-0.467-0.732-1.117-1.301-1.951-1.698c-0.865-0.468-1.75-0.7-2.648-0.7c-0.699,0-1.418,0.133-2.15,0.398
			C81.186,87.574,80.604,87.942,80.036,88.442z M99.887,93.041l2.299-0.05l1.15-0.35c0.434-0.2,0.783-0.534,1.051-1
			c0.299-0.534,0.449-1.067,0.449-1.603c0-0.365-0.117-0.782-0.35-1.25l-0.9-1.1c-0.334-0.233-0.768-0.384-1.301-0.45l-3.699-0.1
			v11.85h-1.301V85.94l5.25,0.1c0.5,0.066,1.051,0.269,1.65,0.603c0.6,0.3,1.082,0.767,1.449,1.397
			c0.301,0.667,0.449,1.385,0.449,2.15c0,1.1-0.365,2.033-1.1,2.8c-0.768,0.768-1.666,1.15-2.699,1.15l3.648,4.85h-1.6
			L99.887,93.041z"/>
	</g>
</g>
</svg>
