<?xml version="1.0" encoding="utf-8"?>
<!-- Generator: Adobe Illustrator 15.0.0, SVG Export Plug-In . SVG Version: 6.00 Build 0)  -->
<!DOCTYPE svg PUBLIC "-//W3C//DTD SVG 1.1//EN" "http://www.w3.org/Graphics/SVG/1.1/DTD/svg11.dtd">
<svg version="1.1" id="Layer_1" xmlns="http://www.w3.org/2000/svg" xmlns:xlink="http://www.w3.org/1999/xlink" x="0px" y="0px"
	 width="285.528px" height="38.889px" viewBox="0 0 285.528 38.889" enable-background="new 0 0 285.528 38.889"
	 xml:space="preserve">
<g>
	<path fill-rule="evenodd" clip-rule="evenodd" fill="#B6D433" d="M254.314,6.676c0.066,0.067,0.1,0.15,0.1,0.25v16.9
		c0,0.1-0.033,0.184-0.1,0.25c-0.101,0.066-0.2,0.116-0.301,0.149h-1.649c-0.134-0.033-0.233-0.083-0.3-0.149
		c-0.067-0.066-0.101-0.15-0.101-0.25v-16.9c0-0.1,0.033-0.183,0.101-0.25c0.066-0.1,0.166-0.15,0.3-0.15h1.649
		C254.114,6.526,254.214,6.576,254.314,6.676z M240.064,9.476c-1.034-0.333-2.717-0.5-5.051-0.5h-0.8v12.851h1.5
		c2.267-0.033,3.851-0.184,4.75-0.45c1.167-0.367,2.101-1.05,2.8-2.05c0.667-1,1.017-2.233,1.051-3.7c0-1.567-0.384-2.883-1.15-3.95
		C242.397,10.576,241.364,9.842,240.064,9.476z M245.364,10.276c0,0.033,0,0.066,0,0.1c0.934,1.466,1.416,3.216,1.45,5.25
		c-0.034,1.733-0.417,3.283-1.15,4.65c-0.767,1.333-1.767,2.333-3,3c-1.233,0.634-2.934,0.95-5.1,0.95h-5.4
		c-0.1-0.033-0.184-0.083-0.25-0.149c-0.1-0.066-0.15-0.15-0.15-0.25v-16.9c0-0.1,0.051-0.183,0.15-0.25
		c0.066-0.1,0.15-0.15,0.25-0.15h3.5c2.566,0,4.45,0.217,5.65,0.65C243.014,7.776,244.364,8.809,245.364,10.276z M268.864,8.576
		c-1.167,0-2.283,0.3-3.351,0.9c-1.066,0.6-1.883,1.434-2.449,2.5c-0.601,1.034-0.9,2.184-0.9,3.45c0,1.9,0.65,3.5,1.95,4.8
		c0.033,0.034,0.066,0.083,0.1,0.15c1.3,1.233,2.851,1.85,4.65,1.85c1.233,0,2.383-0.316,3.45-0.95
		c0.467-0.266,0.883-0.566,1.25-0.899c0.467-0.467,0.866-0.983,1.199-1.55c0.567-1.033,0.867-2.183,0.9-3.45
		c-0.033-1.267-0.333-2.417-0.9-3.45c-0.6-1.033-1.416-1.85-2.449-2.45C271.214,8.876,270.064,8.576,268.864,8.576z M275.514,8.826
		c1.768,1.767,2.65,3.95,2.65,6.55c0,2.066-0.583,3.9-1.75,5.5c-0.267,0.366-0.566,0.716-0.9,1.05c-1.8,1.8-3.982,2.7-6.55,2.7
		c-2.633,0-4.85-0.9-6.649-2.7c-0.367-0.334-0.684-0.684-0.95-1.05c-1.101-1.5-1.684-3.2-1.75-5.1v-0.65
		c0.033-1.567,0.433-3.034,1.2-4.4c0.833-1.433,1.967-2.566,3.399-3.4c1.4-0.833,2.917-1.233,4.55-1.2
		C271.431,6.126,273.681,7.026,275.514,8.826z M216.014,6.926v10.2c0,1.167,0.034,1.9,0.101,2.2c0.066,0.6,0.233,1.1,0.5,1.5
		c0.267,0.367,0.666,0.7,1.2,1c0.033,0,0.05,0.016,0.05,0.05c0.566,0.233,1.133,0.35,1.7,0.35c0.533-0.033,1.033-0.134,1.5-0.3
		h-0.051c0.434-0.233,0.801-0.517,1.101-0.85c0-0.033,0.017-0.05,0.05-0.05c0.3-0.4,0.533-0.867,0.7-1.4
		c0.1-0.4,0.149-1.233,0.149-2.5v-10.2c0-0.1,0.051-0.183,0.15-0.25c0.066-0.1,0.15-0.15,0.25-0.15h1.7c0.1,0,0.2,0.05,0.3,0.15
		c0.066,0.067,0.1,0.15,0.1,0.25v10.2c0,1.566-0.149,2.833-0.449,3.8c0,0.033-0.017,0.067-0.051,0.1
		c-0.333,0.933-0.949,1.767-1.85,2.5c-0.967,0.734-2.116,1.101-3.45,1.101c-1.467,0-2.717-0.333-3.75-1
		c-1.066-0.733-1.767-1.667-2.1-2.8c-0.033-0.033-0.033-0.066,0-0.1c-0.233-0.7-0.351-1.9-0.351-3.6v-10.2
		c0-0.1,0.051-0.183,0.15-0.25c0.066-0.1,0.15-0.15,0.25-0.15h1.7c0.1,0,0.2,0.05,0.3,0.15
		C215.98,6.743,216.014,6.826,216.014,6.926z M208.814,6.676c0.066,0.067,0.116,0.15,0.149,0.25v1.65
		c-0.033,0.1-0.083,0.2-0.149,0.3c-0.067,0.066-0.15,0.1-0.25,0.1h-3.351v14.851c-0.033,0.1-0.083,0.184-0.149,0.25
		c-0.067,0.066-0.15,0.116-0.25,0.149h-1.75c-0.101-0.033-0.184-0.083-0.25-0.149c-0.101-0.066-0.15-0.15-0.15-0.25V8.976h-3.35
		c-0.134,0-0.233-0.033-0.301-0.1c-0.066-0.1-0.1-0.2-0.1-0.3v-1.65c0-0.1,0.033-0.183,0.1-0.25c0.067-0.1,0.167-0.15,0.301-0.15
		h9.25C208.664,6.526,208.747,6.576,208.814,6.676z M194.789,8.676c0.064,0.055,0.106,0.122,0.125,0.2
		c0.008,0.086-0.009,0.17-0.05,0.25l0.024-0.025c-0.04,0.083-0.099,0.149-0.175,0.2l-1.5,0.85c-0.078,0.043-0.161,0.06-0.25,0.05
		c-0.086-0.018-0.16-0.06-0.225-0.125c-0.799-0.74-1.482-1.232-2.05-1.475l-0.025-0.025c-0.572-0.264-1.197-0.397-1.875-0.4
		c-0.854,0-1.555,0.191-2.1,0.575h0.024c-0.51,0.366-0.768,0.816-0.774,1.35c-0.003,0.317,0.081,0.633,0.25,0.95
		c0.221,0.305,0.579,0.646,1.074,1.025c0.3,0.226,1.267,0.792,2.9,1.7c1.999,1.083,3.366,2.057,4.1,2.925h-0.024l0.024,0.025
		c0.779,0.869,1.171,1.752,1.176,2.65c0.007,1.291-0.618,2.399-1.875,3.325l0.024-0.051c-0.029,0.053-0.07,0.094-0.125,0.125
		c-1.297,0.928-2.863,1.387-4.7,1.375c-1.41,0.002-2.693-0.266-3.85-0.8h-0.025c-0.031-0.01-0.065-0.026-0.1-0.05h0.025
		c-0.246-0.123-0.488-0.266-0.726-0.425c-0.751-0.498-1.459-1.173-2.125-2.025c-0.042-0.045-0.083-0.095-0.125-0.15v-0.025
		c-0.047-0.067-0.071-0.142-0.075-0.225c0-0.082,0.024-0.157,0.075-0.225v0.025c0.029-0.06,0.071-0.102,0.125-0.125l0.025-0.025
		h0.024l1.625-0.725h-0.024c0.09-0.047,0.181-0.064,0.274-0.05h0.025c0.084,0.032,0.151,0.09,0.2,0.175v-0.025
		c0.058,0.079,0.116,0.154,0.175,0.225c1.233,1.581,2.65,2.372,4.25,2.375c0.718-0.002,1.41-0.135,2.075-0.4
		c0.607-0.258,1.074-0.591,1.399-1c0.307-0.392,0.465-0.809,0.476-1.25c0.004-0.516-0.213-1.007-0.65-1.475
		c-0.045-0.04-0.078-0.082-0.1-0.125c-0.733-0.71-1.983-1.568-3.75-2.575c-1.929-1.062-3.129-1.845-3.601-2.35
		c-0.125-0.117-0.241-0.234-0.35-0.35c-0.622-0.75-0.931-1.541-0.925-2.375c-0.01-0.799,0.232-1.524,0.725-2.175
		c0.071-0.08,0.146-0.155,0.226-0.225c0.474-0.517,1.106-0.925,1.899-1.225l0.025-0.025c0.879-0.368,1.829-0.552,2.85-0.55
		c1.104,0.002,2.138,0.202,3.101,0.6C192.849,6.959,193.799,7.659,194.789,8.676z"/>
	<path fill-rule="evenodd" clip-rule="evenodd" fill="#DCD8CD" d="M167.814,11.301c-1.253-0.984-2.687-1.476-4.301-1.475
		c-1.646-0.002-3.097,0.473-4.35,1.425c-1.208,0.928-1.983,2.12-2.325,3.575h13.25C169.778,13.435,169.021,12.259,167.814,11.301z
		 M172.214,13.501c0.302,0.973,0.451,2.115,0.45,3.425c0.001,0.029-0.007,0.054-0.025,0.075c-0.021,0.018-0.046,0.026-0.074,0.025
		h-15.75c0.036,1.43,0.711,2.688,2.024,3.775c1.344,1.117,2.853,1.676,4.525,1.675c1.282,0.004,2.499-0.321,3.649-0.975v-0.025
		c1.177-0.621,2.011-1.471,2.5-2.55c0.013-0.012,0.029-0.021,0.051-0.025c0.015-0.014,0.031-0.022,0.05-0.025h2.45
		c0.019,0.001,0.035,0.01,0.05,0.025c0.022,0.013,0.039,0.029,0.05,0.05c0.007,0.017,0.007,0.033,0,0.05
		c-0.61,1.687-1.728,3.07-3.35,4.149c-1.615,1.081-3.365,1.623-5.25,1.625c-2.562,0-4.754-0.841-6.575-2.524
		c-1.819-1.654-2.728-3.696-2.726-6.125c-0.002-2.396,0.89-4.438,2.676-6.125c1.787-1.65,3.979-2.475,6.574-2.475
		c1.385-0.003,2.685,0.264,3.9,0.8c1.244,0.539,2.286,1.297,3.125,2.275C171.385,11.55,171.943,12.517,172.214,13.501z
		 M137.614,2.126h2.399c0.029-0.001,0.055,0.007,0.075,0.025c0.019,0.021,0.026,0.046,0.025,0.075v22.05
		c0.001,0.029-0.007,0.055-0.025,0.075c-0.021,0.019-0.046,0.026-0.075,0.025h-2.399c-0.029,0.001-0.055-0.007-0.075-0.025
		c-0.019-0.021-0.026-0.046-0.025-0.075V2.226c-0.001-0.029,0.007-0.054,0.025-0.075C137.56,2.133,137.585,2.125,137.614,2.126z
		 M146.239,2.151c0.021-0.018,0.046-0.026,0.075-0.025h2.399c0.029-0.001,0.055,0.007,0.075,0.025
		c0.019,0.021,0.026,0.046,0.025,0.075v22.05c0.001,0.029-0.007,0.055-0.025,0.075c-0.021,0.019-0.046,0.026-0.075,0.025h-2.399
		c-0.029,0.001-0.055-0.007-0.075-0.025c-0.019-0.021-0.026-0.046-0.025-0.075V2.226C146.213,2.197,146.221,2.172,146.239,2.151z
		 M128.164,10.651c-1.253-0.984-2.686-1.476-4.3-1.475c-1.647-0.002-3.098,0.473-4.351,1.425c-1.208,0.928-1.983,2.12-2.324,3.575
		h13.25C130.129,12.784,129.37,11.609,128.164,10.651z M130.889,9.951c0.847,0.95,1.404,1.917,1.676,2.9
		c0.301,0.974,0.451,2.115,0.449,3.425c0.002,0.029-0.007,0.054-0.024,0.075c-0.021,0.018-0.046,0.027-0.075,0.025h-15.75
		c0.036,1.429,0.711,2.688,2.025,3.775c1.344,1.117,2.852,1.675,4.524,1.675c1.282,0.004,2.499-0.322,3.65-0.976v-0.025
		c1.177-0.621,2.01-1.471,2.5-2.55c0.013-0.012,0.029-0.021,0.05-0.025c0.015-0.014,0.032-0.022,0.05-0.025h2.45
		c0.019,0.002,0.035,0.01,0.05,0.025c0.022,0.013,0.039,0.029,0.05,0.05c0.008,0.017,0.008,0.033,0,0.05
		c-0.61,1.687-1.727,3.07-3.35,4.15c-1.615,1.081-3.365,1.622-5.25,1.625c-2.562,0-4.754-0.842-6.575-2.525
		c-1.617-1.47-2.517-3.245-2.7-5.325c-1.479,0.029-2.987,0.062-4.524,0.1c-5.467,0.133-8.55,0.2-9.25,0.2s-1.084,0.017-1.15,0.05
		h0.05v0.1l0.5,1.85c2.067,7.733,7.233,12.7,15.5,14.9c6.301,1.634,14.351,1.634,24.15,0c0.033,0,0.066,0,0.1,0
		c0.034,0.034,0.067,0.067,0.101,0.101c0,0.033,0,0.066,0,0.1c-0.033,0.066-0.217,0.166-0.55,0.3
		c-0.301,0.167-0.817,0.434-1.551,0.8c-0.733,0.367-2.1,0.768-4.1,1.2c-2.033,0.4-3.767,0.616-5.2,0.65
		c-1.399,0.033-2.184,0.05-2.35,0.05c-0.167,0.033-0.367,0.05-0.601,0.05c-7.466,0.3-13.767-1.2-18.899-4.5
		c-5.4-3.433-8.934-8.533-10.601-15.3l-0.149-0.6c-0.167,0.133-0.684,0.117-1.55-0.05c-0.834-0.2-1.384-0.467-1.65-0.8
		c-0.233-0.367-0.35-0.6-0.35-0.7c0-0.133,0-0.217,0-0.25c-0.034-0.067-0.051-0.133-0.051-0.2v-0.05c0-0.067,0.017-0.117,0.051-0.15
		c0.033-0.067,0.066-0.1,0.1-0.1c0.033-0.033,0.083-0.033,0.15,0h0.05c0.033,0,0.083,0,0.149,0c0.034,0,0.067,0,0.101,0h0.1
		c0.9,0,1.601,0,2.101,0c0.433,0,0.733,0,0.899,0c0.033-2.267,0.033-4.1,0-5.5c-0.066-1.167-0.133-2.033-0.2-2.6l-0.05-0.4
		c-0.066,0.033-0.149,0.066-0.25,0.1c-0.066,0-0.1-0.017-0.1-0.05c-0.066-0.033-0.117-0.05-0.15-0.05
		c-0.033-0.067-0.05-0.117-0.05-0.15c-0.134-0.7-0.217-1.167-0.25-1.4c-0.066-0.333-0.017-0.683,0.15-1.05
		c0.133-0.433,0.416-0.7,0.85-0.8h0.35c1.167,0.1,1.9,0.533,2.2,1.3c0.134,0.3,0.217,0.633,0.25,1l0.101,3.25
		c0.033,0.267,0.083,0.933,0.149,2c0.066,1.033,0.084,2.083,0.05,3.15c-0.033,0.733-0.05,1.133-0.05,1.2
		c0.033,0.1,0.066,0.1,0.101,0l15.399,0.15c0.264-1.843,1.122-3.452,2.575-4.825c1.787-1.65,3.979-2.475,6.575-2.475
		c1.384-0.003,2.684,0.264,3.899,0.8C129.008,8.215,130.05,8.973,130.889,9.951z M85.514,11.426
		c-0.066-0.662-0.466-1.203-1.199-1.625l-0.025-0.025c-0.005-0.021-0.014-0.037-0.025-0.05c-0.793-0.407-1.81-0.607-3.05-0.6
		c-1.039,0.006-1.923,0.24-2.649,0.7c-0.773,0.471-1.157,1.054-1.15,1.75c-0.009,0.89,0.424,1.54,1.3,1.95
		c0.811,0.367,2.177,0.734,4.101,1.1c1.912,0.402,3.479,0.935,4.699,1.6c1.196,0.621,1.796,1.571,1.801,2.85
		c-0.004,1.469-0.754,2.669-2.25,3.6c-1.575,0.94-3.575,1.407-6,1.4c-2.16,0.006-4.011-0.494-5.551-1.5
		c-1.421-0.944-2.171-2.044-2.25-3.3h3.2c0.072,0.81,0.556,1.527,1.45,2.15c0.926,0.628,2.075,0.944,3.45,0.95
		c1.374-0.007,2.508-0.29,3.399-0.851c0.941-0.535,1.407-1.234,1.4-2.1c0.008-0.988-0.476-1.722-1.45-2.2
		c-0.946-0.469-2.113-0.835-3.5-1.1c-1.397-0.234-2.431-0.45-3.1-0.65c-0.683-0.153-1.333-0.403-1.95-0.75
		c-0.578-0.354-1.045-0.787-1.4-1.3c-0.338-0.535-0.505-1.084-0.5-1.65c0.006-1.27,0.689-2.32,2.051-3.15
		c1.439-0.808,3.206-1.208,5.3-1.2c1.928-0.007,3.594,0.41,5,1.25c1.279,0.78,1.962,1.696,2.05,2.75H85.514z M96.114,4.026h0.2
		l-0.051-0.05L96.114,4.026z M48.164,7.976v16.3c0.001,0.029-0.007,0.055-0.025,0.075c-0.021,0.019-0.046,0.026-0.074,0.025h-2.25
		c-0.029,0.001-0.055-0.007-0.075-0.025c-0.019-0.021-0.026-0.046-0.025-0.075v-2.725c-0.656,0.988-1.539,1.764-2.649,2.325
		c-1.216,0.603-2.565,0.903-4.051,0.899c-1.383,0.003-2.75-0.28-4.1-0.85c-1.379-0.607-2.437-1.299-3.175-2.075
		c-0.744-0.782-1.319-1.682-1.726-2.7c-0.368-0.974-0.552-2.016-0.55-3.125c-0.002-1.008,0.197-2.017,0.601-3.025v-0.025
		c0.438-0.976,1.08-1.868,1.925-2.675c0.806-0.81,1.848-1.485,3.125-2.025h0.024c1.242-0.502,2.517-0.752,3.825-0.75
		c1.484-0.003,2.852,0.28,4.101,0.85c1.131,0.521,2.015,1.288,2.649,2.3v-2.7c-0.001-0.029,0.007-0.054,0.025-0.075
		c0.021-0.018,0.046-0.026,0.075-0.025h2.25c0.028-0.001,0.054,0.007,0.074,0.025C48.157,7.922,48.165,7.947,48.164,7.976z
		 M53.714,7.876h2.4c0.029-0.001,0.054,0.007,0.075,0.025c0.018,0.021,0.026,0.046,0.024,0.075v8.6
		c0.001,1.022,0.051,1.764,0.15,2.225c0.128,0.461,0.503,1.203,1.125,2.225c0.626,0.968,1.95,1.451,3.975,1.45
		c1.73-0.004,2.973-0.462,3.726-1.375v0.025c0.719-0.957,1.144-1.748,1.274-2.375c0.166-0.626,0.249-1.352,0.25-2.175v-8.6
		c-0.001-0.029,0.007-0.054,0.025-0.075c0.021-0.018,0.046-0.026,0.075-0.025h2.35c0.029-0.001,0.054,0.007,0.075,0.025
		c0.018,0.021,0.026,0.046,0.024,0.075v16.3c0.002,0.029-0.007,0.055-0.024,0.075c-0.021,0.019-0.046,0.026-0.075,0.025h-2.25
		c-0.029,0.001-0.054-0.007-0.075-0.025c-0.018-0.021-0.026-0.046-0.024-0.075v-2.149c-0.531,0.847-1.248,1.497-2.15,1.95
		c-1.049,0.469-2.231,0.703-3.55,0.699c-1.185,0.003-2.269-0.214-3.25-0.649c-0.976-0.438-1.967-1.213-2.976-2.325
		c-0.479-0.479-0.82-1.145-1.024-2c-0.168-0.874-0.251-1.949-0.25-3.225v-8.6c-0.002-0.029,0.007-0.054,0.024-0.075
		C53.66,7.883,53.685,7.875,53.714,7.876z M38.964,9.826c-1.904,0-3.529,0.625-4.875,1.875c-1.38,1.246-2.071,2.738-2.075,4.475
		c0.004,1.77,0.713,3.262,2.125,4.475c1.379,1.216,3.004,1.826,4.875,1.825c1.806-0.001,3.38-0.626,4.726-1.875
		c1.313-1.245,1.972-2.704,1.975-4.375c-0.002-1.771-0.644-3.279-1.925-4.525C42.477,10.451,40.868,9.826,38.964,9.826z
		 M7.464,2.126h2.4c0.029-0.001,0.054,0.007,0.075,0.025c0.018,0.021,0.026,0.046,0.025,0.075v8.525
		c0.581-0.975,1.431-1.75,2.55-2.325c1.283-0.604,2.616-0.903,4-0.9c2.629,0,4.888,0.809,6.775,2.425
		c1.854,1.62,2.778,3.645,2.775,6.075c0.002,1.117-0.198,2.167-0.601,3.15c-0.439,1.009-1.098,1.967-1.975,2.875
		c-0.882,0.911-1.882,1.586-3,2.025h0.024c-1.114,0.469-2.382,0.702-3.8,0.699c-1.35,0.003-2.716-0.28-4.1-0.85
		c-1.234-0.531-2.185-1.248-2.85-2.15v2.5c0.001,0.029-0.007,0.055-0.025,0.075c-0.021,0.019-0.046,0.026-0.075,0.025h-2.2
		c-0.029,0.001-0.054-0.007-0.075-0.025c-0.018-0.021-0.026-0.046-0.025-0.075V2.226C7.363,2.197,7.371,2.172,7.389,2.151
		C7.41,2.133,7.435,2.125,7.464,2.126z M10.214,13.751c-0.297,0.759-0.448,1.601-0.45,2.525c0.003,1.737,0.678,3.212,2.025,4.425
		c1.346,1.184,2.987,1.776,4.925,1.775c1.871-0.001,3.463-0.626,4.775-1.875c1.347-1.246,2.021-2.737,2.024-4.475
		c-0.002-1.804-0.678-3.312-2.024-4.525c-1.346-1.184-2.987-1.775-4.925-1.775c-0.958,0.002-1.866,0.169-2.726,0.5
		c-0.815,0.327-1.549,0.802-2.2,1.425c-0.655,0.625-1.13,1.301-1.425,2.025V13.751z"/>
</g>
</svg>
