<?xml version="1.0" encoding="utf-8"?>
<!-- Generator: Adobe Illustrator 15.0.0, SVG Export Plug-In . SVG Version: 6.00 Build 0)  -->
<!DOCTYPE svg PUBLIC "-//W3C//DTD SVG 1.1//EN" "http://www.w3.org/Graphics/SVG/1.1/DTD/svg11.dtd">
<svg version="1.1" id="Layer_1" xmlns="http://www.w3.org/2000/svg" xmlns:xlink="http://www.w3.org/1999/xlink" x="0px" y="0px"
	 width="59.65px" height="59.648px" viewBox="0 0 59.65 59.648" enable-background="new 0 0 59.65 59.648" xml:space="preserve">
<g>
	<rect x="-0.225" y="-0.376" fill-rule="evenodd" clip-rule="evenodd" fill="#DCD8CD" width="60" height="59.95"/>
</g>
<g>
	<path fill-rule="evenodd" clip-rule="evenodd" fill="#5A5341" d="M56.075,12.025c0.1-0.134,0.2-0.217,0.3-0.25
		c1.3-1.667,2.316-3.617,3.05-5.851v10.301c-0.467,0.466-0.933,0.949-1.399,1.449c0,0.067,0,0.134,0,0.2
		c-0.134,0.167-0.2,0.4-0.2,0.7c-0.1,0-0.167,0.033-0.2,0.1c-0.434,0.334-0.833,0.75-1.2,1.25h-0.05
		c-0.1-0.533-0.149-1.05-0.149-1.55c0.033-0.033,0.083-0.05,0.149-0.05c0.033-0.134,0.101-0.25,0.2-0.35
		c0.333-0.467,0.75-0.884,1.25-1.25c0-0.101,0.017-0.15,0.05-0.15c0.434-0.533,0.333-0.866-0.3-1c-0.233,0-0.434-0.017-0.6-0.05
		h-0.2c-0.533,0.399-1.25,0.633-2.15,0.7c0,0.1-0.033,0.183-0.1,0.25c-0.434,0.533-0.867,1.083-1.3,1.649
		c-0.101,0-0.167,0.017-0.2,0.05c-0.2,0.101-0.45,0.167-0.75,0.2c0,0.066-0.017,0.117-0.05,0.15c-0.768,0.434-1.45,1-2.051,1.7
		c-0.066,0-0.133,0.017-0.199,0.05c-0.434,0.3-1.051,0.434-1.851,0.399c-0.1,0-0.167,0.017-0.2,0.051
		c-0.733,0.6-1.366,1.267-1.899,2c-0.101-0.034-0.167-0.034-0.2,0c-0.5,0.133-0.967,0.3-1.4,0.5c-0.1-0.067-0.166-0.101-0.199-0.101
		c-0.301-0.3-0.7-0.517-1.2-0.649c-0.101,0-0.167,0.017-0.2,0.05c-0.9,0.233-1.533,0.783-1.9,1.649v0.051
		c-0.833,0.233-1.217-0.034-1.149-0.801c0-0.1-0.017-0.149-0.05-0.149c-0.834-0.7-1.5-0.65-2,0.149c-0.101,0-0.167,0.017-0.2,0.051
		c-0.4,0.133-0.967,0.116-1.7-0.051v0.101c-0.333,0.233-0.7,0.45-1.1,0.649c-0.067-0.566-0.301-0.85-0.7-0.85
		c-0.7-0.033-1.167-0.233-1.4-0.6c-0.399,0.133-0.85,0.183-1.35,0.149c-0.5-0.1-0.983-0.217-1.45-0.35c-0.867-0.2-1.634-0.5-2.3-0.9
		c-0.101,0-0.167,0-0.2,0c-0.533,0.033-0.934-0.066-1.2-0.3v-0.1c-0.233-0.134-0.366-0.317-0.399-0.551
		c-0.134-0.033-0.217-0.05-0.25-0.05c-0.467-0.1-0.851-0.233-1.15-0.399c-0.1,0-0.167-0.034-0.2-0.101
		c-0.333-0.267-0.366-0.55-0.1-0.85c0.467-0.267,0.883-0.2,1.25,0.2c0.033,0.066,0.1,0.133,0.2,0.199
		c1.5,0.434,2.883,0.983,4.149,1.65c0.066,0,0.15,0,0.25,0c0.566,0,1.167,0,1.8,0c0,0.1,0.033,0.15,0.101,0.15
		c0.433,0.267,0.866,0.533,1.3,0.8c0.133,0,0.3-0.017,0.5-0.05c0.133-0.067,0.283-0.067,0.45,0c0.366,0.033,0.816,0,1.35-0.101
		c0.101,0,0.184,0,0.25,0c1.101-0.066,2.117-0.017,3.05,0.15v-0.15c0.467-0.133,0.834-0.3,1.101-0.5c0.066,0,0.133,0,0.2,0
		c0.5,0,0.982,0,1.449,0c0-0.1,0.017-0.149,0.051-0.149c0.1-0.101,0.232-0.167,0.399-0.2c0.5-0.167,1.033-0.316,1.601-0.45
		c0.1-0.066,0.199-0.1,0.3-0.1c0.866-0.2,1.683-0.483,2.45-0.851c0.5-0.267,1-0.5,1.5-0.7c1.633-0.733,2.982-1.716,4.05-2.949
		c0.1,0,0.2,0.033,0.3,0.1c0.033,0.033,0.1,0.05,0.2,0.05c0.767,0.066,1.017-0.05,0.75-0.35h-0.3c0.399-0.601,0.899-1.2,1.5-1.8
		C54.891,13.525,55.509,12.791,56.075,12.025z M1.725,9.074c-0.034-0.134-0.101-0.217-0.2-0.25c-0.5-0.4-0.934-0.384-1.3,0.05
		c0,0.066,0,0.134,0,0.2c-0.034,0.667,0.283,0.983,0.949,0.95C1.708,9.725,1.891,9.407,1.725,9.074z M2.575,2.174
		c0.333-0.466,0.333-0.933,0-1.399c-0.167,0-0.316,0-0.45,0c-0.167,0-0.3,0.05-0.399,0.149c-0.467,0.301-1.034,0.483-1.7,0.551
		c0,0.066,0,0.149,0,0.25c0,0.966,0.233,1.116,0.7,0.449c0.399-0.333,0.716-0.267,0.949,0.2l0.101,0.15
		c-0.3,0.133-0.434,0.399-0.4,0.8c-0.366,0.134-0.383,0.333-0.05,0.6c0.5,0.367,0.833,0.25,1-0.35c0.1-0.066,0.15-0.134,0.15-0.2
		C2.242,2.941,2.275,2.541,2.575,2.174z M11.825-0.426c0.066,0.5,0.116,0.983,0.15,1.45c0.166,2.166,0.666,4,1.5,5.5
		c0,0.333-0.034,0.649-0.101,0.95c-0.066,0.699,0.033,1.233,0.3,1.6c0,0.1,0.017,0.167,0.051,0.2c0.533,0.233,1.066,0.483,1.6,0.75
		c-0.033,0.1-0.033,0.166,0,0.2c0.3,0.699,0.15,1.166-0.45,1.399c-0.1,0.533-0.033,0.934,0.2,1.2c0.4,0.533,0.7,1.233,0.9,2.1
		c-0.034,0.034-0.034,0.067,0,0.101c0.6,0.233,1.083,0.566,1.449,1c0.067,0.566,0.267,1.05,0.601,1.45
		c0.066,0.133,0.166,0.216,0.3,0.25c1,0.5,1.767,1.166,2.3,2c0.033,0,0.101,0.017,0.2,0.05c0.133,0.1,0.35,0.149,0.65,0.149
		c0.399,0.601,0.883,1.167,1.449,1.7c0.434,0.434,1.051,0.717,1.851,0.851c0.033,0,0.083,0.017,0.149,0.05
		c0.067,0.366,0.25,0.666,0.551,0.899c0.066,0,0.133,0.017,0.199,0.051c0.167,0.1,0.4,0.166,0.7,0.199
		c0,0.034,0.033,0.084,0.101,0.15c0.333,0.267,0.616,0.6,0.85,1c0.934,0.233,1.783,0.517,2.55,0.85c0.8,0.367,1.8,0.551,3,0.551
		v0.05c0.467,0.133,0.851,0.333,1.15,0.6c0.033,0,0.1,0,0.2,0c0.466,0,0.933,0,1.399,0v-0.1c0.4-0.066,0.717-0.184,0.95-0.351
		c0.033,0,0.1,0.017,0.2,0.051c0.366,0.199,0.683,0.5,0.95,0.899c0.533,0.066,0.933,0.017,1.199-0.149
		c0.301-0.233,0.65-0.384,1.051-0.45c0.699-0.2,1.482-0.167,2.35,0.1v-0.1c0.866-0.334,1.783-0.517,2.75-0.55l0.1-0.15
		c0.9-0.2,1.65-0.55,2.25-1.05c0.067,0,0.134,0,0.2,0c0.333,0,0.65,0,0.95,0c0-0.101,0.017-0.15,0.05-0.15
		c0.601-0.267,1.217-0.5,1.851-0.7c0-0.1,0.017-0.166,0.05-0.199c0.399-0.367,0.816-0.717,1.25-1.051c0.1,0,0.2,0.034,0.3,0.101
		c0.5,0.066,1.033,0.133,1.6,0.2c-0.033-0.101-0.033-0.15,0-0.15c0.667-0.267,1.367-0.467,2.101-0.6c0-0.101,0-0.167,0-0.2
		c0.066-0.434,0.283-0.75,0.649-0.95v-0.05c0.567-0.134,0.884,0.05,0.95,0.55c0.134,0.134,0.351,0.2,0.65,0.2
		c0.2,0,0.333-0.033,0.399-0.101c0.334-0.199,0.667-0.416,1-0.649v1.649c-0.399,0.267-0.767,0.584-1.1,0.95c0,0.101,0,0.2,0,0.3
		c-0.1,0.667,0.05,1.101,0.45,1.301c0.233,0,0.45-0.017,0.649-0.051v5.101c-0.066,0-0.133,0.017-0.199,0.05
		c-0.334,0.6-0.867,1.033-1.601,1.3c-0.7,0.2-1.383,0.5-2.05,0.9c-0.367,0.2-0.783,0.399-1.25,0.6c-0.066,0-0.134,0-0.2,0
		c-0.399,0-0.767,0-1.1,0c-0.5,0.367-1.067,0.617-1.7,0.75c-0.767,0.167-1.45,0.316-2.05,0.45c-1.533,0.333-3.15,0.583-4.851,0.75
		c-0.166,0-0.316,0-0.449,0c-1.268-0.033-2.284-0.033-3.051,0c-2.399,0.134-4.383-0.134-5.949-0.8l-0.051,0.05
		c-0.733,0.066-0.8,0.366-0.199,0.9c0.066,0.399,0,0.583-0.2,0.55c-0.601-0.134-1.3-0.167-2.101-0.101
		c-0.1-0.033-0.166-0.05-0.199-0.05c-0.167-0.233-0.351-0.45-0.551-0.649c0.101-0.601,0.017-0.967-0.25-1.101
		c-0.366-0.166-0.683-0.3-0.949-0.399c-0.768-0.367-1.5-0.417-2.2-0.15c0.033,0.634,0.25,1.083,0.649,1.35
		c0.4,0.334,0.851,0.634,1.351,0.9c0.1,0.033,0.217,0.1,0.35,0.2c1.167,0.467,2.367,0.899,3.601,1.3
		c0.767,0.267,1.616,0.517,2.55,0.75c0.1,0,0.183,0.017,0.25,0.05c0.6,0.066,1.05,0.25,1.35,0.55c0.267-0.233,0.65-0.283,1.15-0.149
		c0.166,0,0.35,0.033,0.55,0.1c0.533,0.167,1.133,0.233,1.8,0.2c0.434-0.066,0.9-0.066,1.4,0c0.267-0.066,0.566-0.1,0.899-0.1
		c0.667,0,1.384,0.033,2.15,0.1c0.133-0.066,0.267-0.066,0.4,0c1.133,0.134,1.982-0.066,2.55-0.6c0-0.101-0.033-0.15-0.101-0.15
		c-0.533-0.5-1.267-0.767-2.199-0.8c0,0.1-0.018,0.149-0.051,0.149c-0.566,0.2-0.933,0.551-1.1,1.051
		c-0.1-0.034-0.167-0.051-0.2-0.051c-0.267-0.333-0.35-0.783-0.25-1.35c0.033-0.1,0.066-0.184,0.101-0.25
		c0.1-0.267,0.283-0.4,0.55-0.4c0.6-0.066,1.066-0.233,1.399-0.5c0.934-0.066,1.767-0.233,2.5-0.5c0.634-0.333,1.417-0.5,2.351-0.5
		c0.1-0.1,0.183-0.149,0.25-0.149c0.133-0.033,0.267-0.066,0.399-0.101c0.634-0.267,1.283-0.517,1.95-0.75
		c1-0.366,1.917-0.75,2.75-1.149c0.634-0.3,1.2-0.634,1.7-1c0.033-0.033,0.066-0.066,0.1-0.101v3.101
		c-0.8,0.467-1.616,0.883-2.449,1.25c-0.268,0.066-0.534,0.133-0.801,0.2c-0.899,0.166-1.666,0.449-2.3,0.85c-0.1,0-0.167,0-0.2,0
		c-0.399,0-0.783,0-1.149,0l-0.05,0.05c-0.667,0.2-1.268,0.4-1.801,0.601c0.033,0.5,0.4,0.683,1.101,0.55
		c0.333-0.101,0.583-0.167,0.75-0.2c0.6-0.233,1.133-0.5,1.6-0.8c0.066,0,0.134,0,0.2,0c0.4,0,0.816,0,1.25,0
		c0.934-0.434,1.917-0.834,2.95-1.2c0.3-0.134,0.6-0.267,0.899-0.4v2.65c-0.699,0.333-1.449,0.583-2.25,0.75
		c-1.033,0.2-1.883,0.517-2.55,0.95c-0.267,0-0.517,0-0.75,0c-0.3,0-0.55,0.05-0.75,0.149c-0.434,0.134-0.883,0.233-1.35,0.301
		c-0.2,0-0.417,0.05-0.65,0.149c-0.934,0.3-2.1,0.45-3.5,0.45c-0.133,0-0.283,0-0.45,0c-0.767,0.066-1.533,0.066-2.3,0
		c-0.066,0-0.133,0-0.2,0c-0.433,0.066-0.899,0.066-1.399,0c-0.533-0.033-1.084-0.066-1.65-0.1c-1.033-0.101-2.116-0.167-3.25-0.2
		v-0.15c-0.399,0.033-0.616-0.083-0.649-0.35c-0.101,0-0.167,0-0.2,0c-0.5,0-0.967,0-1.4,0v-0.101
		c-0.767-0.199-1.399-0.466-1.899-0.8c-0.101,0-0.167,0-0.2,0c-0.4,0-0.783,0-1.15,0c-0.333-0.333-0.733-0.55-1.2-0.649
		c-0.833-0.134-1.433-0.467-1.8-1c-0.1,0-0.184,0-0.25,0c-0.333,0-0.649,0-0.95,0v-0.101c-1.166-0.633-2.3-1.2-3.399-1.7
		c-0.101,0-0.2,0-0.3,0c-0.4,0-0.784,0-1.15,0c0,0.067,0.033,0.117,0.1,0.15c0,0.1,0.017,0.217,0.051,0.35
		c0.033,0.134,0.1,0.233,0.199,0.301c0.101,0.066,0.184,0.133,0.25,0.199c0.233,0.267,0.551,0.5,0.95,0.7
		c0.733,0.267,1.45,0.55,2.15,0.851c0,0.033,0.017,0.05,0.05,0.05c0.233,0.133,0.366,0.35,0.4,0.649c0.1-0.066,0.199-0.066,0.3,0
		c0.666,0.267,1.267,0.634,1.8,1.101c0.1,0,0.184,0,0.25,0c0.267,0,0.566,0,0.9,0c0,0.066,0.017,0.116,0.05,0.149
		c0.5,0.233,0.95,0.5,1.35,0.801c0.033,0,0.117,0,0.25,0c0.467,0,0.917,0,1.351,0c0.232,0.233,0.533,0.416,0.899,0.55
		c0.066,0,0.167,0,0.3,0c0.601,0.066,1.051,0.267,1.351,0.6c0.767,0.066,1.55,0.184,2.35,0.351c0.367,0.066,0.816,0.066,1.351,0
		c1.1-0.167,2.267-0.134,3.5,0.1c0,0.1,0.017,0.15,0.05,0.15c0.433,0.166,0.95,0.283,1.55,0.35v-0.15
		c0.4,0.034,0.65-0.083,0.75-0.35c0.2,0,0.417,0.033,0.65,0.1c0.133,0,0.283,0.017,0.449,0.051c0.634,0.133,1.017,0,1.15-0.4
		c0.033,0,0.116,0,0.25,0c1.366-0.134,2.833-0.2,4.4-0.2c0.333-0.233,0.699-0.467,1.1-0.7c0.4-0.267,0.816-0.5,1.25-0.699
		c0.033,0,0.066,0.017,0.1,0.05c0.5,0.233,0.834,0.217,1-0.05c0.067,0,0.134,0,0.2,0c0.333-0.134,0.566-0.367,0.7-0.7
		c0.066,0,0.15,0,0.25,0c0.366-0.066,0.684-0.217,0.95-0.45c0.033,0,0.1,0,0.2,0c0.166,0,0.316,0,0.449,0v15.55
		c-0.833,0.267-1.833,0.417-3,0.45c-0.399,0-0.783,0.017-1.149,0.05c-1.434,0.334-3.033,0.5-4.8,0.5c-0.101-0.066-0.2-0.066-0.301,0
		c-0.967,0.033-1.949,0.033-2.949,0c-1.034-0.1-2.117-0.166-3.25-0.2c-0.101-0.066-0.167-0.1-0.2-0.1
		c-1.134-0.134-2.217-0.283-3.25-0.45c-0.5-0.033-0.967-0.1-1.4-0.2c-1.967-0.399-3.816-0.916-5.55-1.55
		c-0.867-0.3-1.7-0.616-2.5-0.95c-0.8-0.333-1.6-0.683-2.4-1.05c-1.333-0.533-2.55-1.166-3.649-1.899
		c-1.4-0.934-2.867-1.767-4.4-2.5c-1.434-1.267-2.883-2.45-4.35-3.551c-0.134-0.133-0.25-0.199-0.351-0.199
		c-0.267-0.134-0.467-0.301-0.6-0.5c-1.033-1.301-2.134-2.5-3.3-3.601c-1.2-1.166-2.267-2.416-3.2-3.75
		c-0.434-0.733-0.967-1.333-1.6-1.8c-0.067-0.1-0.101-0.167-0.101-0.2c-0.533-0.866-0.967-1.816-1.3-2.85
		c-0.1,0-0.15-0.017-0.15-0.05c-0.133-0.233-0.316-0.367-0.55-0.4c-0.8-1.6-1.6-3.2-2.399-4.8c-0.768-1.533-1.4-3.167-1.9-4.9
		c-0.3-0.934-0.65-1.767-1.05-2.5c0-2,0-4,0-6c0-4.3,0-8.566,0-12.8H11.825z M-0.225,38.475c0-4.534,0-9.084,0-13.65
		c0.7,1.2,1.35,2.5,1.95,3.9c0.533,1.333,1.267,2.483,2.199,3.449c0.601,1.7,1.5,3.134,2.7,4.301c0.066,0.033,0.134,0.116,0.2,0.25
		c0.9,1.399,1.917,2.683,3.05,3.85c0.601,0.566,1.167,1.167,1.7,1.8c1.566,1.834,3.316,3.483,5.25,4.95
		c0.6,0.5,1.233,0.983,1.9,1.45c1,0.733,2.033,1.416,3.1,2.05c1.467,0.833,2.967,1.65,4.5,2.45c0.4,0.233,0.816,0.416,1.25,0.55
		c1.5,0.434,2.9,0.967,4.2,1.6c0.166,0.101,0.366,0.184,0.6,0.25c0.533,0.233,1.15,0.434,1.851,0.601c0.6,0.133,1.133,0.333,1.6,0.6
		c0.333,0,0.65,0,0.95,0c0.033,0,0.1,0,0.2,0c0.033,0.267,0.283,0.4,0.75,0.4v0.1c0.633-0.066,1.149,0.05,1.55,0.351
		c0.033,0,0.05,0.033,0.05,0.1c1.4,0.1,2.783,0.167,4.15,0.2c0.1,0,0.199,0,0.3,0c0.033,0.267,0.25,0.399,0.649,0.399v0.101
		c2.367,0,4.75-0.033,7.15-0.101c0.066,0,0.133,0,0.2,0c1.233,0,2.267-0.066,3.1-0.199c0.4-0.134,0.851-0.217,1.351-0.25
		c0.433-0.034,0.883-0.101,1.35-0.2c0.366-0.101,0.767-0.15,1.2-0.15c0.233,0,0.45-0.017,0.649-0.05v1.85c-0.199,0-0.416,0-0.649,0
		c-4.567,0-9.134,0-13.7,0c-4.533,0-9.066,0-13.6,0v-0.05c-0.934-0.1-1.867-0.149-2.801-0.149v-0.101
		c-0.533-0.1-0.916-0.3-1.149-0.6c-0.101,0-0.167,0.017-0.2,0.05c-0.4,0.134-0.867,0.2-1.4,0.2c0-0.101-0.017-0.15-0.05-0.15
		c-1.3-0.434-2.517-0.916-3.649-1.45c-0.101,0-0.184,0-0.25,0c-0.334,0-0.634,0-0.9,0c-0.6-0.6-1.384-1-2.35-1.199
		c-0.867-0.267-1.634-0.634-2.301-1.101c-0.5-0.3-1.116-0.45-1.85-0.45c0,0.034,0,0.101,0,0.2c-0.066,0.033-0.083,0.084-0.05,0.15
		c0.233,0.6,0.1,1.017-0.4,1.25c-0.1-0.033-0.167-0.05-0.2-0.05c-0.633-0.4-1.017-1-1.149-1.801c-0.101-0.066-0.167-0.1-0.2-0.1
		c-0.434-0.434-1.15-0.566-2.15-0.4c0-0.1-0.017-0.149-0.05-0.149c-0.399-0.267-0.6-0.684-0.6-1.25c-0.101,0-0.167-0.017-0.2-0.05
		c-0.5-0.667-1.066-0.717-1.7-0.15c0,0.667,0,1.366,0,2.1c0,0.034,0,0.117,0,0.25c0.533,0.801,1.3,1.45,2.3,1.95
		c0.434,0.2,0.9,0.467,1.4,0.8c0.5,0.267,1.033,0.267,1.6,0c0.233-0.333,0.351-0.183,0.351,0.45c0,0.066,0,0.167,0,0.3
		c-0.033,0.034-0.05,0.067-0.05,0.101c0.333,0.6,0.833,1.033,1.5,1.3c0.066,0,0.1,0.033,0.1,0.1c-0.6,0-1.134,0-1.6,0
		c-4.567,0-9.134,0-13.7,0c0-0.433,0-0.899,0-1.399c0-4.533,0-9.066,0-13.601c0.1,0,0.166-0.017,0.2-0.05
		c0.633-0.3,0.949-0.899,0.949-1.8c0-0.1,0-0.167,0-0.2c-0.267-0.5-0.649-0.883-1.149-1.149
		C-0.225,40.291-0.225,39.374-0.225,38.475z M43.275,31.725c-0.267,0-0.467-0.051-0.601-0.15c-0.566-0.3-1.05-0.7-1.449-1.2
		c-0.101-0.033-0.2-0.033-0.301,0c-0.699,0.033-1.3,0.184-1.8,0.45h-0.149c-0.2,0.866-0.684,1.417-1.45,1.65
		c-0.033,0.699,0.416,0.916,1.35,0.649c0.134-0.1,0.283-0.116,0.45-0.05c0.667,0.033,1.517,0,2.55-0.1
		c0.667-0.067,1.3-0.167,1.9-0.301c0-0.1,0.017-0.149,0.05-0.149c0.233-0.233,0.217-0.5-0.05-0.8
		C43.575,31.725,43.408,31.725,43.275,31.725z M43.475,29.624c0.1,0,0.199,0,0.3,0c0.866-0.066,1.399-0.5,1.6-1.3
		c-0.5-0.233-1.033-0.217-1.6,0.05c-0.4,0.134-0.817,0.334-1.25,0.601c0,0.1,0.033,0.166,0.1,0.199
		C42.891,29.341,43.175,29.491,43.475,29.624z M55.275,24.574c-0.067-0.1-0.15-0.134-0.25-0.1c-0.467,0-0.851,0.1-1.15,0.3
		c-0.5,0.2-0.967,0.434-1.399,0.7c-0.733,0.366-1.5,0.683-2.301,0.949c-0.066,0.301,0.033,0.45,0.301,0.45c0.666,0,1.35,0,2.05,0
		c-0.033-0.066-0.033-0.133,0-0.2c0.533-0.399,0.983-0.866,1.35-1.399c0.101-0.033,0.184-0.05,0.25-0.05
		C54.725,25.191,55.108,24.975,55.275,24.574z M55.575,25.975l-0.1,0.1c-0.9,0.233-1.567,0.667-2,1.3
		c-0.034,0.033-0.034,0.101,0,0.2c0.033,0.1,0.05,0.167,0.05,0.2c-0.033,0.666,0.166,1.066,0.6,1.2c0.333,0.1,0.517,0.033,0.55-0.2
		c0-0.101,0.067-0.167,0.2-0.2c1.467-0.366,2.517-1.15,3.15-2.35c-0.134-0.101-0.283-0.167-0.45-0.2
		C56.908,25.991,56.242,25.975,55.575,25.975z M0.525,46.975c-0.067,0.1-0.067,0.166,0,0.199c1.166,2.101,2.866,3.667,5.1,4.7
		c0.033-0.033,0.101-0.033,0.2,0c0.733,0.101,1.2-0.05,1.4-0.45c-0.067-0.133-0.101-0.233-0.101-0.3
		c-0.333-0.566-0.833-0.95-1.5-1.149c-0.066-0.067-0.1-0.134-0.1-0.2c-0.267-0.2-0.233-0.434,0.1-0.7
		c0.033-0.066,0.066-0.1,0.101-0.1c0.466-0.7,0.5-1.517,0.1-2.45c-0.1,0-0.167-0.017-0.2-0.05c-0.399-0.233-0.717-0.534-0.95-0.9
		c-0.1,0-0.166-0.017-0.199-0.05c-0.2-0.101-0.45-0.15-0.75-0.15c0-0.1-0.018-0.166-0.051-0.2c-0.5-0.566-1.1-1.033-1.8-1.399
		c-0.1,0-0.149,0.017-0.149,0.05c-0.4,0.366-0.9,0.634-1.5,0.8c0,0.134,0.033,0.3,0.1,0.5c0.033,0.066,0.05,0.15,0.05,0.25
		C0.242,46.108,0.292,46.641,0.525,46.975z M43.975,37.074c-0.268,0.3-0.534,0.283-0.801-0.05c-0.1-0.134-0.149-0.267-0.149-0.4
		c0-0.1,0-0.166,0-0.2C43.992,36.324,44.308,36.541,43.975,37.074z M46.025,48.374c-0.101-0.033-0.167-0.05-0.2-0.05
		c-1.367-0.233-2.3,0.017-2.8,0.75c0,0.033,0,0.116,0,0.25c0,0.667,0,1.366,0,2.1c0,0.034,0.017,0.067,0.05,0.101
		c0.5,0.6,1.017,1.166,1.55,1.7c0.101,0,0.184,0,0.25,0c1.134,0.133,1.983-0.034,2.55-0.5c0.134-0.167,0.25-0.384,0.351-0.65
		c0-0.1,0-0.167,0-0.2c0-0.166,0-0.35,0-0.55c-0.101-0.667-0.217-1.267-0.351-1.8c-0.066,0-0.133-0.017-0.199-0.05
		C46.891,49.008,46.492,48.641,46.025,48.374z M54.325,50.475c-0.066,0-0.134,0-0.2,0c-0.167-0.034-0.25-0.017-0.25,0.05
		c-0.3,0.533-0.899,0.733-1.8,0.6c-0.1,0-0.167,0-0.2,0c-0.533-0.3-0.783-0.899-0.75-1.8c0.533-0.5,1.167-0.616,1.9-0.35
		c0.566,0.233,0.85,0.1,0.85-0.4v-0.1c-0.133-0.101-0.267-0.167-0.399-0.2c-0.268-0.101-0.733-0.101-1.4,0
		c-0.767,0.066-1.3,0.333-1.6,0.8c-0.067,0.033-0.101,0.116-0.101,0.25c-0.033,0.9,0.217,1.5,0.75,1.8
		c0.167,0.2,0.483,0.316,0.95,0.351c0.033,0,0.1,0,0.2,0c0.433-0.134,0.833-0.084,1.2,0.149c0.033,0,0.083,0.017,0.149,0.05
		c0.066,0.034,0.134,0.084,0.2,0.15c-0.2,0.833,0.066,1.233,0.8,1.2c0.033,0,0.066-0.033,0.101-0.101
		C55.158,51.958,55.025,51.141,54.325,50.475z M46.025,49.324c0.533,0.5,0.8,1.267,0.8,2.3c0,0.134-0.033,0.283-0.1,0.45
		c-0.067,0.4-0.367,0.55-0.9,0.45c-0.1,0-0.184,0-0.25,0c-0.333-0.167-0.65-0.316-0.95-0.45c-0.033-0.033-0.1-0.033-0.2,0
		c-0.433-0.566-0.75-1.267-0.949-2.1c0-0.067,0-0.15,0-0.25c0.533-0.7,1.316-0.851,2.35-0.45
		C45.858,49.308,45.925,49.324,46.025,49.324z M24.025,27.824c0,0.066,0.033,0.134,0.1,0.2c0.467,0.6,1.134,0.983,2,1.149
		c0,0.101,0.017,0.167,0.05,0.2c0.233,0.101,0.367,0.283,0.4,0.55c1.033,0.167,1.883,0.534,2.55,1.101
		c0.5,0.434,0.967,0.533,1.4,0.3l0.149-0.1c0.167-1-0.033-1.684-0.6-2.051c-0.3,0-0.583-0.017-0.85-0.05c-1-0.333-1.9-0.733-2.7-1.2
		c-0.101-0.066-0.217-0.133-0.351-0.199C25.375,27.258,24.658,27.291,24.025,27.824z M22.425,24.824
		c-0.133,0-0.267-0.017-0.399-0.05c-0.101-0.066-0.184-0.117-0.25-0.15c-0.267-0.1-0.3-0.316-0.101-0.649
		c0.134-0.334,0.067-0.75-0.199-1.25c-0.134-0.167-0.351-0.25-0.65-0.25c-0.533,0-1,0.083-1.4,0.25c0,0.066,0,0.133,0,0.199
		c0,0.4,0,0.817,0,1.25h0.15c0.033,0.4,0.167,0.684,0.4,0.851c0.033,0.1,0.1,0.184,0.199,0.25c0.2,0.267,0.467,0.533,0.801,0.8
		c0.333,0.366,0.916,0.55,1.75,0.55c0-0.1,0.017-0.166,0.05-0.2C23.141,25.725,23.025,25.191,22.425,24.824z M35.825,28.975
		c0,0.267,0.116,0.466,0.35,0.6c0.634,0.3,1.15,0.316,1.551,0.05c0.232,0,0.3-0.149,0.199-0.45c-0.033-0.166-0.116-0.283-0.25-0.35
		c-0.199-0.066-0.416-0.134-0.649-0.2C36.691,28.458,36.292,28.574,35.825,28.975z M31.975,29.025c0.732-0.267,0.816-0.566,0.25-0.9
		c-0.233-0.133-0.567-0.066-1,0.2c-0.2,0.6-0.051,0.866,0.449,0.8C31.775,29.124,31.875,29.091,31.975,29.025z M36.325,36.424
		c0.667-0.666,1.083-0.517,1.25,0.45c0,0.134-0.033,0.217-0.1,0.25c-0.434,0.134-0.684,0.05-0.75-0.25
		c-0.067-0.133-0.117-0.217-0.15-0.25C36.475,36.525,36.391,36.458,36.325,36.424z M41.725,36.725c0.1,0.066,0.149,0.183,0.149,0.35
		c-0.366,0.434-1.066,0.634-2.1,0.6c-0.067-0.033-0.15-0.033-0.25,0c-0.5,0-0.717-0.283-0.65-0.85
		c0.566-0.267,1.351-0.366,2.351-0.3C41.425,36.525,41.592,36.591,41.725,36.725z M19.225,58.324c0.5-0.866,0.833-0.783,1,0.25
		c0,0.134-0.051,0.25-0.15,0.35C19.608,59.258,19.325,59.058,19.225,58.324z M24.225,42.824l0.1,0.2
		c0.467,0.066,0.7-0.217,0.7-0.851c-0.033-0.199-0.067-0.3-0.101-0.3c-0.467-0.166-0.767-0.066-0.899,0.3
		C24.025,42.441,24.092,42.657,24.225,42.824z M27.875,45.374l-0.1-0.25c-0.434,0.334-0.9,0.334-1.4,0
		c-0.066-0.1-0.133-0.166-0.2-0.2c-0.066-0.267-0.217-0.399-0.449-0.399c-0.634-0.101-1.101-0.283-1.4-0.55c0,0.1,0,0.183,0,0.25
		c0.2,0.899,0.8,1.433,1.8,1.6c0,0.066,0.017,0.116,0.05,0.15c0.267,0.267,0.567,0.533,0.9,0.8c0.066,0,0.15,0,0.25,0
		c0.5-0.066,0.717-0.467,0.65-1.2C27.908,45.475,27.875,45.407,27.875,45.374z M33.375,48.374c0.066,1.066,0.816,1.517,2.25,1.351
		c0,0.1,0.033,0.149,0.101,0.149c0.866,0.5,1.466,0.384,1.8-0.35c-0.167-0.167-0.283-0.384-0.351-0.65l-0.05-0.149
		c-0.267,0.267-0.6,0.466-1,0.6c-0.1-0.1-0.2-0.184-0.3-0.25c-0.134-0.1-0.233-0.2-0.3-0.3c-0.134-0.3-0.384-0.384-0.75-0.25
		c-0.5,0.166-0.967,0.033-1.4-0.4C33.308,48.225,33.308,48.308,33.375,48.374z"/>
</g>
</svg>
